SplineFontDB: 3.2
FontName: MyriadProLight
FullName: MyriadPro-Light
FamilyName: MyriadProLight
Weight: Light
Copyright: Copyright (c) 2000 Adobe Systems Incorporated. All Rights Reserved. U.S. Patent Des. pending.
Version: OTF 1.006;PS 001.000;Core 1.0.23;hotunix 1.28
ItalicAngle: 0
UnderlinePosition: -200
UnderlineWidth: 50
Ascent: 750
Descent: 250
InvalidEm: 0
sfntRevision: 0x00010189
LayerCount: 2
Layer: 0 1 "Back" 1
Layer: 1 1 "Fore" 0
XUID: [1021 5 -1575801422 20042]
BaseHoriz: 2 'ideo' 'romn'
BaseScript: 'cyrl' 1  -163 0
BaseScript: 'grek' 1  -163 0
BaseScript: 'latn' 1  -163 0
StyleMap: 0x0000
FSType: 8
OS2Version: 2
OS2_WeightWidthSlopeOnly: 0
OS2_UseTypoMetrics: 0
CreationTime: 958492223
ModificationTime: 958492223
PfmFamily: 17
TTFWeight: 300
TTFWidth: 5
LineGap: 200
VLineGap: 0
Panose: 2 11 4 3 3 4 3 2 2 4
OS2TypoAscent: 750
OS2TypoAOffset: 0
OS2TypoDescent: -250
OS2TypoDOffset: 0
OS2TypoLinegap: 200
OS2WinAscent: 883
OS2WinAOffset: 0
OS2WinDescent: 250
OS2WinDOffset: 0
HheadAscent: 750
HheadAOffset: 0
HheadDescent: -250
HheadDOffset: 0
OS2SubXSize: 650
OS2SubYSize: 600
OS2SubXOff: 0
OS2SubYOff: 75
OS2SupXSize: 650
OS2SupYSize: 600
OS2SupXOff: 0
OS2SupYOff: 350
OS2StrikeYSize: 50
OS2StrikeYPos: 290
OS2CapHeight: 674
OS2XHeight: 484
OS2Vendor: 'ADBE'
OS2CodePages: 0000009f.00000000
OS2UnicodeRanges: a00002af.5000204b.00000000.00000000
Lookup: 1 0 0 "'aalt' Access All Alternates lookup 0" { "'aalt' Access All Alternates lookup 0 subtable"  } ['aalt' ('cyrl' <'dflt' > 'grek' <'dflt' > 'latn' <'dflt' > ) ]
Lookup: 3 0 0 "'aalt' Access All Alternates lookup 1" { "'aalt' Access All Alternates lookup 1 subtable"  } ['aalt' ('cyrl' <'dflt' > 'grek' <'dflt' > 'latn' <'dflt' > ) ]
Lookup: 1 0 0 "'case' Case-Sensitive Forms lookup 2" { "'case' Case-Sensitive Forms lookup 2 subtable"  } ['case' ('cyrl' <'dflt' > 'grek' <'dflt' > 'latn' <'dflt' > ) ]

StartChar: .notdef
Encoding: 65536 -1 0
Width: 500
GlyphClass: 1
Flags: W
LayerCount: 2
Fore
SplineSet
0 0 m 1,0,-1
 0 700 l 1,1,-1
 500 700 l 1,2,-1
 500 0 l 1,3,-1
 0 0 l 1,0,-1
250 395 m 1,4,-1
 420 650 l 1,5,-1
 80 650 l 1,6,-1
 250 395 l 1,4,-1
280 350 m 1,7,-1
 450 95 l 1,8,-1
 450 605 l 1,9,-1
 280 350 l 1,7,-1
80 50 m 1,10,-1
 420 50 l 1,11,-1
 250 305 l 1,12,-1
 80 50 l 1,10,-1
50 605 m 1,13,-1
 50 95 l 1,14,-1
 220 350 l 1,15,-1
 50 605 l 1,13,-1
EndSplineSet
EndChar

StartChar: exclam
Encoding: 33 33 4
Width: 207
GlyphClass: 2
Flags: W
LayerCount: 2
Fore
SplineSet
122 177 m 1,0,-1
 83 177 l 1,1,-1
 73 674 l 1,2,-1
 132 674 l 1,3,-1
 122 177 l 1,0,-1
104 -11 m 2,4,-1
 103 -11 l 2,5,6
 86 -11 86 -11 74.5 2 c 128,-1,7
 63 15 63 15 64 33 c 0,8,9
 64 52 64 52 75.5 65 c 128,-1,10
 87 78 87 78 104 78 c 0,11,12
 122 78 122 78 133 65.5 c 128,-1,13
 144 53 144 53 144 33 c 0,14,15
 144 14 144 14 133 1.5 c 128,-1,16
 122 -11 122 -11 104 -11 c 2,4,-1
EndSplineSet
EndChar

StartChar: quotedbl
Encoding: 34 34 5
Width: 301
GlyphClass: 2
Flags: W
LayerCount: 2
Fore
SplineSet
60 692 m 1,0,-1
 117 692 l 1,1,-1
 105 471 l 1,2,-1
 73 471 l 1,3,-1
 60 692 l 1,0,-1
183 692 m 1,4,-1
 240 692 l 1,5,-1
 228 471 l 1,6,-1
 196 471 l 1,7,-1
 183 692 l 1,4,-1
EndSplineSet
EndChar

StartChar: numbersign
Encoding: 35 35 6
Width: 465
GlyphClass: 2
Flags: W
LayerCount: 2
Fore
SplineSet
167 245 m 1,0,-1
 279 245 l 1,1,-1
 299 410 l 1,2,-1
 187 410 l 1,3,-1
 167 245 l 1,0,-1
136 0 m 1,4,-1
 94 0 l 1,5,-1
 120 206 l 1,6,-1
 37 206 l 1,7,-1
 37 245 l 1,8,-1
 125 245 l 1,9,-1
 146 410 l 1,10,-1
 58 410 l 1,11,-1
 58 449 l 1,12,-1
 151 449 l 1,13,-1
 177 650 l 1,14,-1
 218 650 l 1,15,-1
 192 449 l 1,16,-1
 305 449 l 1,17,-1
 331 650 l 1,18,-1
 371 650 l 1,19,-1
 346 449 l 1,20,-1
 429 449 l 1,21,-1
 429 410 l 1,22,-1
 341 410 l 1,23,-1
 320 245 l 1,24,-1
 409 245 l 1,25,-1
 409 206 l 1,26,-1
 315 206 l 1,27,-1
 289 0 l 1,28,-1
 248 0 l 1,29,-1
 274 206 l 1,30,-1
 162 206 l 1,31,-1
 136 0 l 1,4,-1
EndSplineSet
Substitution2: "'onum' Oldstyle Figures lookup 4 subtable" uniF650
Substitution2: "'aalt' Access All Alternates lookup 0 subtable" uniF650
EndChar

StartChar: dollar
Encoding: 36 36 7
Width: 488
GlyphClass: 2
Flags: W
LayerCount: 2
Fore
SplineSet
255 -84 m 1,0,-1
 214 -84 l 1,1,-1
 214 19 l 1,2,3
 129 19 129 19 72 64 c 1,4,-1
 93 101 l 1,5,6
 146 58 146 58 221 58 c 0,7,8
 281 58 281 58 318 92 c 128,-1,9
 355 126 355 126 355 178 c 0,10,11
 355 225 355 225 325.5 257.5 c 128,-1,12
 296 290 296 290 238 316 c 0,13,14
 158 351 158 351 120 388.5 c 128,-1,15
 82 426 82 426 82 484 c 0,16,17
 82 543 82 543 120.5 584.5 c 128,-1,18
 159 626 159 626 221 635 c 1,19,-1
 221 739 l 1,20,-1
 262 739 l 1,21,-1
 262 636 l 1,22,23
 332 633 332 633 382 599 c 1,24,-1
 361 562 l 1,25,26
 313 597 313 597 246 597 c 0,27,28
 187 597 187 597 157 565 c 128,-1,29
 127 533 127 533 127 492 c 0,30,31
 127 447 127 447 155 419.5 c 128,-1,32
 183 392 183 392 253 361 c 0,33,34
 328 327 328 327 364.5 285.5 c 128,-1,35
 401 244 401 244 401 182 c 0,36,37
 401 123 401 123 362.5 77 c 128,-1,38
 324 31 324 31 255 20 c 1,39,-1
 255 -84 l 1,0,-1
EndSplineSet
Substitution2: "'dnom' Denominators lookup 11 subtable" uniF62A
Substitution2: "'numr' Numerators lookup 10 subtable" uniF62F
Substitution2: "'sinf' Scientific Inferiors lookup 9 subtable" dollarinferior
Substitution2: "'sups' Superscript lookup 8 subtable" dollarsuperior
Substitution2: "'onum' Oldstyle Figures lookup 4 subtable" uniF653
AlternateSubs2: "'aalt' Access All Alternates lookup 1 subtable" uniF653 dollarsuperior dollarinferior uniF62F uniF62A
EndChar

StartChar: percent
Encoding: 37 37 8
Width: 737
GlyphClass: 3
Flags: W
LayerCount: 2
Fore
SplineSet
174 661 m 2,0,-1
 175 661 l 2,1,2
 235 661 235 661 272 611.5 c 128,-1,3
 309 562 309 562 309 467 c 0,4,5
 309 368 309 368 269.5 315.5 c 128,-1,6
 230 263 230 263 169 263 c 0,7,8
 112 263 112 263 72.5 312.5 c 128,-1,9
 33 362 33 362 32 458 c 0,10,11
 32 557 32 557 74 609 c 128,-1,12
 116 661 116 661 174 661 c 2,0,-1
171 627 m 2,13,-1
 170 627 l 2,14,15
 126 627 126 627 100.5 580 c 128,-1,16
 75 533 75 533 75 462 c 0,17,18
 73 391 73 391 99 344 c 128,-1,19
 125 297 125 297 170 297 c 0,20,21
 218 297 218 297 242 343 c 128,-1,22
 266 389 266 389 266 464 c 0,23,24
 266 536 266 536 243 581.5 c 128,-1,25
 220 627 220 627 171 627 c 2,13,-1
193 -13 m 1,26,-1
 154 -13 l 1,27,-1
 542 663 l 1,28,-1
 581 663 l 1,29,-1
 193 -13 l 1,26,-1
570 392 m 2,30,-1
 571 392 l 2,31,32
 631 392 631 392 668 342.5 c 128,-1,33
 705 293 705 293 705 198 c 0,34,35
 705 99 705 99 665.5 46.5 c 128,-1,36
 626 -6 626 -6 565 -6 c 0,37,38
 508 -6 508 -6 468.5 43.5 c 128,-1,39
 429 93 429 93 428 189 c 0,40,41
 428 287 428 287 470 339.5 c 128,-1,42
 512 392 512 392 570 392 c 2,30,-1
567 358 m 2,43,-1
 566 358 l 2,44,45
 522 358 522 358 496.5 311 c 128,-1,46
 471 264 471 264 471 193 c 0,47,48
 469 122 469 122 495.5 75 c 128,-1,49
 522 28 522 28 566 28 c 0,50,51
 614 28 614 28 638 74 c 128,-1,52
 662 120 662 120 662 195 c 0,53,54
 662 267 662 267 639 312.5 c 128,-1,55
 616 358 616 358 567 358 c 2,43,-1
EndSplineSet
Ligature2: "'frac' Diagonal Fractions in Latin lookup 21 subtable" zero fraction zero
Ligature2: "'frac' Diagonal Fractions in Latin lookup 21 subtable" zero slash zero
Substitution2: "'onum' Oldstyle Figures lookup 4 subtable" uniF642
Substitution2: "'aalt' Access All Alternates lookup 0 subtable" uniF642
EndChar

StartChar: ampersand
Encoding: 38 38 9
Width: 560
GlyphClass: 2
Flags: W
LayerCount: 2
Fore
SplineSet
560 0 m 1,0,-1
 500 0 l 1,1,2
 490 10 490 10 466.5 34.5 c 128,-1,3
 443 59 443 59 426 76 c 1,4,5
 335 -11 335 -11 221 -11 c 0,6,7
 139 -11 139 -11 85 43.5 c 128,-1,8
 31 98 31 98 31 177 c 0,9,10
 31 298 31 298 164 376 c 1,11,-1
 164 379 l 1,12,13
 106 457 106 457 106 526 c 0,14,15
 106 590 106 590 147 637.5 c 128,-1,16
 188 685 188 685 258 685 c 0,17,18
 313 685 313 685 350 648 c 128,-1,19
 387 611 387 611 387 551 c 0,20,21
 387 495 387 495 351 452 c 128,-1,22
 315 409 315 409 230 367 c 1,23,-1
 230 364 l 1,24,25
 276 310 276 310 426 139 c 1,26,27
 473 210 473 210 496 355 c 1,28,-1
 541 355 l 1,29,30
 513 186 513 186 453 111 c 1,31,32
 480 84 480 84 560 0 c 1,0,-1
232 28 m 2,33,-1
 233 28 l 2,34,35
 332 28 332 28 399 105 c 1,36,37
 382 125 382 125 307.5 208 c 128,-1,38
 233 291 233 291 186 346 c 1,39,40
 79 282 79 282 79 183 c 0,41,42
 79 115 79 115 122 71.5 c 128,-1,43
 165 28 165 28 232 28 c 2,33,-1
251 646 m 2,44,-1
 250 646 l 2,45,46
 203 646 203 646 177 612.5 c 128,-1,47
 151 579 151 579 151 530 c 0,48,49
 151 469 151 469 206 394 c 1,50,51
 274 430 274 430 308 464.5 c 128,-1,52
 342 499 342 499 342 546 c 0,53,54
 342 587 342 587 319 616.5 c 128,-1,55
 296 646 296 646 251 646 c 2,44,-1
EndSplineSet
EndChar

StartChar: quotesingle
Encoding: 39 39 10
Width: 178
GlyphClass: 2
Flags: W
LayerCount: 2
Fore
SplineSet
60 692 m 1,0,-1
 117 692 l 1,1,-1
 105 471 l 1,2,-1
 73 471 l 1,3,-1
 60 692 l 1,0,-1
EndSplineSet
EndChar

StartChar: parenleft
Encoding: 40 40 11
Width: 265
GlyphClass: 2
Flags: W
LayerCount: 2
Fore
SplineSet
208 697 m 1,0,-1
 253 697 l 1,1,2
 113 523 113 523 113 284 c 0,3,4
 113 59 113 59 253 -123 c 1,5,-1
 208 -123 l 1,6,7
 67 53 67 53 67 285 c 128,-1,8
 67 517 67 517 208 697 c 1,0,-1
EndSplineSet
Substitution2: "'dnom' Denominators lookup 11 subtable" uniF62C
Substitution2: "'numr' Numerators lookup 10 subtable" uniF631
Substitution2: "'sinf' Scientific Inferiors lookup 9 subtable" parenleftinferior
Substitution2: "'sups' Superscript lookup 8 subtable" parenleftsuperior
Substitution2: "'case' Case-Sensitive Forms lookup 2 subtable" uniF6AE
AlternateSubs2: "'aalt' Access All Alternates lookup 1 subtable" uniF6AE parenleftsuperior parenleftinferior uniF631 uniF62C
EndChar

StartChar: parenright
Encoding: 41 41 12
Width: 265
GlyphClass: 2
Flags: W
LayerCount: 2
Fore
SplineSet
57 -123 m 1,0,-1
 12 -123 l 1,1,2
 152 57 152 57 152 288 c 0,3,4
 152 517 152 517 12 697 c 1,5,-1
 57 697 l 1,6,7
 198 521 198 521 198 287 c 0,8,9
 198 57 198 57 57 -123 c 1,0,-1
EndSplineSet
Substitution2: "'dnom' Denominators lookup 11 subtable" uniF62D
Substitution2: "'numr' Numerators lookup 10 subtable" uniF632
Substitution2: "'sinf' Scientific Inferiors lookup 9 subtable" parenrightinferior
Substitution2: "'sups' Superscript lookup 8 subtable" parenrightsuperior
Substitution2: "'case' Case-Sensitive Forms lookup 2 subtable" uniF6AF
AlternateSubs2: "'aalt' Access All Alternates lookup 1 subtable" uniF6AF parenrightsuperior parenrightinferior uniF632 uniF62D
EndChar

StartChar: asterisk
Encoding: 42 42 13
Width: 391
GlyphClass: 2
Flags: W
LayerCount: 2
Fore
SplineSet
259 685 m 1,0,-1
 303 660 l 1,1,-1
 215 538 l 1,2,-1
 215 536 l 1,3,-1
 361 548 l 1,4,-1
 361 501 l 1,5,-1
 216 513 l 1,6,-1
 216 511 l 1,7,-1
 304 392 l 1,8,-1
 258 366 l 1,9,-1
 195 498 l 1,10,-1
 193 498 l 1,11,-1
 124 365 l 1,12,-1
 85 392 l 1,13,-1
 172 512 l 1,14,-1
 172 514 l 1,15,-1
 30 501 l 1,16,-1
 30 548 l 1,17,-1
 171 537 l 1,18,-1
 171 539 l 1,19,-1
 85 659 l 1,20,-1
 129 684 l 1,21,-1
 194 554 l 1,22,-1
 196 554 l 1,23,-1
 259 685 l 1,0,-1
EndSplineSet
EndChar

StartChar: plus
Encoding: 43 43 14
Width: 596
GlyphClass: 2
Flags: W
LayerCount: 2
Fore
SplineSet
277 532 m 1,0,-1
 320 532 l 1,1,-1
 320 287 l 1,2,-1
 556 287 l 1,3,-1
 556 247 l 1,4,-1
 320 247 l 1,5,-1
 320 0 l 1,6,-1
 277 0 l 1,7,-1
 277 247 l 1,8,-1
 41 247 l 1,9,-1
 41 287 l 1,10,-1
 277 287 l 1,11,-1
 277 532 l 1,0,-1
EndSplineSet
EndChar

StartChar: comma
Encoding: 44 44 15
Width: 174
GlyphClass: 2
Flags: W
LayerCount: 2
Fore
SplineSet
64 -121 m 1,0,-1
 26 -126 l 1,1,2
 38 -94 38 -94 54.5 -27 c 128,-1,3
 71 40 71 40 78 86 c 1,4,-1
 141 96 l 1,5,6
 128 43 128 43 102.5 -27.5 c 128,-1,7
 77 -98 77 -98 64 -121 c 1,0,-1
EndSplineSet
Substitution2: "'dnom' Denominators lookup 11 subtable" uniF65F
Substitution2: "'numr' Numerators lookup 10 subtable" uniF66B
Substitution2: "'sinf' Scientific Inferiors lookup 9 subtable" commainferior
Substitution2: "'sups' Superscript lookup 8 subtable" commasuperior
AlternateSubs2: "'aalt' Access All Alternates lookup 1 subtable" commasuperior commainferior uniF66B uniF65F
EndChar

StartChar: hyphen
Encoding: 45 45 16
AltUni2: 0000ad.ffffffff.0 0000ad.ffffffff.0
Width: 298
GlyphClass: 2
Flags: W
LayerCount: 2
Fore
SplineSet
30 296 m 1,0,-1
 268 296 l 1,1,-1
 268 254 l 1,2,-1
 30 254 l 1,3,-1
 30 296 l 1,0,-1
EndSplineSet
Substitution2: "'dnom' Denominators lookup 11 subtable" uniF62B
Substitution2: "'numr' Numerators lookup 10 subtable" uniF630
Substitution2: "'sinf' Scientific Inferiors lookup 9 subtable" hypheninferior
Substitution2: "'sups' Superscript lookup 8 subtable" hyphensuperior
Substitution2: "'case' Case-Sensitive Forms lookup 2 subtable" uniF6BA
AlternateSubs2: "'aalt' Access All Alternates lookup 1 subtable" endash emdash uniF6BA hyphensuperior hypheninferior uniF630 uniF62B
EndChar

StartChar: period
Encoding: 46 46 17
Width: 174
GlyphClass: 2
Flags: W
LayerCount: 2
Fore
SplineSet
94 -11 m 2,0,-1
 93 -11 l 2,1,2
 76 -11 76 -11 64.5 2.5 c 128,-1,3
 53 16 53 16 54 34 c 0,4,5
 54 54 54 54 65.5 66.5 c 128,-1,6
 77 79 77 79 95 79 c 128,-1,7
 113 79 113 79 124 66.5 c 128,-1,8
 135 54 135 54 135 34 c 0,9,10
 135 15 135 15 123.5 2 c 128,-1,11
 112 -11 112 -11 94 -11 c 2,0,-1
EndSplineSet
Substitution2: "'dnom' Denominators lookup 11 subtable" uniF660
Substitution2: "'numr' Numerators lookup 10 subtable" uniF66C
Substitution2: "'sinf' Scientific Inferiors lookup 9 subtable" periodinferior
Substitution2: "'sups' Superscript lookup 8 subtable" periodsuperior
AlternateSubs2: "'aalt' Access All Alternates lookup 1 subtable" ellipsis periodsuperior periodinferior uniF66C uniF660
EndChar

StartChar: slash
Encoding: 47 47 18
Width: 351
GlyphClass: 2
Flags: W
LayerCount: 2
Fore
SplineSet
35 -40 m 1,0,-1
 -11 -40 l 1,1,-1
 307 685 l 1,2,-1
 356 685 l 1,3,-1
 35 -40 l 1,0,-1
EndSplineSet
Substitution2: "'dnom' Denominators lookup 11 subtable" fraction
Substitution2: "'numr' Numerators lookup 10 subtable" fraction
Substitution2: "'aalt' Access All Alternates lookup 0 subtable" fraction
EndChar

StartChar: zero
Encoding: 48 48 19
Width: 488
GlyphClass: 2
Flags: W
LayerCount: 2
Fore
SplineSet
238 -11 m 2,0,-1
 237 -11 l 2,1,2
 154 -11 154 -11 97 73 c 128,-1,3
 40 157 40 157 38 322 c 0,4,5
 38 488 38 488 100 574.5 c 128,-1,6
 162 661 162 661 251 661 c 0,7,8
 341 661 341 661 395.5 578.5 c 128,-1,9
 450 496 450 496 450 334 c 0,10,11
 450 164 450 164 393.5 76.5 c 128,-1,12
 337 -11 337 -11 238 -11 c 2,0,-1
242 29 m 2,13,-1
 243 29 l 2,14,15
 321 29 321 29 360.5 110 c 128,-1,16
 400 191 400 191 400 329 c 0,17,18
 400 463 400 463 361.5 542 c 128,-1,19
 323 621 323 621 244 621 c 0,20,21
 174 621 174 621 131 540 c 128,-1,22
 88 459 88 459 88 329 c 0,23,24
 86 194 86 194 128.5 111.5 c 128,-1,25
 171 29 171 29 242 29 c 2,13,-1
EndSplineSet
Substitution2: "'zero' Slashed Zero lookup 18 subtable" uniF638
Substitution2: "'dnom' Denominators lookup 11 subtable" uniF655
Substitution2: "'numr' Numerators lookup 10 subtable" uniF661
Substitution2: "'sinf' Scientific Inferiors lookup 9 subtable" zeroinferior
Substitution2: "'sups' Superscript lookup 8 subtable" zerosuperior
Substitution2: "'pnum' Proportional Numbers lookup 6 subtable" uniF639
Substitution2: "'onum' Oldstyle Figures lookup 4 subtable" uniF643
AlternateSubs2: "'aalt' Access All Alternates lookup 1 subtable" uniF639 zerooldstyle uniF643 zerosuperior zeroinferior uniF661 uniF655 uniF638
EndChar

StartChar: one
Encoding: 49 49 20
Width: 488
GlyphClass: 2
Flags: W
LayerCount: 2
Fore
SplineSet
236 0 m 1,0,-1
 236 601 l 1,1,-1
 234 601 l 1,2,-1
 128 539 l 1,3,-1
 116 577 l 1,4,-1
 239 650 l 1,5,-1
 283 650 l 1,6,-1
 283 0 l 1,7,-1
 236 0 l 1,0,-1
EndSplineSet
Substitution2: "'dnom' Denominators lookup 11 subtable" uniF656
Substitution2: "'numr' Numerators lookup 10 subtable" uniF662
Substitution2: "'sinf' Scientific Inferiors lookup 9 subtable" oneinferior
Substitution2: "'sups' Superscript lookup 8 subtable" onesuperior
Substitution2: "'pnum' Proportional Numbers lookup 6 subtable" uniF6DC
Substitution2: "'onum' Oldstyle Figures lookup 4 subtable" uniF644
AlternateSubs2: "'aalt' Access All Alternates lookup 1 subtable" uniF6DC oneoldstyle uniF644 onesuperior oneinferior uniF662 uniF656
EndChar

StartChar: two
Encoding: 50 50 21
Width: 488
GlyphClass: 2
Flags: W
LayerCount: 2
Fore
SplineSet
433 0 m 1,0,-1
 46 0 l 1,1,-1
 46 29 l 1,2,-1
 106 91 l 1,3,4
 253 234 253 234 309.5 313.5 c 128,-1,5
 366 393 366 393 366 472 c 0,6,7
 366 536 366 536 333.5 577.5 c 128,-1,8
 301 619 301 619 225 619 c 0,9,10
 152 619 152 619 87 563 c 1,11,-1
 68 596 l 1,12,13
 140 661 140 661 234 661 c 0,14,15
 326 661 326 661 370.5 606 c 128,-1,16
 415 551 415 551 415 482 c 0,17,18
 415 393 415 393 356.5 310 c 128,-1,19
 298 227 298 227 159 90 c 1,20,-1
 113 42 l 1,21,-1
 113 40 l 1,22,-1
 433 40 l 1,23,-1
 433 0 l 1,0,-1
EndSplineSet
Substitution2: "'dnom' Denominators lookup 11 subtable" uniF657
Substitution2: "'numr' Numerators lookup 10 subtable" uniF663
Substitution2: "'sinf' Scientific Inferiors lookup 9 subtable" twoinferior
Substitution2: "'sups' Superscript lookup 8 subtable" twosuperior
Substitution2: "'pnum' Proportional Numbers lookup 6 subtable" uniF63A
Substitution2: "'onum' Oldstyle Figures lookup 4 subtable" uniF645
AlternateSubs2: "'aalt' Access All Alternates lookup 1 subtable" uniF63A twooldstyle uniF645 twosuperior twoinferior uniF663 uniF657
EndChar

StartChar: three
Encoding: 51 51 22
Width: 488
GlyphClass: 2
Flags: W
LayerCount: 2
Fore
SplineSet
45 33 m 1,0,-1
 64 71 l 1,1,2
 85 56 85 56 123.5 43 c 128,-1,3
 162 30 162 30 204 30 c 0,4,5
 251 30 251 30 285.5 45 c 128,-1,6
 320 60 320 60 337 84 c 128,-1,7
 354 108 354 108 361 132 c 128,-1,8
 368 156 368 156 368 180 c 0,9,10
 367 256 367 256 312 294.5 c 128,-1,11
 257 333 257 333 177 333 c 2,12,-1
 136 333 l 1,13,-1
 136 373 l 1,14,-1
 179 373 l 2,15,16
 241 373 241 373 291.5 407.5 c 128,-1,17
 342 442 342 442 342 504 c 0,18,19
 342 554 342 554 311 587 c 128,-1,20
 280 620 280 620 216 620 c 0,21,22
 149 620 149 620 90 575 c 1,23,-1
 71 610 l 1,24,25
 97 631 97 631 138 646 c 128,-1,26
 179 661 179 661 222 661 c 0,27,28
 308 661 308 661 350 616.5 c 128,-1,29
 392 572 392 572 392 510 c 0,30,31
 392 460 392 460 360.5 419 c 128,-1,32
 329 378 329 378 271 356 c 1,33,-1
 271 354 l 1,34,35
 335 341 335 341 376.5 295.5 c 128,-1,36
 418 250 418 250 418 182 c 0,37,38
 418 103 418 103 361 46 c 128,-1,39
 304 -11 304 -11 198 -11 c 0,40,41
 104 -11 104 -11 45 33 c 1,0,-1
EndSplineSet
Substitution2: "'dnom' Denominators lookup 11 subtable" uniF658
Substitution2: "'numr' Numerators lookup 10 subtable" uniF664
Substitution2: "'sinf' Scientific Inferiors lookup 9 subtable" threeinferior
Substitution2: "'sups' Superscript lookup 8 subtable" threesuperior
Substitution2: "'pnum' Proportional Numbers lookup 6 subtable" uniF63B
Substitution2: "'onum' Oldstyle Figures lookup 4 subtable" uniF646
AlternateSubs2: "'aalt' Access All Alternates lookup 1 subtable" uniF63B threeoldstyle uniF646 threesuperior threeinferior uniF664 uniF658
EndChar

StartChar: four
Encoding: 52 52 23
Width: 488
GlyphClass: 2
Flags: W
LayerCount: 2
Fore
SplineSet
366 0 m 1,0,-1
 320 0 l 1,1,-1
 320 191 l 1,2,-1
 10 191 l 1,3,-1
 10 223 l 1,4,-1
 327 650 l 1,5,-1
 366 650 l 1,6,-1
 366 231 l 1,7,-1
 465 231 l 1,8,-1
 465 191 l 1,9,-1
 366 191 l 1,10,-1
 366 0 l 1,0,-1
67 231 m 1,11,-1
 320 231 l 1,12,-1
 320 494 l 2,13,14
 320 540 320 540 323 584 c 1,15,-1
 320 585 l 1,16,17
 299 546 299 546 269 503 c 2,18,-1
 67 233 l 1,19,-1
 67 231 l 1,11,-1
EndSplineSet
Substitution2: "'dnom' Denominators lookup 11 subtable" uniF659
Substitution2: "'numr' Numerators lookup 10 subtable" uniF665
Substitution2: "'sinf' Scientific Inferiors lookup 9 subtable" fourinferior
Substitution2: "'sups' Superscript lookup 8 subtable" foursuperior
Substitution2: "'pnum' Proportional Numbers lookup 6 subtable" uniF63C
Substitution2: "'onum' Oldstyle Figures lookup 4 subtable" uniF647
AlternateSubs2: "'aalt' Access All Alternates lookup 1 subtable" uniF63C fouroldstyle uniF647 foursuperior fourinferior uniF665 uniF659
EndChar

StartChar: five
Encoding: 53 53 24
Width: 488
GlyphClass: 2
Flags: W
LayerCount: 2
Fore
SplineSet
406 650 m 1,0,-1
 406 608 l 1,1,-1
 161 608 l 1,2,-1
 129 399 l 1,3,4
 154 404 154 404 189 404 c 0,5,6
 254 404 254 404 310 376 c 0,7,8
 352 355 352 355 381.5 311 c 128,-1,9
 411 267 411 267 411 207 c 0,10,11
 411 111 411 111 347.5 50 c 128,-1,12
 284 -11 284 -11 192 -11 c 0,13,14
 98 -11 98 -11 42 31 c 1,15,-1
 61 69 l 1,16,17
 118 30 118 30 195 30 c 0,18,19
 266 30 266 30 315 77.5 c 128,-1,20
 364 125 364 125 363 198 c 0,21,22
 362 272 362 272 315 317.5 c 128,-1,23
 268 363 268 363 175 363 c 0,24,25
 122 363 122 363 82 356 c 1,26,-1
 124 650 l 1,27,-1
 406 650 l 1,0,-1
EndSplineSet
Substitution2: "'dnom' Denominators lookup 11 subtable" uniF65A
Substitution2: "'numr' Numerators lookup 10 subtable" uniF666
Substitution2: "'sinf' Scientific Inferiors lookup 9 subtable" fiveinferior
Substitution2: "'sups' Superscript lookup 8 subtable" fivesuperior
Substitution2: "'pnum' Proportional Numbers lookup 6 subtable" uniF63D
Substitution2: "'onum' Oldstyle Figures lookup 4 subtable" uniF648
AlternateSubs2: "'aalt' Access All Alternates lookup 1 subtable" uniF63D fiveoldstyle uniF648 fivesuperior fiveinferior uniF666 uniF65A
EndChar

StartChar: six
Encoding: 54 54 25
Width: 488
GlyphClass: 2
Flags: W
LayerCount: 2
Fore
SplineSet
390 661 m 1,0,-1
 390 617 l 1,1,2
 352 617 352 617 320 610 c 0,3,4
 219 589 219 589 158 511.5 c 128,-1,5
 97 434 97 434 87 333 c 1,6,-1
 89 333 l 1,7,8
 114 372 114 372 157.5 398 c 128,-1,9
 201 424 201 424 257 424 c 0,10,11
 345 424 345 424 398 365.5 c 128,-1,12
 451 307 451 307 451 215 c 0,13,14
 451 124 451 124 396.5 56.5 c 128,-1,15
 342 -11 342 -11 248 -11 c 0,16,17
 156 -11 156 -11 96.5 61 c 128,-1,18
 37 133 37 133 37 262 c 0,19,20
 37 446 37 446 143 557 c 0,21,22
 216 633 216 633 325 653 c 0,23,24
 357 661 357 661 390 661 c 1,0,-1
251 29 m 2,25,-1
 252 29 l 2,26,27
 318 29 318 29 359.5 79 c 128,-1,28
 401 129 401 129 401 211 c 0,29,30
 401 294 401 294 358 338.5 c 128,-1,31
 315 383 315 383 245 383 c 0,32,33
 199 383 199 383 159 357.5 c 128,-1,34
 119 332 119 332 96 289 c 0,35,36
 85 269 85 269 85 251 c 0,37,38
 85 151 85 151 128.5 90 c 128,-1,39
 172 29 172 29 251 29 c 2,25,-1
EndSplineSet
Substitution2: "'dnom' Denominators lookup 11 subtable" uniF65B
Substitution2: "'numr' Numerators lookup 10 subtable" uniF667
Substitution2: "'sinf' Scientific Inferiors lookup 9 subtable" sixinferior
Substitution2: "'sups' Superscript lookup 8 subtable" sixsuperior
Substitution2: "'pnum' Proportional Numbers lookup 6 subtable" uniF63E
Substitution2: "'onum' Oldstyle Figures lookup 4 subtable" uniF649
AlternateSubs2: "'aalt' Access All Alternates lookup 1 subtable" uniF63E sixoldstyle uniF649 sixsuperior sixinferior uniF667 uniF65B
EndChar

StartChar: seven
Encoding: 55 55 26
Width: 488
GlyphClass: 2
Flags: W
LayerCount: 2
Fore
SplineSet
62 650 m 1,0,-1
 442 650 l 1,1,-1
 442 616 l 1,2,-1
 149 0 l 1,3,-1
 102 0 l 1,4,-1
 392 608 l 1,5,-1
 392 610 l 1,6,-1
 62 610 l 1,7,-1
 62 650 l 1,0,-1
EndSplineSet
Substitution2: "'dnom' Denominators lookup 11 subtable" uniF65C
Substitution2: "'numr' Numerators lookup 10 subtable" uniF668
Substitution2: "'sinf' Scientific Inferiors lookup 9 subtable" seveninferior
Substitution2: "'sups' Superscript lookup 8 subtable" sevensuperior
Substitution2: "'pnum' Proportional Numbers lookup 6 subtable" uniF63F
Substitution2: "'onum' Oldstyle Figures lookup 4 subtable" uniF64A
AlternateSubs2: "'aalt' Access All Alternates lookup 1 subtable" uniF63F sevenoldstyle uniF64A sevensuperior seveninferior uniF668 uniF65C
EndChar

StartChar: eight
Encoding: 56 56 27
Width: 488
GlyphClass: 2
Flags: W
LayerCount: 2
Fore
SplineSet
250 661 m 2,0,-1
 251 661 l 2,1,2
 330 661 330 661 377 615.5 c 128,-1,3
 424 570 424 570 424 505 c 0,4,5
 424 401 424 401 309 349 c 1,6,-1
 309 345 l 1,7,8
 447 291 447 291 447 173 c 0,9,10
 447 93 447 93 386.5 41 c 128,-1,11
 326 -11 326 -11 243 -11 c 0,12,13
 156 -11 156 -11 98 38.5 c 128,-1,14
 40 88 40 88 40 162 c 0,15,16
 40 285 40 285 176 343 c 1,17,-1
 176 347 l 1,18,19
 66 394 66 394 66 494 c 0,20,21
 66 567 66 567 118.5 614 c 128,-1,22
 171 661 171 661 250 661 c 2,0,-1
242 29 m 2,23,-1
 243 29 l 2,24,25
 313 29 313 29 355.5 67.5 c 128,-1,26
 398 106 398 106 398 166 c 0,27,28
 398 231 398 231 357 268 c 128,-1,29
 316 305 316 305 231 329 c 1,30,31
 163 309 163 309 126.5 267.5 c 128,-1,32
 90 226 90 226 90 172 c 0,33,34
 87 112 87 112 129 70.5 c 128,-1,35
 171 29 171 29 242 29 c 2,23,-1
247 622 m 2,36,-1
 246 622 l 2,37,38
 184 622 184 622 148.5 587 c 128,-1,39
 113 552 113 552 113 501 c 0,40,41
 112 445 112 445 149 412.5 c 128,-1,42
 186 380 186 380 256 362 c 1,43,44
 375 403 375 403 375 501 c 0,45,46
 375 551 375 551 343 586.5 c 128,-1,47
 311 622 311 622 247 622 c 2,36,-1
EndSplineSet
Substitution2: "'dnom' Denominators lookup 11 subtable" uniF65D
Substitution2: "'numr' Numerators lookup 10 subtable" uniF669
Substitution2: "'sinf' Scientific Inferiors lookup 9 subtable" eightinferior
Substitution2: "'sups' Superscript lookup 8 subtable" eightsuperior
Substitution2: "'pnum' Proportional Numbers lookup 6 subtable" uniF640
Substitution2: "'onum' Oldstyle Figures lookup 4 subtable" uniF64B
AlternateSubs2: "'aalt' Access All Alternates lookup 1 subtable" uniF640 eightoldstyle uniF64B eightsuperior eightinferior uniF669 uniF65D
EndChar

StartChar: nine
Encoding: 57 57 28
Width: 488
GlyphClass: 2
Flags: W
LayerCount: 2
Fore
SplineSet
100 -11 m 1,0,-1
 100 33 l 1,1,2
 127 30 127 30 174 38 c 0,3,4
 256 50 256 50 315 114 c 0,5,6
 386 190 386 190 403 320 c 1,7,-1
 400 319 l 1,8,9
 335 235 335 235 232 235 c 0,10,11
 146 235 146 235 96.5 293 c 128,-1,12
 47 351 47 351 47 432 c 0,13,14
 47 525 47 525 105 593 c 128,-1,15
 163 661 163 661 255 661 c 0,16,17
 342 661 342 661 396.5 589.5 c 128,-1,18
 451 518 451 518 451 390 c 0,19,20
 451 193 451 193 340 82 c 0,21,22
 276 15 276 15 188 -2 c 0,23,24
 135 -13 135 -13 100 -11 c 1,0,-1
247 621 m 2,25,-1
 246 621 l 2,26,27
 180 621 180 621 137.5 568.5 c 128,-1,28
 95 516 95 516 95 435 c 0,29,30
 95 363 95 363 135.5 319.5 c 128,-1,31
 176 276 176 276 241 276 c 0,32,33
 291 276 291 276 332 299.5 c 128,-1,34
 373 323 373 323 395 360 c 0,35,36
 404 378 404 378 404 389 c 0,37,38
 404 495 404 495 364 558 c 128,-1,39
 324 621 324 621 247 621 c 2,25,-1
EndSplineSet
Substitution2: "'dnom' Denominators lookup 11 subtable" uniF65E
Substitution2: "'numr' Numerators lookup 10 subtable" uniF66A
Substitution2: "'sinf' Scientific Inferiors lookup 9 subtable" nineinferior
Substitution2: "'sups' Superscript lookup 8 subtable" ninesuperior
Substitution2: "'pnum' Proportional Numbers lookup 6 subtable" uniF641
Substitution2: "'onum' Oldstyle Figures lookup 4 subtable" uniF64C
AlternateSubs2: "'aalt' Access All Alternates lookup 1 subtable" uniF641 nineoldstyle uniF64C ninesuperior nineinferior uniF66A uniF65E
EndChar

StartChar: colon
Encoding: 58 58 29
Width: 174
GlyphClass: 2
Flags: W
LayerCount: 2
Fore
SplineSet
94 361 m 2,0,-1
 93 361 l 2,1,2
 76 361 76 361 64.5 374.5 c 128,-1,3
 53 388 53 388 54 406 c 0,4,5
 54 426 54 426 65.5 438.5 c 128,-1,6
 77 451 77 451 95 451 c 128,-1,7
 113 451 113 451 124 438.5 c 128,-1,8
 135 426 135 426 135 406 c 0,9,10
 135 387 135 387 123.5 374 c 128,-1,11
 112 361 112 361 94 361 c 2,0,-1
94 -11 m 2,12,-1
 93 -11 l 2,13,14
 76 -11 76 -11 64.5 2.5 c 128,-1,15
 53 16 53 16 54 34 c 0,16,17
 54 54 54 54 65.5 66.5 c 128,-1,18
 77 79 77 79 95 79 c 128,-1,19
 113 79 113 79 124 66.5 c 128,-1,20
 135 54 135 54 135 34 c 0,21,22
 135 15 135 15 123.5 2 c 128,-1,23
 112 -11 112 -11 94 -11 c 2,12,-1
EndSplineSet
EndChar

StartChar: semicolon
Encoding: 59 59 30
Width: 174
GlyphClass: 2
Flags: W
LayerCount: 2
Fore
SplineSet
64 -120 m 1,0,-1
 26 -125 l 1,1,2
 38 -93 38 -93 54.5 -26 c 128,-1,3
 71 41 71 41 78 87 c 1,4,-1
 140 97 l 1,5,6
 128 45 128 45 102.5 -26 c 128,-1,7
 77 -97 77 -97 64 -120 c 1,0,-1
103 361 m 2,8,-1
 102 361 l 2,9,10
 85 361 85 361 73.5 374.5 c 128,-1,11
 62 388 62 388 63 406 c 0,12,13
 63 426 63 426 74.5 438.5 c 128,-1,14
 86 451 86 451 104 451 c 128,-1,15
 122 451 122 451 133 438.5 c 128,-1,16
 144 426 144 426 144 406 c 0,17,18
 144 387 144 387 132.5 374 c 128,-1,19
 121 361 121 361 103 361 c 2,8,-1
EndSplineSet
EndChar

StartChar: less
Encoding: 60 60 31
Width: 596
GlyphClass: 2
Flags: W
LayerCount: 2
Fore
SplineSet
71 248 m 1,0,-1
 71 283 l 1,1,-1
 525 531 l 1,2,-1
 525 485 l 1,3,-1
 117 266 l 1,4,-1
 117 264 l 1,5,-1
 525 46 l 1,6,-1
 525 0 l 1,7,-1
 71 248 l 1,0,-1
EndSplineSet
EndChar

StartChar: equal
Encoding: 61 61 32
Width: 596
GlyphClass: 2
Flags: W
LayerCount: 2
Fore
SplineSet
556 345 m 1,0,-1
 40 345 l 1,1,-1
 40 385 l 1,2,-1
 556 385 l 1,3,-1
 556 345 l 1,0,-1
556 155 m 1,4,-1
 40 155 l 1,5,-1
 40 195 l 1,6,-1
 556 195 l 1,7,-1
 556 155 l 1,4,-1
EndSplineSet
EndChar

StartChar: greater
Encoding: 62 62 33
Width: 596
GlyphClass: 2
Flags: W
LayerCount: 2
Fore
SplineSet
525 283 m 1,0,-1
 525 248 l 1,1,-1
 71 0 l 1,2,-1
 71 46 l 1,3,-1
 479 264 l 1,4,-1
 479 266 l 1,5,-1
 71 485 l 1,6,-1
 71 531 l 1,7,-1
 525 283 l 1,0,-1
EndSplineSet
EndChar

StartChar: question
Encoding: 63 63 34
Width: 381
GlyphClass: 2
Flags: W
LayerCount: 2
Fore
SplineSet
188 175 m 1,0,-1
 144 175 l 1,1,-1
 140 201 l 2,2,3
 127 289 127 289 204 384 c 0,4,5
 245 432 245 432 263 467.5 c 128,-1,6
 281 503 281 503 281 541 c 0,7,8
 281 588 281 588 253 615.5 c 128,-1,9
 225 643 225 643 172 643 c 0,10,11
 109 643 109 643 71 611 c 1,12,-1
 52 646 l 1,13,14
 103 686 103 686 181 686 c 0,15,16
 254 686 254 686 293 644.5 c 128,-1,17
 332 603 332 603 332 544 c 0,18,19
 332 500 332 500 311.5 460.5 c 128,-1,20
 291 421 291 421 246 367 c 0,21,22
 179 285 179 285 186 205 c 2,23,-1
 188 175 l 1,0,-1
164 -11 m 2,24,-1
 163 -11 l 2,25,26
 146 -11 146 -11 134.5 2.5 c 128,-1,27
 123 16 123 16 124 34 c 0,28,29
 124 54 124 54 135.5 66.5 c 128,-1,30
 147 79 147 79 165 79 c 128,-1,31
 183 79 183 79 194 66.5 c 128,-1,32
 205 54 205 54 205 34 c 0,33,34
 205 15 205 15 193.5 2 c 128,-1,35
 182 -11 182 -11 164 -11 c 2,24,-1
EndSplineSet
EndChar

StartChar: at
Encoding: 64 64 35
Width: 717
GlyphClass: 2
Flags: W
LayerCount: 2
Fore
SplineSet
452 258 m 2,0,-1
 477 382 l 1,1,2
 455 392 455 392 416 392 c 0,3,4
 340 392 340 392 285 331 c 128,-1,5
 230 270 230 270 230 187 c 0,6,7
 230 150 230 150 250 126.5 c 128,-1,8
 270 103 270 103 307 103 c 0,9,10
 356 103 356 103 399 154 c 128,-1,11
 442 205 442 205 452 258 c 2,0,-1
496 -28 m 1,12,-1
 510 -62 l 1,13,14
 437 -105 437 -105 336 -105 c 0,15,16
 210 -105 210 -105 124 -19 c 128,-1,17
 38 67 38 67 38 207 c 0,18,19
 38 367 38 367 138 480 c 128,-1,20
 238 593 238 593 398 593 c 0,21,22
 526 593 526 593 603.5 511.5 c 128,-1,23
 681 430 681 430 681 304 c 0,24,25
 681 195 681 195 630 130.5 c 128,-1,26
 579 66 579 66 511 66 c 0,27,28
 481 66 481 66 460 90 c 128,-1,29
 439 114 439 114 444 160 c 1,30,-1
 441 160 l 1,31,32
 384 66 384 66 291 66 c 0,33,34
 248 66 248 66 217 99.5 c 128,-1,35
 186 133 186 133 186 188 c 0,36,37
 186 284 186 284 255.5 356.5 c 128,-1,38
 325 429 325 429 424 429 c 0,39,40
 479 429 479 429 524 410 c 1,41,-1
 488 231 l 2,42,43
 462 106 462 106 521 104 c 0,44,45
 565 102 565 102 600.5 156.5 c 128,-1,46
 636 211 636 211 636 295 c 0,47,48
 636 413 636 413 571 484.5 c 128,-1,49
 506 556 506 556 391 556 c 0,50,51
 261 556 261 556 172 460.5 c 128,-1,52
 83 365 83 365 83 210 c 0,53,54
 83 87 83 87 156 10.5 c 128,-1,55
 229 -66 229 -66 341 -66 c 0,56,57
 431 -66 431 -66 496 -28 c 1,12,-1
EndSplineSet
Substitution2: "'case' Case-Sensitive Forms lookup 2 subtable" uniF633
Substitution2: "'aalt' Access All Alternates lookup 0 subtable" uniF633
EndChar

StartChar: A
Encoding: 65 65 36
Width: 585
GlyphClass: 2
Flags: W
LayerCount: 2
Fore
SplineSet
429 236 m 1,0,-1
 162 236 l 1,1,-1
 79 0 l 1,2,-1
 30 0 l 1,3,-1
 274 674 l 1,4,-1
 320 674 l 1,5,-1
 563 0 l 1,6,-1
 514 0 l 1,7,-1
 429 236 l 1,0,-1
177 276 m 1,8,-1
 414 276 l 1,9,-1
 332 501 l 2,10,11
 316 549 316 549 297 620 c 1,12,-1
 295 620 l 1,13,14
 284 575 284 575 260 503 c 2,15,-1
 177 276 l 1,8,-1
EndSplineSet
Position2: "'cpsp' Capital Spacing lookup 0 subtable" dx=10 dy=0 dh=20 dv=0
EndChar

StartChar: B
Encoding: 66 66 37
Width: 505
GlyphClass: 2
Flags: W
LayerCount: 2
Fore
SplineSet
81 0 m 1,0,-1
 81 664 l 1,1,2
 144 679 144 679 217 679 c 0,3,4
 338 679 338 679 393 623 c 0,5,6
 435 582 435 582 435 513 c 0,7,8
 435 462 435 462 402.5 421.5 c 128,-1,9
 370 381 370 381 319 363 c 1,10,-1
 319 360 l 1,11,12
 373 348 373 348 417.5 305 c 128,-1,13
 462 262 462 262 462 188 c 0,14,15
 462 112 462 112 412 59 c 0,16,17
 348 -5 348 -5 198 -5 c 0,18,19
 175 -5 175 -5 152.5 -4 c 128,-1,20
 130 -3 130 -3 110 -1.5 c 128,-1,21
 90 0 90 0 81 0 c 1,0,-1
129 632 m 1,22,-1
 129 378 l 1,23,-1
 227 378 l 2,24,25
 299 378 299 378 342.5 415.5 c 128,-1,26
 386 453 386 453 386 510 c 0,27,28
 386 639 386 639 214 639 c 0,29,30
 155 639 155 639 129 632 c 1,22,-1
129 339 m 1,31,-1
 129 40 l 1,32,33
 154 35 154 35 212 35 c 0,34,35
 299 35 299 35 355.5 71 c 128,-1,36
 412 107 412 107 412 187 c 0,37,38
 412 262 412 262 356 300.5 c 128,-1,39
 300 339 300 339 214 339 c 2,40,-1
 129 339 l 1,31,-1
EndSplineSet
Position2: "'cpsp' Capital Spacing lookup 0 subtable" dx=10 dy=0 dh=20 dv=0
EndChar

StartChar: C
Encoding: 67 67 38
Width: 570
GlyphClass: 2
Flags: W
LayerCount: 2
Fore
SplineSet
524 62 m 1,0,-1
 538 24 l 1,1,2
 470 -10 470 -10 356 -10 c 0,3,4
 293 -10 293 -10 237 10.5 c 128,-1,5
 181 31 181 31 135.5 71.5 c 128,-1,6
 90 112 90 112 63.5 179.5 c 128,-1,7
 37 247 37 247 37 333 c 0,8,9
 37 486 37 486 129.5 585 c 128,-1,10
 222 684 222 684 379 684 c 0,11,12
 477 684 477 684 535 655 c 1,13,-1
 520 615 l 1,14,15
 462 644 462 644 380 644 c 0,16,17
 243 644 243 644 165 560.5 c 128,-1,18
 87 477 87 477 87 332 c 0,19,20
 87 193 87 193 162.5 112 c 128,-1,21
 238 31 238 31 372 31 c 0,22,23
 460 31 460 31 524 62 c 1,0,-1
EndSplineSet
Position2: "'cpsp' Capital Spacing lookup 0 subtable" dx=10 dy=0 dh=20 dv=0
EndChar

StartChar: D
Encoding: 68 68 39
Width: 647
GlyphClass: 2
Flags: W
LayerCount: 2
Fore
SplineSet
81 0 m 1,0,-1
 81 664 l 1,1,2
 168 679 168 679 254 679 c 0,3,4
 439 679 439 679 526 587 c 0,5,6
 610 500 610 500 610 353 c 0,7,8
 610 195 610 195 522 98 c 0,9,10
 429 -5 429 -5 231 -5 c 0,11,12
 142 -5 142 -5 81 0 c 1,0,-1
129 628 m 1,13,-1
 129 40 l 1,14,15
 163 35 163 35 238 35 c 0,16,17
 397 35 397 35 479 118.5 c 128,-1,18
 561 202 561 202 561 351 c 0,19,20
 563 485 563 485 485.5 562 c 128,-1,21
 408 639 408 639 251 639 c 0,22,23
 182 639 182 639 129 628 c 1,13,-1
EndSplineSet
Position2: "'cpsp' Capital Spacing lookup 0 subtable" dx=10 dy=0 dh=20 dv=0
EndChar

StartChar: E
Encoding: 69 69 40
Width: 466
GlyphClass: 2
Flags: W
LayerCount: 2
Fore
SplineSet
398 375 m 1,0,-1
 398 335 l 1,1,-1
 129 335 l 1,2,-1
 129 40 l 1,3,-1
 430 40 l 1,4,-1
 430 0 l 1,5,-1
 81 0 l 1,6,-1
 81 674 l 1,7,-1
 414 674 l 1,8,-1
 414 634 l 1,9,-1
 129 634 l 1,10,-1
 129 375 l 1,11,-1
 398 375 l 1,0,-1
EndSplineSet
Position2: "'cpsp' Capital Spacing lookup 0 subtable" dx=10 dy=0 dh=20 dv=0
EndChar

StartChar: F
Encoding: 70 70 41
Width: 462
GlyphClass: 2
Flags: W
LayerCount: 2
Fore
SplineSet
81 0 m 1,0,-1
 81 674 l 1,1,-1
 414 674 l 1,2,-1
 414 634 l 1,3,-1
 129 634 l 1,4,-1
 129 366 l 1,5,-1
 391 366 l 1,6,-1
 391 326 l 1,7,-1
 129 326 l 1,8,-1
 129 0 l 1,9,-1
 81 0 l 1,0,-1
EndSplineSet
Position2: "'cpsp' Capital Spacing lookup 0 subtable" dx=10 dy=0 dh=20 dv=0
EndChar

StartChar: G
Encoding: 71 71 42
Width: 624
GlyphClass: 2
Flags: W
LayerCount: 2
Fore
SplineSet
565 334 m 1,0,-1
 565 29 l 1,1,2
 478 -7 478 -7 368 -7 c 0,3,4
 221 -7 221 -7 130 81 c 0,5,6
 37 171 37 171 37 335 c 0,7,8
 37 482 37 482 130.5 581.5 c 128,-1,9
 224 681 224 681 389 681 c 0,10,11
 486 681 486 681 546 651 c 1,12,-1
 530 612 l 1,13,14
 470 641 470 641 386 641 c 0,15,16
 248 641 248 641 167.5 558 c 128,-1,17
 87 475 87 475 87 337 c 0,18,19
 87 195 87 195 164.5 114 c 128,-1,20
 242 33 242 33 376 33 c 0,21,22
 474 33 474 33 517 57 c 1,23,-1
 517 295 l 1,24,-1
 361 295 l 1,25,-1
 361 334 l 1,26,-1
 565 334 l 1,0,-1
EndSplineSet
Position2: "'cpsp' Capital Spacing lookup 0 subtable" dx=10 dy=0 dh=20 dv=0
EndChar

StartChar: H
Encoding: 72 72 43
Width: 630
GlyphClass: 2
Flags: W
LayerCount: 2
Fore
SplineSet
81 674 m 1,0,-1
 129 674 l 1,1,-1
 129 377 l 1,2,-1
 501 377 l 1,3,-1
 501 674 l 1,4,-1
 549 674 l 1,5,-1
 549 0 l 1,6,-1
 501 0 l 1,7,-1
 501 337 l 1,8,-1
 129 337 l 1,9,-1
 129 0 l 1,10,-1
 81 0 l 1,11,-1
 81 674 l 1,0,-1
EndSplineSet
Position2: "'cpsp' Capital Spacing lookup 0 subtable" dx=10 dy=0 dh=20 dv=0
EndChar

StartChar: I
Encoding: 73 73 44
Width: 211
GlyphClass: 2
Flags: W
LayerCount: 2
Fore
SplineSet
81 674 m 1,0,-1
 129 674 l 1,1,-1
 129 0 l 1,2,-1
 81 0 l 1,3,-1
 81 674 l 1,0,-1
EndSplineSet
Position2: "'cpsp' Capital Spacing lookup 0 subtable" dx=10 dy=0 dh=20 dv=0
EndChar

StartChar: J
Encoding: 74 74 45
Width: 345
GlyphClass: 2
Flags: W
LayerCount: 2
Fore
SplineSet
223 219 m 2,0,-1
 223 674 l 1,1,-1
 271 674 l 1,2,-1
 271 208 l 2,3,4
 271 -11 271 -11 89 -11 c 0,5,6
 41 -11 41 -11 7 5 c 1,7,-1
 17 43 l 1,8,9
 49 30 49 30 88 30 c 0,10,11
 157 30 157 30 190 71 c 128,-1,12
 223 112 223 112 223 219 c 2,0,-1
EndSplineSet
Position2: "'cpsp' Capital Spacing lookup 0 subtable" dx=10 dy=0 dh=20 dv=0
EndChar

StartChar: K
Encoding: 75 75 46
Width: 498
GlyphClass: 2
Flags: W
LayerCount: 2
Fore
SplineSet
81 0 m 1,0,-1
 81 674 l 1,1,-1
 129 674 l 1,2,-1
 129 333 l 1,3,-1
 132 333 l 1,4,5
 149 356 149 356 190 403 c 2,6,-1
 429 674 l 1,7,-1
 487 674 l 1,8,-1
 231 388 l 1,9,-1
 511 0 l 1,10,-1
 454 0 l 1,11,-1
 198 355 l 1,12,-1
 129 279 l 1,13,-1
 129 0 l 1,14,-1
 81 0 l 1,0,-1
EndSplineSet
Position2: "'cpsp' Capital Spacing lookup 0 subtable" dx=10 dy=0 dh=20 dv=0
EndChar

StartChar: L
Encoding: 76 76 47
Width: 448
GlyphClass: 2
Flags: W
LayerCount: 2
Fore
SplineSet
81 0 m 1,0,-1
 81 674 l 1,1,-1
 129 674 l 1,2,-1
 129 40 l 1,3,-1
 429 40 l 1,4,-1
 429 0 l 1,5,-1
 81 0 l 1,0,-1
EndSplineSet
Position2: "'cpsp' Capital Spacing lookup 0 subtable" dx=10 dy=0 dh=20 dv=0
EndChar

StartChar: M
Encoding: 77 77 48
Width: 778
GlyphClass: 2
Flags: W
LayerCount: 2
Fore
SplineSet
670 0 m 1,0,-1
 650 319 l 2,1,2
 636 555 636 555 636 618 c 1,3,-1
 634 618 l 1,4,5
 585 474 585 474 543 366 c 2,6,-1
 401 0 l 1,7,-1
 368 0 l 1,8,-1
 235 358 l 2,9,10
 169 541 169 541 148 618 c 1,11,-1
 146 618 l 1,12,13
 142 466 142 466 131 310 c 2,14,-1
 110 0 l 1,15,-1
 63 0 l 1,16,-1
 112 674 l 1,17,-1
 167 674 l 1,18,-1
 312 285 l 2,19,20
 358 163 358 163 386 67 c 1,21,-1
 389 67 l 1,22,23
 407 132 407 132 464 285 c 2,24,-1
 615 674 l 1,25,-1
 672 674 l 1,26,-1
 717 0 l 1,27,-1
 670 0 l 1,0,-1
EndSplineSet
Position2: "'cpsp' Capital Spacing lookup 0 subtable" dx=10 dy=0 dh=20 dv=0
EndChar

StartChar: N
Encoding: 78 78 49
Width: 638
GlyphClass: 2
Flags: W
LayerCount: 2
Fore
SplineSet
128 0 m 1,0,-1
 82 0 l 1,1,-1
 82 674 l 1,2,-1
 127 674 l 1,3,-1
 389 276 l 2,4,5
 475 144 475 144 516 64 c 1,6,-1
 518 65 l 1,7,8
 510 169 510 169 510 338 c 2,9,-1
 510 674 l 1,10,-1
 556 674 l 1,11,-1
 556 0 l 1,12,-1
 512 0 l 1,13,-1
 255 392 l 2,14,15
 159 539 159 539 124 610 c 1,16,-1
 122 609 l 1,17,18
 128 509 128 509 128 341 c 2,19,-1
 128 0 l 1,0,-1
EndSplineSet
Position2: "'cpsp' Capital Spacing lookup 0 subtable" dx=10 dy=0 dh=20 dv=0
EndChar

StartChar: O
Encoding: 79 79 50
Width: 671
GlyphClass: 2
Flags: W
LayerCount: 2
Fore
SplineSet
333 -11 m 2,0,-1
 332 -11 l 2,1,2
 205 -11 205 -11 121 82.5 c 128,-1,3
 37 176 37 176 37 330 c 0,4,5
 37 492 37 492 123.5 588.5 c 128,-1,6
 210 685 210 685 340 685 c 0,7,8
 469 685 469 685 551.5 591.5 c 128,-1,9
 634 498 634 498 634 344 c 0,10,11
 634 175 634 175 546 82 c 128,-1,12
 458 -11 458 -11 333 -11 c 2,0,-1
334 29 m 2,13,-1
 335 29 l 2,14,15
 450 29 450 29 517 119.5 c 128,-1,16
 584 210 584 210 584 341 c 0,17,18
 584 396 584 396 568.5 448.5 c 128,-1,19
 553 501 553 501 524 546 c 128,-1,20
 495 591 495 591 446.5 618 c 128,-1,21
 398 645 398 645 337 645 c 0,22,23
 255 645 255 645 197 598.5 c 128,-1,24
 139 552 139 552 113 483 c 128,-1,25
 87 414 87 414 87 332 c 0,26,27
 87 210 87 210 154 119.5 c 128,-1,28
 221 29 221 29 334 29 c 2,13,-1
EndSplineSet
Position2: "'cpsp' Capital Spacing lookup 0 subtable" dx=10 dy=0 dh=20 dv=0
EndChar

StartChar: P
Encoding: 80 80 51
Width: 502
GlyphClass: 2
Flags: W
LayerCount: 2
Fore
SplineSet
81 0 m 1,0,-1
 81 666 l 1,1,2
 153 679 153 679 226 679 c 0,3,4
 345 679 345 679 404 622 c 0,5,6
 456 573 456 573 456 490 c 128,-1,7
 456 407 456 407 409 355 c 0,8,9
 343 280 343 280 211 280 c 0,10,11
 156 280 156 280 129 288 c 1,12,-1
 129 0 l 1,13,-1
 81 0 l 1,0,-1
129 631 m 1,14,-1
 129 330 l 1,15,16
 158 320 158 320 215 320 c 0,17,18
 307 320 307 320 357.5 362.5 c 128,-1,19
 408 405 408 405 408 485 c 0,20,21
 408 562 408 562 358 600.5 c 128,-1,22
 308 639 308 639 224 639 c 0,23,24
 165 639 165 639 129 631 c 1,14,-1
EndSplineSet
Position2: "'cpsp' Capital Spacing lookup 0 subtable" dx=10 dy=0 dh=20 dv=0
EndChar

StartChar: Q
Encoding: 81 81 52
Width: 671
GlyphClass: 2
Flags: W
LayerCount: 2
Fore
SplineSet
641 -44 m 1,0,-1
 626 -88 l 1,1,2
 517 -63 517 -63 373 -20 c 0,3,4
 342 -11 342 -11 335 -11 c 0,5,6
 206 -8 206 -8 121.5 82.5 c 128,-1,7
 37 173 37 173 37 329 c 0,8,9
 37 493 37 493 123 589 c 128,-1,10
 209 685 209 685 341 685 c 0,11,12
 469 685 469 685 551.5 591.5 c 128,-1,13
 634 498 634 498 634 344 c 0,14,15
 634 209 634 209 577 123 c 128,-1,16
 520 37 520 37 421 6 c 1,17,-1
 421 2 l 1,18,19
 587 -35 587 -35 641 -44 c 1,0,-1
333 29 m 2,20,-1
 334 29 l 2,21,22
 450 29 450 29 517 119.5 c 128,-1,23
 584 210 584 210 584 341 c 0,24,25
 584 385 584 385 575 427.5 c 128,-1,26
 566 470 566 470 546 509.5 c 128,-1,27
 526 549 526 549 497.5 579 c 128,-1,28
 469 609 469 609 428 627 c 128,-1,29
 387 645 387 645 339 645 c 0,30,31
 277 645 277 645 227.5 618 c 128,-1,32
 178 591 178 591 148 546 c 128,-1,33
 118 501 118 501 102.5 446 c 128,-1,34
 87 391 87 391 87 330 c 0,35,36
 87 209 87 209 154 119 c 128,-1,37
 221 29 221 29 333 29 c 2,20,-1
EndSplineSet
Position2: "'cpsp' Capital Spacing lookup 0 subtable" dx=10 dy=0 dh=20 dv=0
EndChar

StartChar: R
Encoding: 82 82 53
Width: 505
GlyphClass: 2
Flags: W
LayerCount: 2
Fore
SplineSet
81 0 m 1,0,-1
 81 665 l 1,1,2
 146 679 146 679 227 679 c 0,3,4
 351 679 351 679 409 623 c 0,5,6
 456 578 456 578 456 503 c 0,7,8
 456 373 456 373 324 327 c 1,9,-1
 324 325 l 1,10,11
 403 300 403 300 428 182 c 0,12,13
 460 34 460 34 478 0 c 1,14,-1
 429 0 l 1,15,16
 416 24 416 24 386 164 c 0,17,18
 370 238 370 238 335 272 c 128,-1,19
 300 306 300 306 234 309 c 2,20,-1
 129 309 l 1,21,-1
 129 0 l 1,22,-1
 81 0 l 1,0,-1
129 631 m 1,23,-1
 129 348 l 1,24,-1
 236 348 l 2,25,26
 314 348 314 348 361 388 c 128,-1,27
 408 428 408 428 408 495 c 0,28,29
 408 569 408 569 359 604.5 c 128,-1,30
 310 640 310 640 226 640 c 0,31,32
 167 640 167 640 129 631 c 1,23,-1
EndSplineSet
Position2: "'cpsp' Capital Spacing lookup 0 subtable" dx=10 dy=0 dh=20 dv=0
EndChar

StartChar: S
Encoding: 83 83 54
Width: 464
GlyphClass: 2
Flags: W
LayerCount: 2
Fore
SplineSet
42 35 m 1,0,-1
 60 74 l 1,1,2
 124 30 124 30 207 30 c 0,3,4
 282 30 282 30 326 68.5 c 128,-1,5
 370 107 370 107 370 170 c 0,6,7
 370 226 370 226 338 262.5 c 128,-1,8
 306 299 306 299 233 327 c 0,9,10
 60 389 60 389 60 513 c 0,11,12
 60 587 60 587 115 635.5 c 128,-1,13
 170 684 170 684 256 684 c 128,-1,14
 342 684 342 684 390 653 c 1,15,-1
 372 612 l 1,16,17
 328 644 328 644 253 644 c 0,18,19
 179 644 179 644 143 606 c 128,-1,20
 107 568 107 568 107 521 c 0,21,22
 107 467 107 467 139.5 433.5 c 128,-1,23
 172 400 172 400 247 371 c 0,24,25
 335 335 335 335 376 291 c 128,-1,26
 417 247 417 247 417 175 c 0,27,28
 417 97 417 97 361.5 43.5 c 128,-1,29
 306 -10 306 -10 203 -10 c 0,30,31
 159 -10 159 -10 113.5 3 c 128,-1,32
 68 16 68 16 42 35 c 1,0,-1
EndSplineSet
Position2: "'cpsp' Capital Spacing lookup 0 subtable" dx=10 dy=0 dh=20 dv=0
EndChar

StartChar: T
Encoding: 84 84 55
Width: 465
GlyphClass: 2
Flags: W
LayerCount: 2
Fore
SplineSet
209 0 m 1,0,-1
 209 634 l 1,1,-1
 -11 634 l 1,2,-1
 -11 674 l 1,3,-1
 477 674 l 1,4,-1
 477 634 l 1,5,-1
 257 634 l 1,6,-1
 257 0 l 1,7,-1
 209 0 l 1,0,-1
EndSplineSet
Position2: "'cpsp' Capital Spacing lookup 0 subtable" dx=10 dy=0 dh=20 dv=0
EndChar

StartChar: U
Encoding: 85 85 56
Width: 626
GlyphClass: 2
Flags: W
LayerCount: 2
Fore
SplineSet
81 674 m 1,0,-1
 129 674 l 1,1,-1
 129 267 l 2,2,3
 129 145 129 145 178.5 87 c 128,-1,4
 228 29 228 29 308 29 c 0,5,6
 396 29 396 29 446.5 88 c 128,-1,7
 497 147 497 147 497 267 c 2,8,-1
 497 674 l 1,9,-1
 545 674 l 1,10,-1
 545 271 l 2,11,12
 545 125 545 125 478 57 c 128,-1,13
 411 -11 411 -11 306 -11 c 0,14,15
 259 -11 259 -11 220.5 3.5 c 128,-1,16
 182 18 182 18 149.5 48.5 c 128,-1,17
 117 79 117 79 99 134 c 128,-1,18
 81 189 81 189 81 264 c 2,19,-1
 81 674 l 1,0,-1
EndSplineSet
Position2: "'cpsp' Capital Spacing lookup 0 subtable" dx=10 dy=0 dh=20 dv=0
EndChar

StartChar: V
Encoding: 86 86 57
Width: 509
GlyphClass: 2
Flags: W
LayerCount: 2
Fore
SplineSet
269 0 m 1,0,-1
 224 0 l 1,1,-1
 0 674 l 1,2,-1
 50 674 l 1,3,-1
 169 313 l 2,4,5
 230 127 230 127 248 55 c 1,6,-1
 251 55 l 1,7,8
 274 141 274 141 337 313 c 2,9,-1
 468 674 l 1,10,-1
 519 674 l 1,11,-1
 269 0 l 1,0,-1
EndSplineSet
Position2: "'cpsp' Capital Spacing lookup 0 subtable" dx=10 dy=0 dh=20 dv=0
EndChar

StartChar: W
Encoding: 87 87 58
Width: 820
GlyphClass: 2
Flags: W
LayerCount: 2
Fore
SplineSet
238 0 m 1,0,-1
 193 0 l 1,1,-1
 15 674 l 1,2,-1
 64 674 l 1,3,-1
 162 294 l 2,4,5
 207 115 207 115 218 63 c 1,6,-1
 220 63 l 1,7,8
 232 130 232 130 282 294 c 2,9,-1
 392 674 l 1,10,-1
 438 674 l 1,11,-1
 538 297 l 2,12,13
 582 134 582 134 593 63 c 1,14,-1
 595 63 l 1,15,16
 605 114 605 114 656 295 c 2,17,-1
 767 674 l 1,18,-1
 816 674 l 1,19,-1
 614 0 l 1,20,-1
 568 0 l 1,21,-1
 467 388 l 2,22,23
 426 538 426 538 415 616 c 1,24,-1
 413 616 l 1,25,26
 400 542 400 542 353 389 c 2,27,-1
 238 0 l 1,0,-1
EndSplineSet
Position2: "'cpsp' Capital Spacing lookup 0 subtable" dx=10 dy=0 dh=20 dv=0
EndChar

StartChar: X
Encoding: 88 88 59
Width: 546
GlyphClass: 2
Flags: W
LayerCount: 2
Fore
SplineSet
515 0 m 1,0,-1
 460 0 l 1,1,-1
 358 166 l 2,2,3
 302 250 302 250 269 306 c 1,4,-1
 267 306 l 1,5,6
 225 232 225 232 182 165 c 2,7,-1
 85 0 l 1,8,-1
 30 0 l 1,9,-1
 244 341 l 1,10,-1
 39 674 l 1,11,-1
 93 674 l 1,12,-1
 202 494 l 2,13,14
 245 426 245 426 271 378 c 1,15,-1
 273 378 l 1,16,17
 285 401 285 401 344 494 c 2,18,-1
 457 674 l 1,19,-1
 513 674 l 1,20,-1
 298 346 l 1,21,-1
 515 0 l 1,0,-1
EndSplineSet
Position2: "'cpsp' Capital Spacing lookup 0 subtable" dx=10 dy=0 dh=20 dv=0
EndChar

StartChar: Y
Encoding: 89 89 60
Width: 503
GlyphClass: 2
Flags: W
LayerCount: 2
Fore
SplineSet
277 0 m 1,0,-1
 229 0 l 1,1,-1
 229 292 l 1,2,-1
 15 674 l 1,3,-1
 68 674 l 1,4,-1
 179 473 l 2,5,6
 231 378 231 378 256 328 c 1,7,-1
 258 328 l 1,8,9
 270 356 270 356 336 474 c 2,10,-1
 451 674 l 1,11,-1
 504 674 l 1,12,-1
 277 291 l 1,13,-1
 277 0 l 1,0,-1
EndSplineSet
Position2: "'cpsp' Capital Spacing lookup 0 subtable" dx=10 dy=0 dh=20 dv=0
EndChar

StartChar: Z
Encoding: 90 90 61
Width: 539
GlyphClass: 2
Flags: W
LayerCount: 2
Fore
SplineSet
34 0 m 1,0,-1
 34 31 l 1,1,-1
 440 631 l 1,2,-1
 440 634 l 1,3,-1
 67 634 l 1,4,-1
 67 674 l 1,5,-1
 501 674 l 1,6,-1
 501 642 l 1,7,-1
 94 43 l 1,8,-1
 94 40 l 1,9,-1
 506 40 l 1,10,-1
 506 0 l 1,11,-1
 34 0 l 1,0,-1
EndSplineSet
Position2: "'cpsp' Capital Spacing lookup 0 subtable" dx=10 dy=0 dh=20 dv=0
EndChar

StartChar: bracketleft
Encoding: 91 91 62
Width: 265
GlyphClass: 2
Flags: W
LayerCount: 2
Fore
SplineSet
261 -112 m 1,0,-1
 90 -112 l 1,1,-1
 90 686 l 1,2,-1
 261 686 l 1,3,-1
 261 649 l 1,4,-1
 134 649 l 1,5,-1
 134 -75 l 1,6,-1
 261 -75 l 1,7,-1
 261 -112 l 1,0,-1
EndSplineSet
Substitution2: "'case' Case-Sensitive Forms lookup 2 subtable" uniF6B0
Substitution2: "'aalt' Access All Alternates lookup 0 subtable" uniF6B0
EndChar

StartChar: backslash
Encoding: 92 92 63
Width: 348
GlyphClass: 2
Flags: W
LayerCount: 2
Fore
SplineSet
359 -40 m 1,0,-1
 311 -40 l 1,1,-1
 -5 685 l 1,2,-1
 43 685 l 1,3,-1
 359 -40 l 1,0,-1
EndSplineSet
EndChar

StartChar: bracketright
Encoding: 93 93 64
Width: 265
GlyphClass: 2
Flags: W
LayerCount: 2
Fore
SplineSet
6 686 m 1,0,-1
 176 686 l 1,1,-1
 176 -112 l 1,2,-1
 6 -112 l 1,3,-1
 6 -75 l 1,4,-1
 132 -75 l 1,5,-1
 132 649 l 1,6,-1
 6 649 l 1,7,-1
 6 686 l 1,0,-1
EndSplineSet
Substitution2: "'case' Case-Sensitive Forms lookup 2 subtable" uniF6B1
Substitution2: "'aalt' Access All Alternates lookup 0 subtable" uniF6B1
EndChar

StartChar: asciicircum
Encoding: 94 94 65
Width: 596
GlyphClass: 2
Flags: W
LayerCount: 2
Fore
SplineSet
525 196 m 1,0,-1
 479 196 l 1,1,-1
 300 604 l 1,2,-1
 298 604 l 1,3,-1
 118 196 l 1,4,-1
 72 196 l 1,5,-1
 277 650 l 1,6,-1
 320 650 l 1,7,-1
 525 196 l 1,0,-1
EndSplineSet
EndChar

StartChar: underscore
Encoding: 95 95 66
Width: 500
GlyphClass: 2
Flags: W
LayerCount: 2
Fore
SplineSet
0 -75 m 1,0,-1
 500 -75 l 1,1,-1
 500 -125 l 1,2,-1
 0 -125 l 1,3,-1
 0 -75 l 1,0,-1
EndSplineSet
EndChar

StartChar: grave
Encoding: 96 96 67
Width: 300
GlyphClass: 2
Flags: W
LayerCount: 2
Fore
SplineSet
33 688 m 1,0,-1
 103 688 l 1,1,-1
 192 550 l 1,2,-1
 155 550 l 1,3,-1
 33 688 l 1,0,-1
EndSplineSet
Substitution2: "'case' Case-Sensitive Forms lookup 2 subtable" Grave
Substitution2: "'aalt' Access All Alternates lookup 0 subtable" Grave
EndChar

StartChar: a
Encoding: 97 97 68
Width: 454
GlyphClass: 2
Flags: W
LayerCount: 2
Fore
SplineSet
380 302 m 2,0,-1
 380 114 l 2,1,2
 380 43 380 43 387 0 c 1,3,-1
 343 0 l 1,4,-1
 336 69 l 1,5,-1
 334 69 l 1,6,7
 313 37 313 37 273 13 c 128,-1,8
 233 -11 233 -11 180 -11 c 0,9,10
 112 -11 112 -11 75.5 28.5 c 128,-1,11
 39 68 39 68 39 121 c 0,12,13
 39 206 39 206 113.5 252 c 128,-1,14
 188 298 188 298 332 297 c 1,15,-1
 332 310 l 2,16,17
 332 452 332 452 209 451 c 0,18,19
 138 451 138 451 88 415 c 1,20,-1
 73 450 l 1,21,22
 135 491 135 491 214 491 c 0,23,24
 380 491 380 491 380 302 c 2,0,-1
332 154 m 2,25,-1
 332 257 l 1,26,27
 89 264 89 264 89 129 c 0,28,29
 89 80 89 80 116.5 54.5 c 128,-1,30
 144 29 144 29 185 29 c 0,31,32
 241 29 241 29 277 57 c 128,-1,33
 313 85 313 85 327 125 c 0,34,35
 332 138 332 138 332 154 c 2,25,-1
EndSplineSet
Substitution2: "Single Substitution lookup 22 subtable" ordfeminine
Substitution2: "'aalt' Access All Alternates lookup 0 subtable" ordfeminine
EndChar

StartChar: b
Encoding: 98 98 69
Width: 552
GlyphClass: 2
Flags: W
LayerCount: 2
Fore
SplineSet
80 112 m 2,0,-1
 80 711 l 1,1,-1
 128 711 l 1,2,-1
 128 390 l 1,3,-1
 130 390 l 1,4,5
 182 491 182 491 306 491 c 0,6,7
 397 491 397 491 454 422 c 128,-1,8
 511 353 511 353 511 245 c 0,9,10
 511 124 511 124 447 56.5 c 128,-1,11
 383 -11 383 -11 297 -11 c 0,12,13
 182 -11 182 -11 125 86 c 1,14,-1
 123 86 l 1,15,-1
 119 0 l 1,16,-1
 76 0 l 1,17,18
 80 45 80 45 80 112 c 2,0,-1
128 281 m 2,19,-1
 128 185 l 2,20,21
 128 166 128 166 132 150 c 0,22,23
 148 95 148 95 191 62 c 128,-1,24
 234 29 234 29 290 29 c 0,25,26
 371 29 371 29 417 88.5 c 128,-1,27
 463 148 463 148 463 244 c 0,28,29
 463 331 463 331 417.5 391 c 128,-1,30
 372 451 372 451 294 451 c 0,31,32
 240 451 240 451 195.5 416.5 c 128,-1,33
 151 382 151 382 134 323 c 0,34,35
 128 299 128 299 128 281 c 2,19,-1
EndSplineSet
EndChar

StartChar: c
Encoding: 99 99 70
Width: 446
GlyphClass: 2
Flags: W
LayerCount: 2
Fore
SplineSet
399 59 m 1,0,-1
 412 21 l 1,1,2
 347 -10 347 -10 271 -10 c 0,3,4
 168 -10 168 -10 104.5 58 c 128,-1,5
 41 126 41 126 41 235 c 0,6,7
 41 349 41 349 110.5 420 c 128,-1,8
 180 491 180 491 288 491 c 0,9,10
 372 491 372 491 414 461 c 1,11,-1
 397 422 l 1,12,13
 351 450 351 450 284 450 c 0,14,15
 191 450 191 450 140 389.5 c 128,-1,16
 89 329 89 329 89 239 c 0,17,18
 89 145 89 145 142 88 c 128,-1,19
 195 31 195 31 279 31 c 0,20,21
 338 31 338 31 399 59 c 1,0,-1
EndSplineSet
EndChar

StartChar: d
Encoding: 100 100 71
Width: 544
GlyphClass: 2
Flags: W
LayerCount: 2
Fore
SplineSet
416 711 m 1,0,-1
 464 711 l 1,1,-1
 464 111 l 2,2,3
 464 45 464 45 468 0 c 1,4,-1
 425 0 l 1,5,-1
 421 91 l 1,6,-1
 419 91 l 1,7,8
 398 47 398 47 354.5 18 c 128,-1,9
 311 -11 311 -11 248 -11 c 0,10,11
 158 -11 158 -11 99.5 56.5 c 128,-1,12
 41 124 41 124 41 231 c 0,13,14
 40 348 40 348 103 419.5 c 128,-1,15
 166 491 166 491 257 491 c 0,16,17
 315 491 315 491 355.5 466 c 128,-1,18
 396 441 396 441 414 406 c 1,19,-1
 416 406 l 1,20,-1
 416 711 l 1,0,-1
416 194 m 2,21,-1
 416 290 l 2,22,23
 416 316 416 316 411 334 c 0,24,25
 398 384 398 384 357.5 417.5 c 128,-1,26
 317 451 317 451 260 451 c 0,27,28
 182 451 182 451 135.5 390.5 c 128,-1,29
 89 330 89 330 89 236 c 0,30,31
 89 149 89 149 132.5 89 c 128,-1,32
 176 29 176 29 257 29 c 0,33,34
 310 29 310 29 353 62.5 c 128,-1,35
 396 96 396 96 411 154 c 0,36,37
 416 169 416 169 416 194 c 2,21,-1
EndSplineSet
EndChar

StartChar: e
Encoding: 101 101 72
Width: 485
GlyphClass: 2
Flags: W
LayerCount: 2
Fore
SplineSet
442 245 m 1,0,-1
 88 245 l 1,1,2
 88 137 88 137 139.5 84 c 128,-1,3
 191 31 191 31 271 31 c 0,4,5
 348 31 348 31 404 58 c 1,6,-1
 416 21 l 1,7,8
 360 -10 360 -10 265 -10 c 0,9,10
 163 -10 163 -10 102 57 c 128,-1,11
 41 124 41 124 41 231 c 0,12,13
 41 349 41 349 101.5 420 c 128,-1,14
 162 491 162 491 257 491 c 0,15,16
 302 491 302 491 336.5 475 c 128,-1,17
 371 459 371 459 391 435 c 128,-1,18
 411 411 411 411 423.5 380 c 128,-1,19
 436 349 436 349 440 323.5 c 128,-1,20
 444 298 444 298 444 274 c 0,21,22
 444 254 444 254 442 245 c 1,0,-1
91 283 m 1,23,-1
 394 283 l 1,24,25
 394 311 394 311 388 338 c 128,-1,26
 382 365 382 365 367 391.5 c 128,-1,27
 352 418 352 418 322 434.5 c 128,-1,28
 292 451 292 451 251 451 c 0,29,30
 179 451 179 451 139 400 c 128,-1,31
 99 349 99 349 91 283 c 1,23,-1
EndSplineSet
EndChar

StartChar: f
Encoding: 102 102 73
Width: 262
GlyphClass: 2
Flags: W
LayerCount: 2
Fore
SplineSet
132 0 m 1,0,-1
 84 0 l 1,1,-1
 84 441 l 1,2,-1
 15 441 l 1,3,-1
 15 480 l 1,4,-1
 84 480 l 1,5,-1
 84 506 l 2,6,7
 84 626 84 626 137 679 c 0,8,9
 180 721 180 721 244 721 c 0,10,11
 288 721 288 721 316 704 c 1,12,-1
 301 668 l 1,13,14
 275 681 275 681 240 681 c 0,15,16
 178 681 178 681 155 634 c 128,-1,17
 132 587 132 587 132 507 c 2,18,-1
 132 480 l 1,19,-1
 260 480 l 1,20,-1
 260 441 l 1,21,-1
 132 441 l 1,22,-1
 132 0 l 1,0,-1
EndSplineSet
EndChar

StartChar: g
Encoding: 103 103 74
Width: 544
GlyphClass: 2
Flags: W
LayerCount: 2
Fore
SplineSet
464 356 m 2,0,-1
 464 70 l 2,1,2
 464 -89 464 -89 398 -152 c 0,3,4
 338 -209 338 -209 235 -209 c 0,5,6
 138 -209 138 -209 82 -167 c 1,7,-1
 99 -129 l 1,8,9
 161 -169 161 -169 242 -169 c 0,10,11
 416 -169 416 -169 416 25 c 2,12,-1
 416 93 l 1,13,-1
 414 93 l 1,14,15
 393 53 393 53 350.5 26.5 c 128,-1,16
 308 0 308 0 247 0 c 0,17,18
 157 0 157 0 99 68 c 128,-1,19
 41 136 41 136 41 236 c 0,20,21
 41 354 41 354 106 422.5 c 128,-1,22
 171 491 171 491 257 491 c 0,23,24
 373 491 373 491 419 399 c 1,25,-1
 421 399 l 1,26,-1
 424 480 l 1,27,-1
 468 480 l 1,28,29
 464 432 464 432 464 356 c 2,0,-1
416 199 m 2,30,-1
 416 295 l 2,31,32
 416 325 416 325 410 342 c 0,33,34
 394 389 394 389 355.5 420 c 128,-1,35
 317 451 317 451 261 451 c 0,36,37
 184 451 184 451 136.5 393.5 c 128,-1,38
 89 336 89 336 89 241 c 0,39,40
 89 155 89 155 133.5 97.5 c 128,-1,41
 178 40 178 40 259 40 c 0,42,43
 308 40 308 40 349 69 c 128,-1,44
 390 98 390 98 408 148 c 0,45,46
 416 174 416 174 416 199 c 2,30,-1
EndSplineSet
EndChar

StartChar: h
Encoding: 104 104 75
Width: 536
GlyphClass: 2
Flags: W
LayerCount: 2
Fore
SplineSet
81 0 m 1,0,-1
 81 711 l 1,1,-1
 129 711 l 1,2,-1
 129 394 l 1,3,-1
 131 394 l 1,4,5
 153 437 153 437 196 463 c 0,6,7
 242 491 242 491 293 491 c 0,8,9
 310 491 310 491 328 487.5 c 128,-1,10
 346 484 346 484 371 471 c 128,-1,11
 396 458 396 458 414.5 437.5 c 128,-1,12
 433 417 433 417 446.5 378.5 c 128,-1,13
 460 340 460 340 460 289 c 2,14,-1
 460 0 l 1,15,-1
 412 0 l 1,16,-1
 412 284 l 2,17,18
 412 356 412 356 380.5 402.5 c 128,-1,19
 349 449 349 449 280 449 c 0,20,21
 231 449 231 449 191 418 c 128,-1,22
 151 387 151 387 135 341 c 0,23,24
 129 323 129 323 129 293 c 2,25,-1
 129 0 l 1,26,-1
 81 0 l 1,0,-1
EndSplineSet
EndChar

StartChar: i
Encoding: 105 105 76
Width: 209
GlyphClass: 2
Flags: W
LayerCount: 2
Fore
SplineSet
129 0 m 1,0,-1
 81 0 l 1,1,-1
 81 480 l 1,2,-1
 129 480 l 1,3,-1
 129 0 l 1,0,-1
104 576 m 2,4,-1
 103 576 l 2,5,6
 87 576 87 576 76.5 588 c 128,-1,7
 66 600 66 600 66 617 c 128,-1,8
 66 634 66 634 77.5 646.5 c 128,-1,9
 89 659 89 659 105 659 c 128,-1,10
 121 659 121 659 132 646.5 c 128,-1,11
 143 634 143 634 143 617 c 128,-1,12
 143 600 143 600 132 588 c 128,-1,13
 121 576 121 576 104 576 c 2,4,-1
EndSplineSet
EndChar

StartChar: j
Encoding: 106 106 77
Width: 214
GlyphClass: 2
Flags: W
LayerCount: 2
Fore
SplineSet
-42 -209 m 1,0,-1
 -49 -170 l 1,1,2
 19 -167 19 -167 51 -130 c 0,3,4
 71 -106 71 -106 79 -66 c 128,-1,5
 87 -26 87 -26 87 65 c 2,6,-1
 87 480 l 1,7,-1
 135 480 l 1,8,-1
 135 33 l 2,9,10
 135 -36 135 -36 124 -80.5 c 128,-1,11
 113 -125 113 -125 84 -157 c 0,12,13
 38 -206 38 -206 -42 -209 c 1,0,-1
110 576 m 2,14,-1
 109 576 l 2,15,16
 93 576 93 576 82.5 588.5 c 128,-1,17
 72 601 72 601 72 617 c 0,18,19
 72 634 72 634 83.5 646.5 c 128,-1,20
 95 659 95 659 112 659 c 0,21,22
 128 659 128 659 138.5 646.5 c 128,-1,23
 149 634 149 634 149 617 c 128,-1,24
 149 600 149 600 138.5 588 c 128,-1,25
 128 576 128 576 110 576 c 2,14,-1
EndSplineSet
EndChar

StartChar: k
Encoding: 107 107 78
Width: 423
GlyphClass: 2
Flags: W
LayerCount: 2
Fore
SplineSet
128 711 m 1,0,-1
 128 249 l 1,1,-1
 130 249 l 1,2,3
 151 276 151 276 176 302 c 2,4,-1
 346 480 l 1,5,-1
 404 480 l 1,6,-1
 210 281 l 1,7,-1
 431 0 l 1,8,-1
 373 0 l 1,9,-1
 177 252 l 1,10,-1
 128 200 l 1,11,-1
 128 0 l 1,12,-1
 80 0 l 1,13,-1
 80 711 l 1,14,-1
 128 711 l 1,0,-1
EndSplineSet
EndChar

StartChar: l
Encoding: 108 108 79
Width: 212
GlyphClass: 2
Flags: W
LayerCount: 2
Fore
SplineSet
81 0 m 1,0,-1
 81 711 l 1,1,-1
 129 711 l 1,2,-1
 129 0 l 1,3,-1
 81 0 l 1,0,-1
EndSplineSet
EndChar

StartChar: m
Encoding: 109 109 80
Width: 819
GlyphClass: 2
Flags: W
LayerCount: 2
Fore
SplineSet
81 0 m 1,0,-1
 81 365 l 2,1,2
 81 429 81 429 77 480 c 1,3,-1
 122 480 l 1,4,-1
 125 396 l 1,5,-1
 127 396 l 1,6,7
 181 491 181 491 283 491 c 0,8,9
 331 491 331 491 368 462 c 128,-1,10
 405 433 405 433 421 387 c 1,11,-1
 423 387 l 1,12,13
 441 426 441 426 472 452 c 0,14,15
 520 491 520 491 586 491 c 0,16,17
 603 491 603 491 620.5 487 c 128,-1,18
 638 483 638 483 661 470 c 128,-1,19
 684 457 684 457 701.5 435.5 c 128,-1,20
 719 414 719 414 731 374.5 c 128,-1,21
 743 335 743 335 743 283 c 2,22,-1
 743 0 l 1,23,-1
 695 0 l 1,24,-1
 695 279 l 2,25,26
 695 361 695 361 663 406 c 128,-1,27
 631 451 631 451 570 451 c 0,28,29
 527 451 527 451 493 423.5 c 128,-1,30
 459 396 459 396 444 356 c 0,31,32
 436 328 436 328 436 308 c 2,33,-1
 436 0 l 1,34,-1
 388 0 l 1,35,-1
 388 301 l 2,36,37
 388 368 388 368 357 409.5 c 128,-1,38
 326 451 326 451 269 451 c 0,39,40
 223 451 223 451 186.5 419.5 c 128,-1,41
 150 388 150 388 136 343 c 0,42,43
 129 318 129 318 129 296 c 2,44,-1
 129 0 l 1,45,-1
 81 0 l 1,0,-1
EndSplineSet
EndChar

StartChar: n
Encoding: 110 110 81
Width: 536
GlyphClass: 2
Flags: W
LayerCount: 2
Fore
SplineSet
81 0 m 1,0,-1
 81 365 l 2,1,2
 81 429 81 429 77 480 c 1,3,-1
 122 480 l 1,4,-1
 125 394 l 1,5,-1
 127 394 l 1,6,7
 147 436 147 436 191.5 463.5 c 128,-1,8
 236 491 236 491 292 491 c 0,9,10
 309 491 309 491 327.5 487.5 c 128,-1,11
 346 484 346 484 371 471 c 128,-1,12
 396 458 396 458 414.5 437.5 c 128,-1,13
 433 417 433 417 446.5 378 c 128,-1,14
 460 339 460 339 460 288 c 2,15,-1
 460 0 l 1,16,-1
 412 0 l 1,17,-1
 412 284 l 2,18,19
 412 357 412 357 380 404 c 128,-1,20
 348 451 348 451 279 451 c 0,21,22
 229 451 229 451 189 419.5 c 128,-1,23
 149 388 149 388 135 340 c 0,24,25
 129 318 129 318 129 298 c 2,26,-1
 129 0 l 1,27,-1
 81 0 l 1,0,-1
EndSplineSet
EndChar

StartChar: o
Encoding: 111 111 82
Width: 532
GlyphClass: 2
Flags: W
LayerCount: 2
Fore
SplineSet
262 -11 m 2,0,-1
 261 -11 l 2,1,2
 166 -11 166 -11 103.5 57 c 128,-1,3
 41 125 41 125 41 236 c 0,4,5
 41 354 41 354 107.5 422.5 c 128,-1,6
 174 491 174 491 268 491 c 0,7,8
 368 491 368 491 429.5 422.5 c 128,-1,9
 491 354 491 354 491 244 c 0,10,11
 491 180 491 180 470.5 129.5 c 128,-1,12
 450 79 450 79 416 49.5 c 128,-1,13
 382 20 382 20 342.5 4.5 c 128,-1,14
 303 -11 303 -11 262 -11 c 2,0,-1
263 29 m 2,15,-1
 264 29 l 2,16,17
 340 29 340 29 391.5 89.5 c 128,-1,18
 443 150 443 150 443 242 c 0,19,20
 443 277 443 277 433 312 c 128,-1,21
 423 347 423 347 403 379 c 128,-1,22
 383 411 383 411 347.5 431 c 128,-1,23
 312 451 312 451 267 451 c 0,24,25
 181 451 181 451 135 388 c 128,-1,26
 89 325 89 325 89 239 c 0,27,28
 89 149 89 149 139 89 c 128,-1,29
 189 29 189 29 263 29 c 2,15,-1
EndSplineSet
Substitution2: "Single Substitution lookup 22 subtable" ordmasculine
Substitution2: "'aalt' Access All Alternates lookup 0 subtable" ordmasculine
EndChar

StartChar: p
Encoding: 112 112 83
Width: 552
GlyphClass: 2
Flags: W
LayerCount: 2
Fore
SplineSet
80 -198 m 1,0,-1
 80 327 l 2,1,2
 80 419 80 419 76 480 c 1,3,-1
 122 480 l 1,4,-1
 125 389 l 1,5,-1
 127 389 l 1,6,7
 184 491 184 491 305 491 c 0,8,9
 397 491 397 491 454 422.5 c 128,-1,10
 511 354 511 354 511 248 c 0,11,12
 511 125 511 125 448 57 c 128,-1,13
 385 -11 385 -11 293 -11 c 0,14,15
 181 -11 181 -11 130 78 c 1,16,-1
 128 78 l 1,17,-1
 128 -198 l 1,18,-1
 80 -198 l 1,0,-1
128 283 m 2,19,-1
 128 189 l 2,20,21
 128 167 128 167 132 151 c 0,22,23
 147 96 147 96 190.5 62.5 c 128,-1,24
 234 29 234 29 290 29 c 0,25,26
 371 29 371 29 417 88.5 c 128,-1,27
 463 148 463 148 463 246 c 0,28,29
 463 331 463 331 417.5 391 c 128,-1,30
 372 451 372 451 294 451 c 0,31,32
 240 451 240 451 195 416.5 c 128,-1,33
 150 382 150 382 135 324 c 0,34,35
 128 294 128 294 128 283 c 2,19,-1
EndSplineSet
EndChar

StartChar: q
Encoding: 113 113 84
Width: 542
GlyphClass: 2
Flags: W
LayerCount: 2
Fore
SplineSet
416 -198 m 1,0,-1
 416 83 l 1,1,-1
 414 83 l 1,2,3
 394 43 394 43 351 16 c 128,-1,4
 308 -11 308 -11 248 -11 c 0,5,6
 159 -11 159 -11 100 57 c 128,-1,7
 41 125 41 125 41 231 c 0,8,9
 41 297 41 297 61 349 c 128,-1,10
 81 401 81 401 114 431 c 128,-1,11
 147 461 147 461 184.5 476 c 128,-1,12
 222 491 222 491 262 491 c 0,13,14
 320 491 320 491 360.5 464 c 128,-1,15
 401 437 401 437 419 398 c 1,16,-1
 421 398 l 1,17,-1
 424 480 l 1,18,-1
 468 480 l 1,19,20
 464 432 464 432 464 356 c 2,21,-1
 464 -198 l 1,22,-1
 416 -198 l 1,0,-1
416 188 m 2,23,-1
 416 291 l 2,24,25
 416 318 416 318 411 334 c 0,26,27
 398 384 398 384 357.5 417.5 c 128,-1,28
 317 451 317 451 261 451 c 0,29,30
 183 451 183 451 136 391.5 c 128,-1,31
 89 332 89 332 89 237 c 0,32,33
 89 149 89 149 131.5 89 c 128,-1,34
 174 29 174 29 257 29 c 0,35,36
 307 29 307 29 348 58.5 c 128,-1,37
 389 88 389 88 407 141 c 0,38,39
 416 166 416 166 416 188 c 2,23,-1
EndSplineSet
EndChar

StartChar: r
Encoding: 114 114 85
Width: 295
GlyphClass: 2
Flags: W
LayerCount: 2
Fore
SplineSet
80 0 m 1,0,-1
 80 336 l 2,1,2
 80 417 80 417 76 480 c 1,3,-1
 120 480 l 1,4,-1
 122 383 l 1,5,-1
 125 383 l 1,6,7
 141 431 141 431 177.5 461 c 128,-1,8
 214 491 214 491 261 491 c 0,9,10
 269 491 269 491 281 489 c 1,11,-1
 281 444 l 1,12,13
 274 445 274 445 258 445 c 0,14,15
 210 445 210 445 176 407.5 c 128,-1,16
 142 370 142 370 132 311 c 0,17,18
 128 292 128 292 128 265 c 2,19,-1
 128 0 l 1,20,-1
 80 0 l 1,0,-1
EndSplineSet
EndChar

StartChar: s
Encoding: 115 115 86
Width: 373
GlyphClass: 2
Flags: W
LayerCount: 2
Fore
SplineSet
44 23 m 1,0,-1
 61 63 l 1,1,2
 115 30 115 30 169 30 c 0,3,4
 224 30 224 30 252.5 55.5 c 128,-1,5
 281 81 281 81 281 121 c 0,6,7
 281 160 281 160 257.5 184 c 128,-1,8
 234 208 234 208 180 230 c 0,9,10
 58 276 58 276 58 361 c 0,11,12
 58 416 58 416 98.5 453.5 c 128,-1,13
 139 491 139 491 206 491 c 0,14,15
 270 491 270 491 312 461 c 1,16,-1
 294 422 l 1,17,18
 253 451 253 451 198 451 c 0,19,20
 154 451 154 451 129.5 427 c 128,-1,21
 105 403 105 403 105 368 c 128,-1,22
 105 333 105 333 127.5 312.5 c 128,-1,23
 150 292 150 292 204 270 c 0,24,25
 266 245 266 245 297 212 c 128,-1,26
 328 179 328 179 328 127 c 0,27,28
 328 65 328 65 283.5 27.5 c 128,-1,29
 239 -10 239 -10 166 -10 c 0,30,31
 97 -10 97 -10 44 23 c 1,0,-1
EndSplineSet
EndChar

StartChar: t
Encoding: 116 116 87
Width: 309
GlyphClass: 2
Flags: W
LayerCount: 2
Fore
SplineSet
99 568 m 1,0,-1
 147 586 l 1,1,-1
 147 480 l 1,2,-1
 284 480 l 1,3,-1
 284 441 l 1,4,-1
 147 441 l 1,5,-1
 147 129 l 2,6,7
 147 30 147 30 217 30 c 0,8,9
 251 30 251 30 272 37 c 1,10,-1
 278 1 l 1,11,12
 249 -10 249 -10 211 -10 c 0,13,14
 156 -10 156 -10 129 23 c 0,15,16
 99 57 99 57 99 138 c 2,17,-1
 99 441 l 1,18,-1
 18 441 l 1,19,-1
 18 480 l 1,20,-1
 99 480 l 1,21,-1
 99 568 l 1,0,-1
EndSplineSet
EndChar

StartChar: u
Encoding: 117 117 88
Width: 531
GlyphClass: 2
Flags: W
LayerCount: 2
Fore
SplineSet
451 480 m 1,0,-1
 451 117 l 2,1,2
 451 49 451 49 455 0 c 1,3,-1
 410 0 l 1,4,-1
 407 86 l 1,5,-1
 405 86 l 1,6,7
 384 47 384 47 341.5 18 c 128,-1,8
 299 -11 299 -11 241 -11 c 0,9,10
 214 -11 214 -11 189 -2.5 c 128,-1,11
 164 6 164 6 137 26.5 c 128,-1,12
 110 47 110 47 93.5 92 c 128,-1,13
 77 137 77 137 77 201 c 2,14,-1
 77 480 l 1,15,-1
 125 480 l 1,16,-1
 125 210 l 2,17,18
 125 31 125 31 252 31 c 0,19,20
 301 31 301 31 339 59.5 c 128,-1,21
 377 88 377 88 394 128 c 0,22,23
 403 155 403 155 403 181 c 2,24,-1
 403 480 l 1,25,-1
 451 480 l 1,0,-1
EndSplineSet
EndChar

StartChar: v
Encoding: 118 118 89
Width: 452
GlyphClass: 2
Flags: W
LayerCount: 2
Fore
SplineSet
15 480 m 1,0,-1
 66 480 l 1,1,-1
 178 182 l 2,2,3
 208 108 208 108 225 54 c 1,4,-1
 227 54 l 1,5,6
 232 70 232 70 276 182 c 2,7,-1
 390 480 l 1,8,-1
 440 480 l 1,9,-1
 245 0 l 1,10,-1
 203 0 l 1,11,-1
 15 480 l 1,0,-1
EndSplineSet
EndChar

StartChar: w
Encoding: 119 119 90
Width: 722
GlyphClass: 2
Flags: W
LayerCount: 2
Fore
SplineSet
23 480 m 1,0,-1
 72 480 l 1,1,-1
 153 207 l 2,2,3
 184 97 184 97 194 57 c 1,4,-1
 196 57 l 1,5,6
 210 110 210 110 244 207 c 2,7,-1
 340 480 l 1,8,-1
 385 480 l 1,9,-1
 477 210 l 2,10,11
 506 124 506 124 524 57 c 1,12,-1
 526 57 l 1,13,14
 538 109 538 109 570 208 c 2,15,-1
 655 480 l 1,16,-1
 704 480 l 1,17,-1
 544 0 l 1,18,-1
 503 0 l 1,19,-1
 412 268 l 2,20,21
 376 371 376 371 362 431 c 1,22,-1
 360 431 l 1,23,24
 344 366 344 366 308 266 c 2,25,-1
 213 0 l 1,26,-1
 171 0 l 1,27,-1
 23 480 l 1,0,-1
EndSplineSet
EndChar

StartChar: x
Encoding: 120 120 91
Width: 429
GlyphClass: 2
Flags: W
LayerCount: 2
Fore
SplineSet
21 480 m 1,0,-1
 75 480 l 1,1,-1
 157 363 l 2,2,3
 181 331 181 331 212 281 c 1,4,-1
 214 281 l 1,5,6
 227 302 227 302 270 363 c 2,7,-1
 352 480 l 1,8,-1
 405 480 l 1,9,-1
 238 246 l 1,10,-1
 411 0 l 1,11,-1
 356 0 l 1,12,-1
 271 121 l 1,13,-1
 211 211 l 1,14,-1
 209 211 l 1,15,16
 195 188 195 188 149 121 c 2,17,-1
 65 0 l 1,18,-1
 11 0 l 1,19,-1
 187 245 l 1,20,-1
 21 480 l 1,0,-1
EndSplineSet
EndChar

StartChar: y
Encoding: 121 121 92
Width: 440
GlyphClass: 2
Flags: W
LayerCount: 2
Fore
SplineSet
11 480 m 1,0,-1
 62 480 l 1,1,-1
 188 166 l 2,2,3
 207 116 207 116 223 63 c 1,4,-1
 225 63 l 1,5,6
 258 158 258 158 262 169 c 2,7,-1
 379 480 l 1,8,-1
 430 480 l 1,9,-1
 286 122 l 2,10,11
 238 -1 238 -1 203 -66.5 c 128,-1,12
 168 -132 168 -132 124 -171 c 0,13,14
 83 -205 83 -205 40 -221 c 1,15,-1
 25 -181 l 1,16,17
 70 -164 70 -164 109 -128 c 0,18,19
 159 -78 159 -78 189 -7 c 0,20,21
 195 8 195 8 195 14 c 128,-1,22
 195 20 195 20 189 35 c 2,23,-1
 11 480 l 1,0,-1
EndSplineSet
EndChar

StartChar: z
Encoding: 122 122 93
Width: 403
GlyphClass: 2
Flags: W
LayerCount: 2
Fore
SplineSet
16 0 m 1,0,-1
 16 29 l 1,1,-1
 275 370 l 2,2,3
 311 416 311 416 330 439 c 1,4,-1
 330 441 l 1,5,-1
 37 441 l 1,6,-1
 37 480 l 1,7,-1
 388 480 l 1,8,-1
 387 448 l 1,9,-1
 128 107 l 1,10,-1
 77 41 l 1,11,-1
 77 39 l 1,12,-1
 389 39 l 1,13,-1
 389 0 l 1,14,-1
 16 0 l 1,0,-1
EndSplineSet
EndChar

StartChar: braceleft
Encoding: 123 123 94
Width: 265
GlyphClass: 2
Flags: W
LayerCount: 2
Fore
SplineSet
26 270 m 1,0,-1
 27 305 l 1,1,2
 76 304 76 304 93.5 326 c 128,-1,3
 111 348 111 348 111 384 c 128,-1,4
 111 420 111 420 102 470 c 0,5,6
 92 528 92 528 92 557 c 0,7,8
 92 622 92 622 130.5 654 c 128,-1,9
 169 686 169 686 233 686 c 2,10,-1
 245 686 l 1,11,-1
 245 649 l 1,12,-1
 227 649 l 2,13,14
 178 648 178 648 157 624.5 c 128,-1,15
 136 601 136 601 136 553 c 0,16,17
 136 520 136 520 145 473 c 0,18,19
 154 412 154 412 154 393 c 0,20,21
 154 309 154 309 90 289 c 1,22,-1
 90 287 l 1,23,24
 119 279 119 279 136.5 251.5 c 128,-1,25
 154 224 154 224 154 183 c 0,26,27
 154 162 154 162 145 103 c 0,28,29
 136 54 136 54 136 21 c 0,30,31
 136 -74 136 -74 227 -75 c 2,32,-1
 245 -75 l 1,33,-1
 245 -112 l 1,34,-1
 233 -112 l 2,35,36
 169 -112 169 -112 130.5 -79 c 128,-1,37
 92 -46 92 -46 92 25 c 0,38,39
 92 55 92 55 102 109 c 0,40,41
 111 159 111 159 111 192 c 0,42,43
 111 272 111 272 26 270 c 1,0,-1
EndSplineSet
Substitution2: "'case' Case-Sensitive Forms lookup 2 subtable" uniF6B2
Substitution2: "'aalt' Access All Alternates lookup 0 subtable" uniF6B2
EndChar

StartChar: bar
Encoding: 124 124 95
Width: 212
GlyphClass: 2
Flags: W
LayerCount: 2
Fore
SplineSet
84 750 m 1,0,-1
 127 750 l 1,1,-1
 127 -250 l 1,2,-1
 84 -250 l 1,3,-1
 84 750 l 1,0,-1
EndSplineSet
EndChar

StartChar: braceright
Encoding: 125 125 96
Width: 265
GlyphClass: 2
Flags: W
LayerCount: 2
Fore
SplineSet
239 305 m 1,0,-1
 238 270 l 1,1,2
 154 272 154 272 154 192 c 0,3,4
 154 156 154 156 164 109 c 0,5,6
 173 48 173 48 173 25 c 0,7,8
 173 -46 173 -46 134.5 -79 c 128,-1,9
 96 -112 96 -112 32 -112 c 2,10,-1
 20 -112 l 1,11,-1
 20 -75 l 1,12,-1
 38 -75 l 2,13,14
 129 -74 129 -74 129 21 c 0,15,16
 129 54 129 54 120 103 c 0,17,18
 111 161 111 161 111 183 c 0,19,20
 111 224 111 224 128.5 251.5 c 128,-1,21
 146 279 146 279 175 287 c 1,22,-1
 175 289 l 1,23,24
 111 309 111 309 111 393 c 0,25,26
 111 412 111 412 120 473 c 0,27,28
 129 520 129 520 129 553 c 0,29,30
 129 601 129 601 108 624.5 c 128,-1,31
 87 648 87 648 38 649 c 2,32,-1
 20 649 l 1,33,-1
 20 686 l 1,34,-1
 32 686 l 2,35,36
 96 686 96 686 134.5 654 c 128,-1,37
 173 622 173 622 173 557 c 0,38,39
 173 535 173 535 164 470 c 0,40,41
 154 423 154 423 154 384 c 0,42,43
 154 347 154 347 171.5 325.5 c 128,-1,44
 189 304 189 304 239 305 c 1,0,-1
EndSplineSet
Substitution2: "'case' Case-Sensitive Forms lookup 2 subtable" uniF6B3
Substitution2: "'aalt' Access All Alternates lookup 0 subtable" uniF6B3
EndChar

StartChar: asciitilde
Encoding: 126 126 97
Width: 596
GlyphClass: 2
Flags: W
LayerCount: 2
Fore
SplineSet
90 221 m 1,0,-1
 52 221 l 1,1,2
 48 279 48 279 79.5 315 c 128,-1,3
 111 351 111 351 159 351 c 0,4,5
 186 351 186 351 214.5 342 c 128,-1,6
 243 333 243 333 302 307 c 0,7,8
 401 263 401 263 444 263 c 0,9,10
 509 263 509 263 507 350 c 1,11,-1
 544 350 l 1,12,13
 547 284 547 284 516.5 252 c 128,-1,14
 486 220 486 220 440 220 c 0,15,16
 392 220 392 220 293 263 c 0,17,18
 287 265 287 265 265 275.5 c 128,-1,19
 243 286 243 286 235 289 c 128,-1,20
 227 292 227 292 210.5 298 c 128,-1,21
 194 304 194 304 181.5 306 c 128,-1,22
 169 308 169 308 157 308 c 0,23,24
 90 308 90 308 90 221 c 1,0,-1
EndSplineSet
EndChar

StartChar: exclamdown
Encoding: 161 161 98
Width: 207
GlyphClass: 2
Flags: W
LayerCount: 2
Fore
SplineSet
133 -198 m 1,0,-1
 74 -198 l 1,1,-1
 84 296 l 1,2,-1
 123 296 l 1,3,-1
 133 -198 l 1,0,-1
104 485 m 2,4,-1
 105 485 l 2,5,6
 123 485 123 485 133.5 472.5 c 128,-1,7
 144 460 144 460 144 440 c 0,8,9
 144 421 144 421 133 408.5 c 128,-1,10
 122 396 122 396 104 396 c 128,-1,11
 86 396 86 396 74.5 409 c 128,-1,12
 63 422 63 422 64 440 c 0,13,14
 64 459 64 459 75.5 472 c 128,-1,15
 87 485 87 485 104 485 c 2,4,-1
EndSplineSet
Substitution2: "'case' Case-Sensitive Forms lookup 2 subtable" uniF6B4
Substitution2: "'aalt' Access All Alternates lookup 0 subtable" uniF6B4
EndChar

StartChar: cent
Encoding: 162 162 99
Width: 488
GlyphClass: 2
Flags: W
LayerCount: 2
Fore
SplineSet
301 -16 m 1,0,-1
 260 -16 l 1,1,-1
 260 88 l 1,2,3
 174 96 174 96 119 154 c 0,4,5
 62 214 62 214 62 325 c 0,6,7
 62 425 62 425 117 491.5 c 128,-1,8
 172 558 172 558 260 570 c 1,9,-1
 260 674 l 1,10,-1
 301 674 l 1,11,-1
 301 571 l 1,12,13
 371 571 371 571 418 542 c 1,14,-1
 401 503 l 1,15,16
 356 532 356 532 287 532 c 0,17,18
 207 532 207 532 157.5 472 c 128,-1,19
 108 412 108 412 108 327 c 0,20,21
 108 236 108 236 156.5 181.5 c 128,-1,22
 205 127 205 127 281 127 c 0,23,24
 348 127 348 127 404 156 c 1,25,-1
 417 121 l 1,26,27
 375 92 375 92 301 88 c 1,28,-1
 301 -16 l 1,0,-1
EndSplineSet
Substitution2: "'dnom' Denominators lookup 11 subtable" uniF629
Substitution2: "'numr' Numerators lookup 10 subtable" uniF62E
Substitution2: "'sinf' Scientific Inferiors lookup 9 subtable" centinferior
Substitution2: "'sups' Superscript lookup 8 subtable" centsuperior
Substitution2: "'onum' Oldstyle Figures lookup 4 subtable" uniF654
AlternateSubs2: "'aalt' Access All Alternates lookup 1 subtable" uniF654 centsuperior centinferior uniF62E uniF629
EndChar

StartChar: sterling
Encoding: 163 163 100
Width: 488
GlyphClass: 2
Flags: W
LayerCount: 2
Fore
SplineSet
449 0 m 1,0,-1
 59 0 l 1,1,-1
 59 30 l 1,2,3
 115 61 115 61 144.5 111.5 c 128,-1,4
 174 162 174 162 174 222 c 0,5,6
 174 270 174 270 168 311 c 1,7,-1
 62 311 l 1,8,-1
 62 350 l 1,9,-1
 163 350 l 1,10,11
 150 436 150 436 150 474 c 0,12,13
 150 559 150 559 198 610 c 128,-1,14
 246 661 246 661 320 661 c 0,15,16
 386 661 386 661 424 636 c 1,17,-1
 408 599 l 1,18,19
 374 621 374 621 315 621 c 128,-1,20
 256 621 256 621 226 582 c 128,-1,21
 196 543 196 543 196 477 c 0,22,23
 196 417 196 417 209 350 c 1,24,-1
 356 350 l 1,25,-1
 356 311 l 1,26,-1
 214 311 l 1,27,28
 222 214 222 214 213 173 c 0,29,30
 195 96 195 96 132 43 c 1,31,-1
 132 41 l 1,32,-1
 449 41 l 1,33,-1
 449 0 l 1,0,-1
EndSplineSet
Substitution2: "'onum' Oldstyle Figures lookup 4 subtable" uniF651
Substitution2: "'aalt' Access All Alternates lookup 0 subtable" uniF651
EndChar

StartChar: currency
Encoding: 164 164 101
Width: 488
GlyphClass: 2
Flags: W
LayerCount: 2
Fore
SplineSet
243 524 m 2,0,-1
 244 524 l 2,1,2
 316 524 316 524 357 481 c 1,3,-1
 426 550 l 1,4,-1
 456 519 l 1,5,-1
 384 453 l 1,6,7
 420 403 420 403 420 334 c 0,8,9
 420 256 420 256 385 210 c 1,10,-1
 453 141 l 1,11,-1
 423 110 l 1,12,-1
 357 180 l 1,13,14
 313 136 313 136 241 136 c 0,15,16
 170 136 170 136 128 176 c 1,17,-1
 64 110 l 1,18,-1
 35 141 l 1,19,-1
 100 206 l 1,20,21
 62 253 62 253 62 326 c 0,22,23
 62 400 62 400 103 453 c 1,24,-1
 35 518 l 1,25,-1
 66 550 l 1,26,-1
 129 481 l 1,27,28
 175 524 175 524 243 524 c 2,0,-1
241 485 m 2,29,-1
 240 485 l 2,30,31
 179 485 179 485 143 439 c 128,-1,32
 107 393 107 393 107 328 c 0,33,34
 107 253 107 253 148.5 214 c 128,-1,35
 190 175 190 175 240 175 c 0,36,37
 294 174 294 174 334.5 213 c 128,-1,38
 375 252 375 252 375 333 c 0,39,40
 375 393 375 393 340 439 c 128,-1,41
 305 485 305 485 241 485 c 2,29,-1
EndSplineSet
EndChar

StartChar: yen
Encoding: 165 165 102
Width: 488
GlyphClass: 2
Flags: W
LayerCount: 2
Fore
SplineSet
260 0 m 1,0,-1
 214 0 l 1,1,-1
 214 185 l 1,2,-1
 60 185 l 1,3,-1
 60 221 l 1,4,-1
 214 221 l 1,5,-1
 214 299 l 1,6,-1
 60 299 l 1,7,-1
 60 335 l 1,8,-1
 197 335 l 1,9,-1
 26 650 l 1,10,-1
 77 650 l 1,11,-1
 201 416 l 2,12,13
 228 362 228 362 240 336 c 1,14,-1
 243 336 l 1,15,16
 253 363 253 363 282 419 c 2,17,-1
 413 650 l 1,18,-1
 463 650 l 1,19,-1
 279 335 l 1,20,-1
 415 335 l 1,21,-1
 415 299 l 1,22,-1
 260 299 l 1,23,-1
 260 221 l 1,24,-1
 415 221 l 1,25,-1
 415 185 l 1,26,-1
 260 185 l 1,27,-1
 260 0 l 1,0,-1
EndSplineSet
Substitution2: "'onum' Oldstyle Figures lookup 4 subtable" uniF652
Substitution2: "'aalt' Access All Alternates lookup 0 subtable" uniF652
EndChar

StartChar: brokenbar
Encoding: 166 166 103
Width: 212
GlyphClass: 2
Flags: W
LayerCount: 2
Fore
SplineSet
84 174 m 1,0,-1
 127 174 l 1,1,-1
 127 -176 l 1,2,-1
 84 -176 l 1,3,-1
 84 174 l 1,0,-1
84 674 m 1,4,-1
 127 674 l 1,5,-1
 127 324 l 1,6,-1
 84 324 l 1,7,-1
 84 674 l 1,4,-1
EndSplineSet
EndChar

StartChar: section
Encoding: 167 167 104
Width: 493
GlyphClass: 2
Flags: W
LayerCount: 2
Fore
SplineSet
111 357 m 2,0,-1
 111 356 l 2,1,2
 111 325 111 325 137 299.5 c 128,-1,3
 163 274 163 274 228 251 c 0,4,5
 306 222 306 222 340 199 c 1,6,7
 382 235 382 235 382 291 c 0,8,9
 382 362 382 362 281 398 c 0,10,11
 196 427 196 427 162 449 c 1,12,13
 111 411 111 411 111 357 c 2,0,-1
389 648 m 1,14,-1
 369 612 l 1,15,16
 323 646 323 646 257 646 c 0,17,18
 211 646 211 646 177.5 621 c 128,-1,19
 144 596 144 596 144 556 c 0,20,21
 144 533 144 533 153 516 c 128,-1,22
 162 499 162 499 185.5 485 c 128,-1,23
 209 471 209 471 225 464.5 c 128,-1,24
 241 458 241 458 280 444 c 0,25,26
 351 420 351 420 388.5 387 c 128,-1,27
 426 354 426 354 426 297 c 0,28,29
 426 228 426 228 367 177 c 1,30,31
 402 142 402 142 402 91 c 0,32,33
 402 24 402 24 353 -14.5 c 128,-1,34
 304 -53 304 -53 231 -53 c 0,35,36
 141 -53 141 -53 92 -13 c 1,37,-1
 113 23 l 1,38,39
 159 -16 159 -16 234 -16 c 0,40,41
 288 -16 288 -16 323 10.5 c 128,-1,42
 358 37 358 37 358 84 c 0,43,44
 358 126 358 126 330.5 152.5 c 128,-1,45
 303 179 303 179 226 206 c 0,46,47
 144 237 144 237 106 269 c 128,-1,48
 68 301 68 301 68 355 c 0,49,50
 68 417 68 417 135 469 c 1,51,52
 100 495 100 495 100 548 c 0,53,54
 100 608 100 608 147 645 c 128,-1,55
 194 682 194 682 263 682 c 0,56,57
 337 682 337 682 389 648 c 1,14,-1
EndSplineSet
EndChar

StartChar: dieresis
Encoding: 168 168 105
Width: 300
GlyphClass: 2
Flags: W
LayerCount: 2
Fore
SplineSet
66 578 m 2,0,-1
 64 578 l 2,1,2
 48 578 48 578 38 589.5 c 128,-1,3
 28 601 28 601 28 617 c 0,4,5
 28 632 28 632 39.5 644 c 128,-1,6
 51 656 51 656 66 656 c 0,7,8
 82 656 82 656 92.5 644.5 c 128,-1,9
 103 633 103 633 103 617 c 128,-1,10
 103 601 103 601 93 589.5 c 128,-1,11
 83 578 83 578 66 578 c 2,0,-1
235 578 m 2,12,-1
 233 578 l 2,13,14
 217 578 217 578 207 589.5 c 128,-1,15
 197 601 197 601 197 617 c 0,16,17
 197 632 197 632 208.5 644 c 128,-1,18
 220 656 220 656 235 656 c 0,19,20
 251 656 251 656 261.5 644.5 c 128,-1,21
 272 633 272 633 272 617 c 128,-1,22
 272 601 272 601 262 589.5 c 128,-1,23
 252 578 252 578 235 578 c 2,12,-1
EndSplineSet
Substitution2: "'case' Case-Sensitive Forms lookup 2 subtable" Dieresis
Substitution2: "'aalt' Access All Alternates lookup 0 subtable" Dieresis
EndChar

StartChar: copyright
Encoding: 169 169 106
Width: 677
GlyphClass: 2
Flags: W
LayerCount: 2
Fore
SplineSet
340 648 m 2,0,-1
 341 648 l 2,1,2
 466 648 466 648 552 558 c 128,-1,3
 638 468 638 468 638 340 c 0,4,5
 638 210 638 210 552 120 c 128,-1,6
 466 30 466 30 340 30 c 0,7,8
 213 30 213 30 126 120 c 128,-1,9
 39 210 39 210 39 340 c 0,10,11
 39 468 39 468 126 558 c 128,-1,12
 213 648 213 648 340 648 c 2,0,-1
340 616 m 2,13,-1
 339 616 l 2,14,15
 228 616 228 616 153.5 536 c 128,-1,16
 79 456 79 456 79 336 c 0,17,18
 79 220 79 220 153.5 141 c 128,-1,19
 228 62 228 62 340 62 c 0,20,21
 449 61 449 61 523.5 141 c 128,-1,22
 598 221 598 221 598 340 c 0,23,24
 598 457 598 457 523.5 536.5 c 128,-1,25
 449 616 449 616 340 616 c 2,13,-1
474 494 m 1,26,-1
 464 463 l 1,27,28
 422 487 422 487 365 487 c 0,29,30
 291 487 291 487 253.5 445 c 128,-1,31
 216 403 216 403 216 337 c 0,32,33
 216 272 216 272 255 229 c 128,-1,34
 294 186 294 186 367 186 c 0,35,36
 430 186 430 186 470 213 c 1,37,-1
 480 184 l 1,38,39
 435 153 435 153 357 153 c 0,40,41
 273 153 273 153 224 204.5 c 128,-1,42
 175 256 175 256 175 334 c 0,43,44
 175 416 175 416 230.5 468 c 128,-1,45
 286 520 286 520 364 520 c 0,46,47
 441 520 441 520 474 494 c 1,26,-1
EndSplineSet
EndChar

StartChar: ordfeminine
Encoding: 170 170 107
Width: 326
GlyphClass: 2
Flags: W
LayerCount: 2
Fore
SplineSet
282 266 m 1,0,-1
 244 266 l 1,1,-1
 239 313 l 1,2,-1
 237 313 l 1,3,4
 200 261 200 261 135 261 c 0,5,6
 87 261 87 261 60.5 287.5 c 128,-1,7
 34 314 34 314 34 355 c 0,8,9
 34 408 34 408 86.5 439.5 c 128,-1,10
 139 471 139 471 236 467 c 1,11,-1
 236 479 l 2,12,13
 236 493 236 493 231.5 508 c 128,-1,14
 227 523 227 523 207 539 c 128,-1,15
 187 555 187 555 154 555 c 0,16,17
 104 555 104 555 72 528 c 1,18,-1
 59 558 l 1,19,20
 102 591 102 591 162 591 c 0,21,22
 277 591 277 591 277 450 c 2,23,-1
 277 343 l 2,24,25
 277 298 277 298 282 266 c 1,0,-1
236 366 m 2,26,-1
 236 433 l 1,27,28
 77 438 77 438 77 356 c 0,29,30
 77 328 77 328 96.5 312 c 128,-1,31
 116 296 116 296 143 296 c 0,32,33
 193 296 193 296 223 337 c 0,34,35
 236 355 236 355 236 366 c 2,26,-1
EndSplineSet
EndChar

StartChar: guillemotleft
Encoding: 171 171 108
Width: 392
GlyphClass: 2
Flags: W
LayerCount: 2
Fore
SplineSet
222 432 m 1,0,-1
 80 252 l 1,1,-1
 223 72 l 1,2,-1
 173 72 l 1,3,-1
 30 252 l 1,4,-1
 172 432 l 1,5,-1
 222 432 l 1,0,-1
367 432 m 1,6,-1
 225 252 l 1,7,-1
 368 72 l 1,8,-1
 318 72 l 1,9,-1
 175 252 l 1,10,-1
 318 432 l 1,11,-1
 367 432 l 1,6,-1
EndSplineSet
Substitution2: "'case' Case-Sensitive Forms lookup 2 subtable" uniF6B6
Substitution2: "'aalt' Access All Alternates lookup 0 subtable" uniF6B6
EndChar

StartChar: logicalnot
Encoding: 172 172 109
Width: 596
GlyphClass: 2
Flags: W
LayerCount: 2
Fore
SplineSet
40 385 m 1,0,-1
 556 385 l 1,1,-1
 556 130 l 1,2,-1
 513 130 l 1,3,-1
 513 345 l 1,4,-1
 40 345 l 1,5,-1
 40 385 l 1,0,-1
EndSplineSet
EndChar

StartChar: registered
Encoding: 174 174 110
Width: 395
GlyphClass: 2
Flags: W
LayerCount: 2
Fore
SplineSet
169 505 m 1,0,-1
 169 435 l 1,1,-1
 138 435 l 1,2,-1
 138 602 l 1,3,4
 166 607 166 607 196 607 c 0,5,6
 232 607 232 607 248 594 c 0,7,8
 265 582 265 582 265 558 c 0,9,10
 265 530 265 530 233 519 c 1,11,-1
 233 517 l 1,12,13
 253 509 253 509 260 476 c 0,14,15
 266 445 266 445 273 435 c 1,16,-1
 241 435 l 1,17,18
 235 442 235 442 227 478 c 0,19,20
 221 505 221 505 189 505 c 2,21,-1
 169 505 l 1,0,-1
169 581 m 1,22,-1
 169 529 l 1,23,-1
 190 529 l 2,24,25
 233 529 233 529 233 555 c 0,26,27
 233 583 233 583 193 583 c 0,28,29
 179 583 179 583 169 581 c 1,22,-1
198 682 m 2,30,-1
 199 682 l 2,31,32
 266 682 266 682 312.5 636 c 128,-1,33
 359 590 359 590 359 523 c 0,34,35
 359 455 359 455 312.5 408.5 c 128,-1,36
 266 362 266 362 198 362 c 128,-1,37
 130 362 130 362 82.5 408.5 c 128,-1,38
 35 455 35 455 35 523 c 0,39,40
 35 590 35 590 82.5 636 c 128,-1,41
 130 682 130 682 198 682 c 2,30,-1
198 654 m 2,42,-1
 197 654 l 2,43,44
 143 654 143 654 106.5 615.5 c 128,-1,45
 70 577 70 577 70 523 c 0,46,47
 70 467 70 467 107 429 c 128,-1,48
 144 391 144 391 199 391 c 0,49,50
 252 390 252 390 288 428.5 c 128,-1,51
 324 467 324 467 324 522 c 128,-1,52
 324 577 324 577 288 615.5 c 128,-1,53
 252 654 252 654 198 654 c 2,42,-1
EndSplineSet
EndChar

StartChar: macron
Encoding: 175 175 111
AltUni2: 0002c9.ffffffff.0 0002c9.ffffffff.0
Width: 300
GlyphClass: 2
Flags: W
LayerCount: 2
Fore
SplineSet
46 629 m 1,0,-1
 256 629 l 1,1,-1
 256 589 l 1,2,-1
 46 589 l 1,3,-1
 46 629 l 1,0,-1
EndSplineSet
Substitution2: "'case' Case-Sensitive Forms lookup 2 subtable" Macron
Substitution2: "'aalt' Access All Alternates lookup 0 subtable" Macron
EndChar

StartChar: degree
Encoding: 176 176 112
Width: 294
GlyphClass: 2
Flags: W
LayerCount: 2
Fore
SplineSet
151 686 m 2,0,-1
 152 686 l 2,1,2
 207 686 207 686 239 650.5 c 128,-1,3
 271 615 271 615 271 566 c 0,4,5
 271 511 271 511 234 476 c 128,-1,6
 197 441 197 441 149 441 c 0,7,8
 97 441 97 441 63.5 476 c 128,-1,9
 30 511 30 511 30 560 c 0,10,11
 30 614 30 614 65 650 c 128,-1,12
 100 686 100 686 151 686 c 2,0,-1
150 653 m 2,13,-1
 149 653 l 2,14,15
 110 653 110 653 89 624.5 c 128,-1,16
 68 596 68 596 68 560 c 128,-1,17
 68 524 68 524 91.5 499 c 128,-1,18
 115 474 115 474 150 474 c 0,19,20
 186 474 186 474 209.5 500 c 128,-1,21
 233 526 233 526 233 564 c 0,22,23
 233 597 233 597 213 625 c 128,-1,24
 193 653 193 653 150 653 c 2,13,-1
EndSplineSet
EndChar

StartChar: plusminus
Encoding: 177 177 113
Width: 596
GlyphClass: 2
Flags: W
LayerCount: 2
Fore
SplineSet
277 567 m 1,0,-1
 320 567 l 1,1,-1
 320 360 l 1,2,-1
 556 360 l 1,3,-1
 556 320 l 1,4,-1
 320 320 l 1,5,-1
 320 105 l 1,6,-1
 277 105 l 1,7,-1
 277 320 l 1,8,-1
 41 320 l 1,9,-1
 41 360 l 1,10,-1
 277 360 l 1,11,-1
 277 567 l 1,0,-1
41 40 m 1,12,-1
 556 40 l 1,13,-1
 556 0 l 1,14,-1
 41 0 l 1,15,-1
 41 40 l 1,12,-1
EndSplineSet
EndChar

StartChar: twosuperior
Encoding: 178 178 114
Width: 286
GlyphClass: 2
Flags: W
LayerCount: 2
Fore
SplineSet
11 443 m 1,0,-1
 11 468 l 1,1,-1
 75 529 l 2,2,3
 144 594 144 594 175 637.5 c 128,-1,4
 206 681 206 681 206 721 c 0,5,6
 206 757 206 757 184.5 780 c 128,-1,7
 163 803 163 803 120 803 c 0,8,9
 80 803 80 803 37 770 c 1,10,-1
 22 797 l 1,11,12
 65 838 65 838 130 838 c 0,13,14
 192 838 192 838 221 804.5 c 128,-1,15
 250 771 250 771 250 731 c 0,16,17
 250 677 250 677 215.5 629.5 c 128,-1,18
 181 582 181 582 106 514 c 2,19,-1
 71 481 l 1,20,-1
 71 479 l 1,21,-1
 256 479 l 1,22,-1
 256 443 l 1,23,-1
 11 443 l 1,0,-1
EndSplineSet
Substitution2: "Single Substitution lookup 22 subtable" two
Substitution2: "'dnom' Denominators lookup 11 subtable" uniF657
Substitution2: "'numr' Numerators lookup 10 subtable" uniF663
Substitution2: "'sinf' Scientific Inferiors lookup 9 subtable" twoinferior
AlternateSubs2: "'aalt' Access All Alternates lookup 1 subtable" twoinferior uniF663 uniF657
EndChar

StartChar: threesuperior
Encoding: 179 179 115
Width: 279
GlyphClass: 2
Flags: W
LayerCount: 2
Fore
SplineSet
44 776 m 1,0,-1
 30 807 l 1,1,2
 74 838 74 838 129 838 c 0,3,4
 185 838 185 838 211.5 811.5 c 128,-1,5
 238 785 238 785 238 747 c 0,6,7
 238 683 238 683 164 655 c 1,8,-1
 164 653 l 1,9,10
 204 647 204 647 229 619.5 c 128,-1,11
 254 592 254 592 254 554 c 0,12,13
 254 507 254 507 216.5 472.5 c 128,-1,14
 179 438 179 438 111 438 c 0,15,16
 47 438 47 438 8 465 c 1,17,-1
 23 498 l 1,18,19
 59 472 59 472 113 472 c 0,20,21
 163 472 163 472 187.5 497 c 128,-1,22
 212 522 212 522 211 553 c 0,23,24
 210 595 210 595 176 615.5 c 128,-1,25
 142 636 142 636 94 636 c 2,26,-1
 68 636 l 1,27,-1
 68 668 l 1,28,-1
 95 668 l 2,29,30
 131 668 131 668 162.5 687.5 c 128,-1,31
 194 707 194 707 195 745 c 0,32,33
 195 769 195 769 177.5 786.5 c 128,-1,34
 160 804 160 804 125 804 c 0,35,36
 80 804 80 804 44 776 c 1,0,-1
EndSplineSet
Substitution2: "Single Substitution lookup 22 subtable" three
Substitution2: "'dnom' Denominators lookup 11 subtable" uniF658
Substitution2: "'numr' Numerators lookup 10 subtable" uniF664
Substitution2: "'sinf' Scientific Inferiors lookup 9 subtable" threeinferior
AlternateSubs2: "'aalt' Access All Alternates lookup 1 subtable" threeinferior uniF664 uniF658
EndChar

StartChar: acute
Encoding: 180 180 116
Width: 300
GlyphClass: 2
Flags: W
LayerCount: 2
Fore
SplineSet
206 688 m 1,0,-1
 276 688 l 1,1,-1
 154 550 l 1,2,-1
 117 550 l 1,3,-1
 206 688 l 1,0,-1
EndSplineSet
Substitution2: "'case' Case-Sensitive Forms lookup 2 subtable" Acute
Substitution2: "'aalt' Access All Alternates lookup 0 subtable" Acute
EndChar

StartChar: mu
Encoding: 181 181 117
Width: 534
GlyphClass: 2
Flags: W
LayerCount: 2
Fore
SplineSet
409 80 m 1,0,-1
 407 80 l 1,1,2
 386 44 386 44 347.5 17 c 128,-1,3
 309 -10 309 -10 257 -10 c 0,4,5
 161 -10 161 -10 128 58 c 1,6,-1
 128 -13 l 2,7,8
 128 -152 128 -152 139 -198 c 1,9,-1
 95 -198 l 1,10,11
 80 -152 80 -152 80 -19 c 2,12,-1
 80 480 l 1,13,-1
 128 480 l 1,14,-1
 128 186 l 2,15,16
 128 119 128 119 159.5 75 c 128,-1,17
 191 31 191 31 258 31 c 0,18,19
 307 31 307 31 343.5 59 c 128,-1,20
 380 87 380 87 397 128 c 0,21,22
 406 155 406 155 406 181 c 2,23,-1
 406 480 l 1,24,-1
 454 480 l 1,25,-1
 454 117 l 2,26,27
 454 70 454 70 464 50 c 128,-1,28
 474 30 474 30 502 28 c 1,29,-1
 496 -10 l 1,30,31
 487 -11 487 -11 481 -11 c 0,32,33
 452 -11 452 -11 432 10.5 c 128,-1,34
 412 32 412 32 409 80 c 1,0,-1
EndSplineSet
EndChar

StartChar: paragraph
Encoding: 182 182 118
Width: 493
GlyphClass: 2
Flags: W
LayerCount: 2
Fore
SplineSet
287 -51 m 1,0,-1
 246 -51 l 1,1,-1
 246 264 l 1,2,-1
 238 264 l 2,3,4
 161 264 161 264 98.5 315 c 128,-1,5
 36 366 36 366 35 455 c 0,6,7
 35 497 35 497 47.5 533.5 c 128,-1,8
 60 570 60 570 88.5 603 c 128,-1,9
 117 636 117 636 170.5 655 c 128,-1,10
 224 674 224 674 298 674 c 0,11,12
 360 674 360 674 399 667 c 1,13,-1
 399 -51 l 1,14,-1
 358 -51 l 1,15,-1
 358 635 l 1,16,-1
 287 635 l 1,17,-1
 287 -51 l 1,0,-1
EndSplineSet
EndChar

StartChar: periodcentered
Encoding: 183 183 119
AltUni2: 002219.ffffffff.0 002219.ffffffff.0
Width: 174
GlyphClass: 2
Flags: W
LayerCount: 2
Fore
SplineSet
86 221 m 2,0,-1
 85 221 l 2,1,2
 68 221 68 221 56.5 234 c 128,-1,3
 45 247 45 247 46 265 c 0,4,5
 46 285 46 285 57.5 297.5 c 128,-1,6
 69 310 69 310 87 310 c 128,-1,7
 105 310 105 310 116 297.5 c 128,-1,8
 127 285 127 285 127 265 c 0,9,10
 127 246 127 246 115.5 233.5 c 128,-1,11
 104 221 104 221 86 221 c 2,0,-1
EndSplineSet
Substitution2: "'case' Case-Sensitive Forms lookup 2 subtable" uniF6BD
Substitution2: "'aalt' Access All Alternates lookup 0 subtable" uniF6BD
EndChar

StartChar: cedilla
Encoding: 184 184 120
Width: 300
GlyphClass: 2
Flags: W
LayerCount: 2
Fore
SplineSet
145 1 m 1,0,-1
 182 1 l 1,1,-1
 146 -54 l 1,2,3
 174 -58 174 -58 194 -76 c 128,-1,4
 214 -94 214 -94 214 -121 c 0,5,6
 214 -160 214 -160 187.5 -179 c 128,-1,7
 161 -198 161 -198 120 -198 c 0,8,9
 88 -198 88 -198 60 -182 c 1,10,-1
 72 -148 l 1,11,12
 95 -161 95 -161 126 -161 c 0,13,14
 147 -161 147 -161 160.5 -152.5 c 128,-1,15
 174 -144 174 -144 173 -126 c 0,16,17
 172 -88 172 -88 95 -81 c 1,18,-1
 145 1 l 1,0,-1
EndSplineSet
Substitution2: "'case' Case-Sensitive Forms lookup 2 subtable" uniEFF2
Substitution2: "'aalt' Access All Alternates lookup 0 subtable" uniEFF2
EndChar

StartChar: onesuperior
Encoding: 185 185 121
Width: 210
GlyphClass: 2
Flags: W
LayerCount: 2
Fore
SplineSet
142 443 m 1,0,-1
 101 443 l 1,1,-1
 101 793 l 1,2,-1
 99 793 l 1,3,-1
 32 759 l 1,4,-1
 23 792 l 1,5,-1
 105 833 l 1,6,-1
 142 833 l 1,7,-1
 142 443 l 1,0,-1
EndSplineSet
Substitution2: "Single Substitution lookup 22 subtable" one
Substitution2: "'dnom' Denominators lookup 11 subtable" uniF656
Substitution2: "'numr' Numerators lookup 10 subtable" uniF662
Substitution2: "'sinf' Scientific Inferiors lookup 9 subtable" oneinferior
AlternateSubs2: "'aalt' Access All Alternates lookup 1 subtable" oneinferior uniF662 uniF656
EndChar

StartChar: ordmasculine
Encoding: 186 186 122
Width: 337
GlyphClass: 2
Flags: W
LayerCount: 2
Fore
SplineSet
169 591 m 2,0,-1
 170 591 l 2,1,2
 239 591 239 591 281 545 c 128,-1,3
 323 499 323 499 323 427 c 0,4,5
 322 346 322 346 275.5 303.5 c 128,-1,6
 229 261 229 261 168 261 c 0,7,8
 102 261 102 261 58.5 306 c 128,-1,9
 15 351 15 351 15 423 c 0,10,11
 15 499 15 499 61.5 545 c 128,-1,12
 108 591 108 591 169 591 c 2,0,-1
168 556 m 2,13,-1
 167 556 l 2,14,15
 115 556 115 556 86 516 c 128,-1,16
 57 476 57 476 57 425 c 0,17,18
 57 369 57 369 90.5 332.5 c 128,-1,19
 124 296 124 296 168 296 c 0,20,21
 216 296 216 296 248 332 c 128,-1,22
 280 368 280 368 280 426 c 0,23,24
 280 475 280 475 251.5 515.5 c 128,-1,25
 223 556 223 556 168 556 c 2,13,-1
EndSplineSet
EndChar

StartChar: guillemotright
Encoding: 187 187 123
Width: 392
GlyphClass: 2
Flags: W
LayerCount: 2
Fore
SplineSet
166 252 m 1,0,-1
 23 432 l 1,1,-1
 73 432 l 1,2,-1
 216 252 l 1,3,-1
 73 72 l 1,4,-1
 24 72 l 1,5,-1
 166 252 l 1,0,-1
311 252 m 1,6,-1
 168 432 l 1,7,-1
 218 432 l 1,8,-1
 361 252 l 1,9,-1
 218 72 l 1,10,-1
 169 72 l 1,11,-1
 311 252 l 1,6,-1
EndSplineSet
Substitution2: "'case' Case-Sensitive Forms lookup 2 subtable" uniF6B7
Substitution2: "'aalt' Access All Alternates lookup 0 subtable" uniF6B7
EndChar

StartChar: onequarter
Encoding: 188 188 124
Width: 715
GlyphClass: 3
Flags: W
LayerCount: 2
Fore
SplineSet
167 266 m 1,0,-1
 126 266 l 1,1,-1
 126 616 l 1,2,-1
 124 616 l 1,3,-1
 57 582 l 1,4,-1
 48 615 l 1,5,-1
 130 656 l 1,6,-1
 167 656 l 1,7,-1
 167 266 l 1,0,-1
157 -11 m 1,8,-1
 117 -11 l 1,9,-1
 503 661 l 1,10,-1
 543 661 l 1,11,-1
 157 -11 l 1,8,-1
615 0 m 1,12,-1
 574 0 l 1,13,-1
 574 110 l 1,14,-1
 371 110 l 1,15,-1
 371 135 l 1,16,-1
 578 395 l 1,17,-1
 615 395 l 1,18,-1
 615 144 l 1,19,-1
 680 144 l 1,20,-1
 680 110 l 1,21,-1
 615 110 l 1,22,-1
 615 0 l 1,12,-1
574 144 m 1,23,-1
 574 289 l 2,24,25
 574 322 574 322 577 345 c 1,26,-1
 575 345 l 1,27,28
 569 337 569 337 563.5 328.5 c 128,-1,29
 558 320 558 320 552 311 c 128,-1,30
 546 302 546 302 543 297 c 2,31,-1
 422 145 l 1,32,-1
 422 144 l 1,33,-1
 574 144 l 1,23,-1
EndSplineSet
Ligature2: "'frac' Diagonal Fractions in Latin lookup 21 subtable" one fraction four
Ligature2: "'frac' Diagonal Fractions in Latin lookup 21 subtable" one slash four
EndChar

StartChar: onehalf
Encoding: 189 189 125
Width: 715
GlyphClass: 3
Flags: W
LayerCount: 2
Fore
SplineSet
151 266 m 1,0,-1
 110 266 l 1,1,-1
 110 616 l 1,2,-1
 108 616 l 1,3,-1
 41 582 l 1,4,-1
 32 615 l 1,5,-1
 114 656 l 1,6,-1
 151 656 l 1,7,-1
 151 266 l 1,0,-1
140 -11 m 1,8,-1
 100 -11 l 1,9,-1
 486 661 l 1,10,-1
 526 661 l 1,11,-1
 140 -11 l 1,8,-1
413 0 m 1,12,-1
 413 25 l 1,13,-1
 477 86 l 2,14,15
 546 151 546 151 577 194.5 c 128,-1,16
 608 238 608 238 608 277 c 0,17,18
 608 313 608 313 586.5 336.5 c 128,-1,19
 565 360 565 360 522 360 c 0,20,21
 482 360 482 360 439 327 c 1,22,-1
 424 354 l 1,23,24
 467 395 467 395 532 395 c 0,25,26
 594 395 594 395 623 361.5 c 128,-1,27
 652 328 652 328 652 287 c 0,28,29
 652 234 652 234 617.5 187.5 c 128,-1,30
 583 141 583 141 508 71 c 2,31,-1
 473 38 l 1,32,-1
 473 36 l 1,33,-1
 658 36 l 1,34,-1
 658 0 l 1,35,-1
 413 0 l 1,12,-1
EndSplineSet
Ligature2: "'frac' Diagonal Fractions in Latin lookup 21 subtable" one fraction two
Ligature2: "'frac' Diagonal Fractions in Latin lookup 21 subtable" one slash two
EndChar

StartChar: threequarters
Encoding: 190 190 126
Width: 715
GlyphClass: 3
Flags: W
LayerCount: 2
Fore
SplineSet
68 599 m 1,0,-1
 53 629 l 1,1,2
 96 661 96 661 151 661 c 0,3,4
 207 661 207 661 234 634.5 c 128,-1,5
 261 608 261 608 261 570 c 0,6,7
 261 540 261 540 242 515.5 c 128,-1,8
 223 491 223 491 188 478 c 1,9,-1
 188 476 l 1,10,11
 228 470 228 470 253 442.5 c 128,-1,12
 278 415 278 415 278 377 c 0,13,14
 278 330 278 330 240.5 295.5 c 128,-1,15
 203 261 203 261 135 261 c 0,16,17
 71 261 71 261 32 288 c 1,18,-1
 47 321 l 1,19,20
 83 295 83 295 137 295 c 0,21,22
 187 295 187 295 211.5 320 c 128,-1,23
 236 345 236 345 235 376 c 0,24,25
 234 418 234 418 200 438.5 c 128,-1,26
 166 459 166 459 117 459 c 2,27,-1
 91 459 l 1,28,-1
 91 491 l 1,29,-1
 118 491 l 2,30,31
 154 491 154 491 185.5 510.5 c 128,-1,32
 217 530 217 530 218 568 c 0,33,34
 218 592 218 592 200.5 609.5 c 128,-1,35
 183 627 183 627 148 627 c 0,36,37
 104 627 104 627 68 599 c 1,0,-1
197 -11 m 1,38,-1
 157 -11 l 1,39,-1
 543 661 l 1,40,-1
 583 661 l 1,41,-1
 197 -11 l 1,38,-1
627 0 m 1,42,-1
 586 0 l 1,43,-1
 586 110 l 1,44,-1
 383 110 l 1,45,-1
 383 135 l 1,46,-1
 590 395 l 1,47,-1
 627 395 l 1,48,-1
 627 144 l 1,49,-1
 692 144 l 1,50,-1
 692 110 l 1,51,-1
 627 110 l 1,52,-1
 627 0 l 1,42,-1
586 144 m 1,53,-1
 586 289 l 2,54,55
 586 322 586 322 589 345 c 1,56,-1
 587 345 l 1,57,58
 584 340 584 340 573 322.5 c 128,-1,59
 562 305 562 305 556 297 c 2,60,-1
 433 145 l 1,61,-1
 433 144 l 1,62,-1
 586 144 l 1,53,-1
EndSplineSet
Ligature2: "'frac' Diagonal Fractions in Latin lookup 21 subtable" three fraction four
Ligature2: "'frac' Diagonal Fractions in Latin lookup 21 subtable" three slash four
EndChar

StartChar: questiondown
Encoding: 191 191 127
Width: 381
GlyphClass: 2
Flags: W
LayerCount: 2
Fore
SplineSet
231 485 m 2,0,-1
 232 485 l 2,1,2
 249 485 249 485 260 472.5 c 128,-1,3
 271 460 271 460 271 440 c 0,4,5
 271 421 271 421 259.5 408 c 128,-1,6
 248 395 248 395 230 395 c 128,-1,7
 212 395 212 395 200.5 408.5 c 128,-1,8
 189 422 189 422 190 440 c 0,9,10
 190 460 190 460 201 472.5 c 128,-1,11
 212 485 212 485 231 485 c 2,0,-1
208 299 m 1,12,-1
 252 299 l 1,13,-1
 256 273 l 2,14,15
 269 184 269 184 192 90 c 0,16,17
 151 41 151 41 133 5.5 c 128,-1,18
 115 -30 115 -30 115 -67 c 0,19,20
 115 -115 115 -115 143 -142.5 c 128,-1,21
 171 -170 171 -170 224 -170 c 0,22,23
 284 -170 284 -170 326 -138 c 1,24,-1
 344 -173 l 1,25,26
 291 -213 291 -213 215 -213 c 0,27,28
 142 -213 142 -213 103 -171.5 c 128,-1,29
 64 -130 64 -130 64 -71 c 0,30,31
 64 -27 64 -27 84.5 12.5 c 128,-1,32
 105 52 105 52 150 106 c 0,33,34
 217 188 217 188 210 268 c 2,35,-1
 208 299 l 1,12,-1
EndSplineSet
Substitution2: "'case' Case-Sensitive Forms lookup 2 subtable" uniF6B5
Substitution2: "'aalt' Access All Alternates lookup 0 subtable" uniF6B5
EndChar

StartChar: Agrave
Encoding: 192 192 128
Width: 585
GlyphClass: 2
Flags: W
LayerCount: 2
Fore
SplineSet
429 236 m 1,0,-1
 162 236 l 1,1,-1
 79 0 l 1,2,-1
 30 0 l 1,3,-1
 274 674 l 1,4,-1
 320 674 l 1,5,-1
 563 0 l 1,6,-1
 514 0 l 1,7,-1
 429 236 l 1,0,-1
177 276 m 1,8,-1
 414 276 l 1,9,-1
 332 501 l 2,10,11
 316 549 316 549 297 620 c 1,12,-1
 295 620 l 1,13,14
 284 575 284 575 260 503 c 2,15,-1
 177 276 l 1,8,-1
166 823 m 1,16,-1
 239 823 l 1,17,-1
 337 710 l 1,18,-1
 297 710 l 1,19,-1
 166 823 l 1,16,-1
EndSplineSet
Position2: "'cpsp' Capital Spacing lookup 0 subtable" dx=10 dy=0 dh=20 dv=0
EndChar

StartChar: Aacute
Encoding: 193 193 129
Width: 585
GlyphClass: 2
Flags: W
LayerCount: 2
Fore
SplineSet
429 236 m 1,0,-1
 162 236 l 1,1,-1
 79 0 l 1,2,-1
 30 0 l 1,3,-1
 274 674 l 1,4,-1
 320 674 l 1,5,-1
 563 0 l 1,6,-1
 514 0 l 1,7,-1
 429 236 l 1,0,-1
177 276 m 1,8,-1
 414 276 l 1,9,-1
 332 501 l 2,10,11
 316 549 316 549 297 620 c 1,12,-1
 295 620 l 1,13,14
 284 575 284 575 260 503 c 2,15,-1
 177 276 l 1,8,-1
355 823 m 1,16,-1
 428 823 l 1,17,-1
 297 710 l 1,18,-1
 257 710 l 1,19,-1
 355 823 l 1,16,-1
EndSplineSet
Position2: "'cpsp' Capital Spacing lookup 0 subtable" dx=10 dy=0 dh=20 dv=0
EndChar

StartChar: Acircumflex
Encoding: 194 194 130
Width: 585
GlyphClass: 2
Flags: W
LayerCount: 2
Fore
SplineSet
429 236 m 1,0,-1
 162 236 l 1,1,-1
 79 0 l 1,2,-1
 30 0 l 1,3,-1
 274 674 l 1,4,-1
 320 674 l 1,5,-1
 563 0 l 1,6,-1
 514 0 l 1,7,-1
 429 236 l 1,0,-1
177 276 m 1,8,-1
 414 276 l 1,9,-1
 332 501 l 2,10,11
 316 549 316 549 297 620 c 1,12,-1
 295 620 l 1,13,14
 284 575 284 575 260 503 c 2,15,-1
 177 276 l 1,8,-1
281 819 m 1,16,-1
 319 819 l 1,17,-1
 426 710 l 1,18,-1
 373 710 l 1,19,-1
 301 784 l 1,20,-1
 299 784 l 1,21,-1
 227 710 l 1,22,-1
 177 710 l 1,23,-1
 281 819 l 1,16,-1
EndSplineSet
Position2: "'cpsp' Capital Spacing lookup 0 subtable" dx=10 dy=0 dh=20 dv=0
EndChar

StartChar: Atilde
Encoding: 195 195 131
Width: 585
GlyphClass: 2
Flags: W
LayerCount: 2
Fore
SplineSet
429 236 m 1,0,-1
 162 236 l 1,1,-1
 79 0 l 1,2,-1
 30 0 l 1,3,-1
 274 674 l 1,4,-1
 320 674 l 1,5,-1
 563 0 l 1,6,-1
 514 0 l 1,7,-1
 429 236 l 1,0,-1
177 276 m 1,8,-1
 414 276 l 1,9,-1
 332 501 l 2,10,11
 316 549 316 549 297 620 c 1,12,-1
 295 620 l 1,13,14
 284 575 284 575 260 503 c 2,15,-1
 177 276 l 1,8,-1
215 716 m 1,16,-1
 182 716 l 1,17,18
 181 752 181 752 198 777 c 128,-1,19
 215 802 215 802 245 802 c 0,20,21
 265 802 265 802 302 781 c 0,22,23
 334 764 334 764 352 764 c 0,24,25
 377 764 377 764 379 801 c 1,26,-1
 412 801 l 1,27,28
 412 721 412 721 352 721 c 0,29,30
 330 721 330 721 293 741 c 0,31,32
 255 760 255 760 243 760 c 0,33,34
 220 760 220 760 215 716 c 1,16,-1
EndSplineSet
Position2: "'cpsp' Capital Spacing lookup 0 subtable" dx=10 dy=0 dh=20 dv=0
EndChar

StartChar: Adieresis
Encoding: 196 196 132
Width: 585
GlyphClass: 2
Flags: W
LayerCount: 2
Fore
SplineSet
429 236 m 1,0,-1
 162 236 l 1,1,-1
 79 0 l 1,2,-1
 30 0 l 1,3,-1
 274 674 l 1,4,-1
 320 674 l 1,5,-1
 563 0 l 1,6,-1
 514 0 l 1,7,-1
 429 236 l 1,0,-1
177 276 m 1,8,-1
 414 276 l 1,9,-1
 332 501 l 2,10,11
 316 549 316 549 297 620 c 1,12,-1
 295 620 l 1,13,14
 284 575 284 575 260 503 c 2,15,-1
 177 276 l 1,8,-1
211 723 m 2,16,-1
 210 723 l 2,17,18
 194 723 194 723 184 734.5 c 128,-1,19
 174 746 174 746 174 763 c 0,20,21
 174 779 174 779 185 791 c 128,-1,22
 196 803 196 803 211 803 c 0,23,24
 227 803 227 803 237.5 791.5 c 128,-1,25
 248 780 248 780 248 763 c 128,-1,26
 248 746 248 746 238 734.5 c 128,-1,27
 228 723 228 723 211 723 c 2,16,-1
383 723 m 2,28,-1
 382 723 l 2,29,30
 366 723 366 723 356 734.5 c 128,-1,31
 346 746 346 746 346 763 c 0,32,33
 346 779 346 779 357 791 c 128,-1,34
 368 803 368 803 383 803 c 0,35,36
 399 803 399 803 409.5 791.5 c 128,-1,37
 420 780 420 780 420 763 c 128,-1,38
 420 746 420 746 410 734.5 c 128,-1,39
 400 723 400 723 383 723 c 2,28,-1
EndSplineSet
Position2: "'cpsp' Capital Spacing lookup 0 subtable" dx=10 dy=0 dh=20 dv=0
EndChar

StartChar: Aring
Encoding: 197 197 133
Width: 585
GlyphClass: 2
Flags: W
LayerCount: 2
Fore
SplineSet
429 236 m 1,0,-1
 162 236 l 1,1,-1
 79 0 l 1,2,-1
 30 0 l 1,3,-1
 274 674 l 1,4,-1
 320 674 l 1,5,-1
 563 0 l 1,6,-1
 514 0 l 1,7,-1
 429 236 l 1,0,-1
177 276 m 1,8,-1
 414 276 l 1,9,-1
 332 501 l 2,10,11
 316 549 316 549 297 620 c 1,12,-1
 295 620 l 1,13,14
 284 575 284 575 260 503 c 2,15,-1
 177 276 l 1,8,-1
298 867 m 2,16,-1
 299 867 l 2,17,18
 338 867 338 867 363 842 c 128,-1,19
 388 817 388 817 388 781 c 0,20,21
 388 746 388 746 362 722 c 128,-1,22
 336 698 336 698 298 698 c 0,23,24
 259 698 259 698 233 722 c 128,-1,25
 207 746 207 746 207 781 c 0,26,27
 207 817 207 817 232.5 842 c 128,-1,28
 258 867 258 867 298 867 c 2,16,-1
297 839 m 2,29,-1
 296 839 l 2,30,31
 274 839 274 839 260.5 822 c 128,-1,32
 247 805 247 805 247 781 c 0,33,34
 247 760 247 760 261.5 743.5 c 128,-1,35
 276 727 276 727 297 727 c 0,36,37
 319 727 319 727 333.5 743 c 128,-1,38
 348 759 348 759 348 783 c 128,-1,39
 348 807 348 807 333.5 823 c 128,-1,40
 319 839 319 839 297 839 c 2,29,-1
EndSplineSet
Position2: "'cpsp' Capital Spacing lookup 0 subtable" dx=10 dy=0 dh=20 dv=0
EndChar

StartChar: AE
Encoding: 198 198 134
Width: 738
GlyphClass: 2
Flags: W
LayerCount: 2
Fore
SplineSet
46 0 m 1,0,-1
 -3 0 l 1,1,-1
 318 674 l 1,2,-1
 683 674 l 1,3,-1
 683 634 l 1,4,-1
 391 634 l 1,5,-1
 422 374 l 1,6,-1
 671 374 l 1,7,-1
 671 334 l 1,8,-1
 427 334 l 1,9,-1
 463 40 l 1,10,-1
 704 40 l 1,11,-1
 704 0 l 1,12,-1
 422 0 l 1,13,-1
 388 271 l 1,14,-1
 175 271 l 1,15,-1
 46 0 l 1,0,-1
194 310 m 1,16,-1
 384 310 l 1,17,-1
 360 522 l 2,18,19
 350 600 350 600 348 638 c 1,20,-1
 343 638 l 1,21,22
 315 572 315 572 295 528 c 2,23,-1
 194 310 l 1,16,-1
EndSplineSet
Position2: "'cpsp' Capital Spacing lookup 0 subtable" dx=10 dy=0 dh=20 dv=0
EndChar

StartChar: Ccedilla
Encoding: 199 199 135
Width: 578
GlyphClass: 2
Flags: W
LayerCount: 2
Fore
SplineSet
524 62 m 1,0,-1
 538 24 l 1,1,2
 472 -10 472 -10 352 -10 c 1,3,-1
 323 -54 l 1,4,5
 352 -58 352 -58 372 -77 c 128,-1,6
 392 -96 392 -96 392 -124 c 0,7,8
 392 -161 392 -161 365.5 -179.5 c 128,-1,9
 339 -198 339 -198 299 -198 c 0,10,11
 265 -198 265 -198 237 -183 c 1,12,-1
 249 -148 l 1,13,14
 273 -161 273 -161 303 -161 c 0,15,16
 349 -161 349 -161 349 -126 c 0,17,18
 349 -89 349 -89 272 -80 c 1,19,-1
 315 -8 l 1,20,21
 195 5 195 5 116 91 c 128,-1,22
 37 177 37 177 37 333 c 0,23,24
 37 486 37 486 129.5 585 c 128,-1,25
 222 684 222 684 379 684 c 0,26,27
 474 684 474 684 535 655 c 1,28,-1
 520 615 l 1,29,30
 460 644 460 644 379 644 c 0,31,32
 243 644 243 644 165 560.5 c 128,-1,33
 87 477 87 477 87 332 c 0,34,35
 87 193 87 193 162 112 c 128,-1,36
 237 31 237 31 371 31 c 0,37,38
 460 31 460 31 524 62 c 1,0,-1
EndSplineSet
Position2: "'cpsp' Capital Spacing lookup 0 subtable" dx=10 dy=0 dh=20 dv=0
EndChar

StartChar: Egrave
Encoding: 200 200 136
Width: 466
GlyphClass: 2
Flags: W
LayerCount: 2
Fore
SplineSet
398 375 m 1,0,-1
 398 335 l 1,1,-1
 129 335 l 1,2,-1
 129 40 l 1,3,-1
 430 40 l 1,4,-1
 430 0 l 1,5,-1
 81 0 l 1,6,-1
 81 674 l 1,7,-1
 414 674 l 1,8,-1
 414 634 l 1,9,-1
 129 634 l 1,10,-1
 129 375 l 1,11,-1
 398 375 l 1,0,-1
125 823 m 1,12,-1
 198 823 l 1,13,-1
 296 710 l 1,14,-1
 256 710 l 1,15,-1
 125 823 l 1,12,-1
EndSplineSet
Position2: "'cpsp' Capital Spacing lookup 0 subtable" dx=10 dy=0 dh=20 dv=0
EndChar

StartChar: Eacute
Encoding: 201 201 137
Width: 466
GlyphClass: 2
Flags: W
LayerCount: 2
Fore
SplineSet
398 375 m 1,0,-1
 398 335 l 1,1,-1
 129 335 l 1,2,-1
 129 40 l 1,3,-1
 430 40 l 1,4,-1
 430 0 l 1,5,-1
 81 0 l 1,6,-1
 81 674 l 1,7,-1
 414 674 l 1,8,-1
 414 634 l 1,9,-1
 129 634 l 1,10,-1
 129 375 l 1,11,-1
 398 375 l 1,0,-1
311 823 m 1,12,-1
 384 823 l 1,13,-1
 253 710 l 1,14,-1
 213 710 l 1,15,-1
 311 823 l 1,12,-1
EndSplineSet
Position2: "'cpsp' Capital Spacing lookup 0 subtable" dx=10 dy=0 dh=20 dv=0
EndChar

StartChar: Ecircumflex
Encoding: 202 202 138
Width: 466
GlyphClass: 2
Flags: W
LayerCount: 2
Fore
SplineSet
398 375 m 1,0,-1
 398 335 l 1,1,-1
 129 335 l 1,2,-1
 129 40 l 1,3,-1
 430 40 l 1,4,-1
 430 0 l 1,5,-1
 81 0 l 1,6,-1
 81 674 l 1,7,-1
 414 674 l 1,8,-1
 414 634 l 1,9,-1
 129 634 l 1,10,-1
 129 375 l 1,11,-1
 398 375 l 1,0,-1
225 819 m 1,12,-1
 263 819 l 1,13,-1
 370 710 l 1,14,-1
 317 710 l 1,15,-1
 245 784 l 1,16,-1
 243 784 l 1,17,-1
 171 710 l 1,18,-1
 121 710 l 1,19,-1
 225 819 l 1,12,-1
EndSplineSet
Position2: "'cpsp' Capital Spacing lookup 0 subtable" dx=10 dy=0 dh=20 dv=0
EndChar

StartChar: Edieresis
Encoding: 203 203 139
Width: 466
GlyphClass: 2
Flags: W
LayerCount: 2
Fore
SplineSet
398 375 m 1,0,-1
 398 335 l 1,1,-1
 129 335 l 1,2,-1
 129 40 l 1,3,-1
 430 40 l 1,4,-1
 430 0 l 1,5,-1
 81 0 l 1,6,-1
 81 674 l 1,7,-1
 414 674 l 1,8,-1
 414 634 l 1,9,-1
 129 634 l 1,10,-1
 129 375 l 1,11,-1
 398 375 l 1,0,-1
160 726 m 2,12,-1
 159 726 l 2,13,14
 143 726 143 726 133 737.5 c 128,-1,15
 123 749 123 749 123 766 c 0,16,17
 123 782 123 782 134 794 c 128,-1,18
 145 806 145 806 160 806 c 0,19,20
 176 806 176 806 186.5 794.5 c 128,-1,21
 197 783 197 783 197 766 c 128,-1,22
 197 749 197 749 187 737.5 c 128,-1,23
 177 726 177 726 160 726 c 2,12,-1
332 726 m 2,24,-1
 331 726 l 2,25,26
 315 726 315 726 305 737.5 c 128,-1,27
 295 749 295 749 295 766 c 0,28,29
 295 782 295 782 306 794 c 128,-1,30
 317 806 317 806 332 806 c 0,31,32
 348 806 348 806 358.5 794.5 c 128,-1,33
 369 783 369 783 369 766 c 128,-1,34
 369 749 369 749 359 737.5 c 128,-1,35
 349 726 349 726 332 726 c 2,24,-1
EndSplineSet
Position2: "'cpsp' Capital Spacing lookup 0 subtable" dx=10 dy=0 dh=20 dv=0
EndChar

StartChar: Igrave
Encoding: 204 204 140
Width: 211
GlyphClass: 2
Flags: W
LayerCount: 2
Fore
SplineSet
81 674 m 1,0,-1
 129 674 l 1,1,-1
 129 0 l 1,2,-1
 81 0 l 1,3,-1
 81 674 l 1,0,-1
-25 823 m 1,4,-1
 48 823 l 1,5,-1
 146 710 l 1,6,-1
 106 710 l 1,7,-1
 -25 823 l 1,4,-1
EndSplineSet
Position2: "'cpsp' Capital Spacing lookup 0 subtable" dx=10 dy=0 dh=20 dv=0
EndChar

StartChar: Iacute
Encoding: 205 205 141
Width: 211
GlyphClass: 2
Flags: W
LayerCount: 2
Fore
SplineSet
81 674 m 1,0,-1
 129 674 l 1,1,-1
 129 0 l 1,2,-1
 81 0 l 1,3,-1
 81 674 l 1,0,-1
163 823 m 1,4,-1
 236 823 l 1,5,-1
 105 710 l 1,6,-1
 65 710 l 1,7,-1
 163 823 l 1,4,-1
EndSplineSet
Position2: "'cpsp' Capital Spacing lookup 0 subtable" dx=10 dy=0 dh=20 dv=0
EndChar

StartChar: Icircumflex
Encoding: 206 206 142
Width: 211
GlyphClass: 2
Flags: W
LayerCount: 2
Fore
SplineSet
81 674 m 1,0,-1
 129 674 l 1,1,-1
 129 0 l 1,2,-1
 81 0 l 1,3,-1
 81 674 l 1,0,-1
86 819 m 1,4,-1
 124 819 l 1,5,-1
 231 710 l 1,6,-1
 178 710 l 1,7,-1
 106 784 l 1,8,-1
 104 784 l 1,9,-1
 32 710 l 1,10,-1
 -18 710 l 1,11,-1
 86 819 l 1,4,-1
EndSplineSet
Position2: "'cpsp' Capital Spacing lookup 0 subtable" dx=10 dy=0 dh=20 dv=0
EndChar

StartChar: Idieresis
Encoding: 207 207 143
Width: 211
GlyphClass: 2
Flags: W
LayerCount: 2
Fore
SplineSet
81 674 m 1,0,-1
 129 674 l 1,1,-1
 129 0 l 1,2,-1
 81 0 l 1,3,-1
 81 674 l 1,0,-1
20 726 m 2,4,-1
 19 726 l 2,5,6
 3 726 3 726 -7 737.5 c 128,-1,7
 -17 749 -17 749 -17 766 c 0,8,9
 -17 782 -17 782 -6 794 c 128,-1,10
 5 806 5 806 20 806 c 0,11,12
 36 806 36 806 46.5 794.5 c 128,-1,13
 57 783 57 783 57 766 c 128,-1,14
 57 749 57 749 47 737.5 c 128,-1,15
 37 726 37 726 20 726 c 2,4,-1
192 726 m 2,16,-1
 191 726 l 2,17,18
 175 726 175 726 165 737.5 c 128,-1,19
 155 749 155 749 155 766 c 0,20,21
 155 782 155 782 166 794 c 128,-1,22
 177 806 177 806 192 806 c 0,23,24
 208 806 208 806 218.5 794.5 c 128,-1,25
 229 783 229 783 229 766 c 128,-1,26
 229 749 229 749 219 737.5 c 128,-1,27
 209 726 209 726 192 726 c 2,16,-1
EndSplineSet
Position2: "'cpsp' Capital Spacing lookup 0 subtable" dx=10 dy=0 dh=20 dv=0
EndChar

StartChar: Eth
Encoding: 208 208 144
Width: 651
GlyphClass: 2
Flags: W
LayerCount: 2
Fore
SplineSet
-5 322 m 1,0,-1
 -5 361 l 1,1,-1
 84 361 l 1,2,-1
 84 667 l 1,3,4
 171 682 171 682 257 682 c 0,5,6
 442 682 442 682 529 590 c 0,7,8
 613 503 613 503 613 353 c 0,9,10
 613 194 613 194 525 97 c 0,11,12
 432 -6 432 -6 234 -6 c 0,13,14
 143 -6 143 -6 84 0 c 1,15,-1
 84 322 l 1,16,-1
 -5 322 l 1,0,-1
341 361 m 1,17,-1
 341 322 l 1,18,-1
 132 322 l 1,19,-1
 132 39 l 1,20,21
 166 34 166 34 241 34 c 0,22,23
 400 34 400 34 482 118 c 128,-1,24
 564 202 564 202 564 354 c 0,25,26
 566 488 566 488 488.5 565 c 128,-1,27
 411 642 411 642 254 642 c 0,28,29
 185 642 185 642 132 631 c 1,30,-1
 132 361 l 1,31,-1
 341 361 l 1,17,-1
EndSplineSet
Position2: "'cpsp' Capital Spacing lookup 0 subtable" dx=10 dy=0 dh=20 dv=0
EndChar

StartChar: Ntilde
Encoding: 209 209 145
Width: 638
GlyphClass: 2
Flags: W
LayerCount: 2
Fore
SplineSet
128 0 m 1,0,-1
 82 0 l 1,1,-1
 82 674 l 1,2,-1
 127 674 l 1,3,-1
 389 276 l 2,4,5
 475 144 475 144 516 64 c 1,6,-1
 518 65 l 1,7,8
 510 169 510 169 510 338 c 2,9,-1
 510 674 l 1,10,-1
 556 674 l 1,11,-1
 556 0 l 1,12,-1
 512 0 l 1,13,-1
 255 392 l 2,14,15
 159 539 159 539 124 610 c 1,16,-1
 122 609 l 1,17,18
 128 509 128 509 128 341 c 2,19,-1
 128 0 l 1,0,-1
244 716 m 1,20,-1
 211 716 l 1,21,22
 210 752 210 752 227 777 c 128,-1,23
 244 802 244 802 274 802 c 0,24,25
 294 802 294 802 331 781 c 0,26,27
 363 764 363 764 381 764 c 0,28,29
 406 764 406 764 408 801 c 1,30,-1
 441 801 l 1,31,32
 441 721 441 721 381 721 c 0,33,34
 359 721 359 721 322 741 c 0,35,36
 284 760 284 760 272 760 c 0,37,38
 249 760 249 760 244 716 c 1,20,-1
EndSplineSet
Position2: "'cpsp' Capital Spacing lookup 0 subtable" dx=10 dy=0 dh=20 dv=0
EndChar

StartChar: Ograve
Encoding: 210 210 146
Width: 671
GlyphClass: 2
Flags: W
LayerCount: 2
Fore
SplineSet
333 -11 m 2,0,-1
 332 -11 l 2,1,2
 205 -11 205 -11 121 82.5 c 128,-1,3
 37 176 37 176 37 330 c 0,4,5
 37 492 37 492 123.5 588.5 c 128,-1,6
 210 685 210 685 340 685 c 0,7,8
 469 685 469 685 551.5 591.5 c 128,-1,9
 634 498 634 498 634 344 c 0,10,11
 634 175 634 175 546 82 c 128,-1,12
 458 -11 458 -11 333 -11 c 2,0,-1
334 29 m 2,13,-1
 335 29 l 2,14,15
 450 29 450 29 517 119.5 c 128,-1,16
 584 210 584 210 584 341 c 0,17,18
 584 396 584 396 568.5 448.5 c 128,-1,19
 553 501 553 501 524 546 c 128,-1,20
 495 591 495 591 446.5 618 c 128,-1,21
 398 645 398 645 337 645 c 0,22,23
 255 645 255 645 197 598.5 c 128,-1,24
 139 552 139 552 113 483 c 128,-1,25
 87 414 87 414 87 332 c 0,26,27
 87 210 87 210 154 119.5 c 128,-1,28
 221 29 221 29 334 29 c 2,13,-1
207 827 m 1,29,-1
 280 827 l 1,30,-1
 378 714 l 1,31,-1
 338 714 l 1,32,-1
 207 827 l 1,29,-1
EndSplineSet
Position2: "'cpsp' Capital Spacing lookup 0 subtable" dx=10 dy=0 dh=20 dv=0
EndChar

StartChar: Oacute
Encoding: 211 211 147
Width: 671
GlyphClass: 2
Flags: W
LayerCount: 2
Fore
SplineSet
333 -11 m 2,0,-1
 332 -11 l 2,1,2
 205 -11 205 -11 121 82.5 c 128,-1,3
 37 176 37 176 37 330 c 0,4,5
 37 492 37 492 123.5 588.5 c 128,-1,6
 210 685 210 685 340 685 c 0,7,8
 469 685 469 685 551.5 591.5 c 128,-1,9
 634 498 634 498 634 344 c 0,10,11
 634 175 634 175 546 82 c 128,-1,12
 458 -11 458 -11 333 -11 c 2,0,-1
334 29 m 2,13,-1
 335 29 l 2,14,15
 450 29 450 29 517 119.5 c 128,-1,16
 584 210 584 210 584 341 c 0,17,18
 584 396 584 396 568.5 448.5 c 128,-1,19
 553 501 553 501 524 546 c 128,-1,20
 495 591 495 591 446.5 618 c 128,-1,21
 398 645 398 645 337 645 c 0,22,23
 255 645 255 645 197 598.5 c 128,-1,24
 139 552 139 552 113 483 c 128,-1,25
 87 414 87 414 87 332 c 0,26,27
 87 210 87 210 154 119.5 c 128,-1,28
 221 29 221 29 334 29 c 2,13,-1
392 827 m 1,29,-1
 465 827 l 1,30,-1
 334 714 l 1,31,-1
 294 714 l 1,32,-1
 392 827 l 1,29,-1
EndSplineSet
Position2: "'cpsp' Capital Spacing lookup 0 subtable" dx=10 dy=0 dh=20 dv=0
EndChar

StartChar: Ocircumflex
Encoding: 212 212 148
Width: 671
GlyphClass: 2
Flags: W
LayerCount: 2
Fore
SplineSet
333 -11 m 2,0,-1
 332 -11 l 2,1,2
 205 -11 205 -11 121 82.5 c 128,-1,3
 37 176 37 176 37 330 c 0,4,5
 37 492 37 492 123.5 588.5 c 128,-1,6
 210 685 210 685 340 685 c 0,7,8
 469 685 469 685 551.5 591.5 c 128,-1,9
 634 498 634 498 634 344 c 0,10,11
 634 175 634 175 546 82 c 128,-1,12
 458 -11 458 -11 333 -11 c 2,0,-1
334 29 m 2,13,-1
 335 29 l 2,14,15
 450 29 450 29 517 119.5 c 128,-1,16
 584 210 584 210 584 341 c 0,17,18
 584 396 584 396 568.5 448.5 c 128,-1,19
 553 501 553 501 524 546 c 128,-1,20
 495 591 495 591 446.5 618 c 128,-1,21
 398 645 398 645 337 645 c 0,22,23
 255 645 255 645 197 598.5 c 128,-1,24
 139 552 139 552 113 483 c 128,-1,25
 87 414 87 414 87 332 c 0,26,27
 87 210 87 210 154 119.5 c 128,-1,28
 221 29 221 29 334 29 c 2,13,-1
317 823 m 1,29,-1
 355 823 l 1,30,-1
 462 714 l 1,31,-1
 409 714 l 1,32,-1
 337 788 l 1,33,-1
 335 788 l 1,34,-1
 263 714 l 1,35,-1
 213 714 l 1,36,-1
 317 823 l 1,29,-1
EndSplineSet
Position2: "'cpsp' Capital Spacing lookup 0 subtable" dx=10 dy=0 dh=20 dv=0
EndChar

StartChar: Otilde
Encoding: 213 213 149
Width: 671
GlyphClass: 2
Flags: W
LayerCount: 2
Fore
SplineSet
333 -11 m 2,0,-1
 332 -11 l 2,1,2
 205 -11 205 -11 121 82.5 c 128,-1,3
 37 176 37 176 37 330 c 0,4,5
 37 492 37 492 123.5 588.5 c 128,-1,6
 210 685 210 685 340 685 c 0,7,8
 469 685 469 685 551.5 591.5 c 128,-1,9
 634 498 634 498 634 344 c 0,10,11
 634 175 634 175 546 82 c 128,-1,12
 458 -11 458 -11 333 -11 c 2,0,-1
334 29 m 2,13,-1
 335 29 l 2,14,15
 450 29 450 29 517 119.5 c 128,-1,16
 584 210 584 210 584 341 c 0,17,18
 584 396 584 396 568.5 448.5 c 128,-1,19
 553 501 553 501 524 546 c 128,-1,20
 495 591 495 591 446.5 618 c 128,-1,21
 398 645 398 645 337 645 c 0,22,23
 255 645 255 645 197 598.5 c 128,-1,24
 139 552 139 552 113 483 c 128,-1,25
 87 414 87 414 87 332 c 0,26,27
 87 210 87 210 154 119.5 c 128,-1,28
 221 29 221 29 334 29 c 2,13,-1
254 720 m 1,29,-1
 221 720 l 1,30,31
 220 756 220 756 237 781 c 128,-1,32
 254 806 254 806 284 806 c 0,33,34
 304 806 304 806 341 785 c 0,35,36
 373 768 373 768 391 768 c 0,37,38
 416 768 416 768 418 805 c 1,39,-1
 451 805 l 1,40,41
 451 725 451 725 391 725 c 0,42,43
 369 725 369 725 332 745 c 0,44,45
 294 764 294 764 282 764 c 0,46,47
 259 764 259 764 254 720 c 1,29,-1
EndSplineSet
Position2: "'cpsp' Capital Spacing lookup 0 subtable" dx=10 dy=0 dh=20 dv=0
EndChar

StartChar: Odieresis
Encoding: 214 214 150
Width: 671
GlyphClass: 2
Flags: W
LayerCount: 2
Fore
SplineSet
333 -11 m 2,0,-1
 332 -11 l 2,1,2
 205 -11 205 -11 121 82.5 c 128,-1,3
 37 176 37 176 37 330 c 0,4,5
 37 492 37 492 123.5 588.5 c 128,-1,6
 210 685 210 685 340 685 c 0,7,8
 469 685 469 685 551.5 591.5 c 128,-1,9
 634 498 634 498 634 344 c 0,10,11
 634 175 634 175 546 82 c 128,-1,12
 458 -11 458 -11 333 -11 c 2,0,-1
334 29 m 2,13,-1
 335 29 l 2,14,15
 450 29 450 29 517 119.5 c 128,-1,16
 584 210 584 210 584 341 c 0,17,18
 584 396 584 396 568.5 448.5 c 128,-1,19
 553 501 553 501 524 546 c 128,-1,20
 495 591 495 591 446.5 618 c 128,-1,21
 398 645 398 645 337 645 c 0,22,23
 255 645 255 645 197 598.5 c 128,-1,24
 139 552 139 552 113 483 c 128,-1,25
 87 414 87 414 87 332 c 0,26,27
 87 210 87 210 154 119.5 c 128,-1,28
 221 29 221 29 334 29 c 2,13,-1
250 726 m 2,29,-1
 249 726 l 2,30,31
 233 726 233 726 223 737.5 c 128,-1,32
 213 749 213 749 213 766 c 0,33,34
 213 782 213 782 224 794 c 128,-1,35
 235 806 235 806 250 806 c 0,36,37
 266 806 266 806 276.5 794.5 c 128,-1,38
 287 783 287 783 287 766 c 128,-1,39
 287 749 287 749 277 737.5 c 128,-1,40
 267 726 267 726 250 726 c 2,29,-1
422 726 m 2,41,-1
 421 726 l 2,42,43
 405 726 405 726 395 737.5 c 128,-1,44
 385 749 385 749 385 766 c 0,45,46
 385 782 385 782 396 794 c 128,-1,47
 407 806 407 806 422 806 c 0,48,49
 438 806 438 806 448.5 794.5 c 128,-1,50
 459 783 459 783 459 766 c 128,-1,51
 459 749 459 749 449 737.5 c 128,-1,52
 439 726 439 726 422 726 c 2,41,-1
EndSplineSet
Position2: "'cpsp' Capital Spacing lookup 0 subtable" dx=10 dy=0 dh=20 dv=0
EndChar

StartChar: multiply
Encoding: 215 215 151
Width: 596
GlyphClass: 2
Flags: W
LayerCount: 2
Fore
SplineSet
40 496 m 1,0,-1
 70 526 l 1,1,-1
 298 294 l 1,2,-1
 526 526 l 1,3,-1
 556 496 l 1,4,-1
 328 263 l 1,5,-1
 556 30 l 1,6,-1
 526 0 l 1,7,-1
 298 232 l 1,8,-1
 70 0 l 1,9,-1
 40 30 l 1,10,-1
 268 263 l 1,11,-1
 40 496 l 1,0,-1
EndSplineSet
EndChar

StartChar: Oslash
Encoding: 216 216 152
Width: 671
GlyphClass: 2
Flags: W
LayerCount: 2
Fore
SplineSet
86 -28 m 1,0,-1
 57 -5 l 1,1,-1
 123 84 l 1,2,3
 37 180 37 180 37 332 c 0,4,5
 37 494 37 494 124 589.5 c 128,-1,6
 211 685 211 685 340 685 c 0,7,8
 443 685 443 685 520 621 c 1,9,-1
 581 702 l 1,10,-1
 613 680 l 1,11,-1
 548 593 l 1,12,13
 634 497 634 497 634 344 c 0,14,15
 634 256 634 256 608.5 186 c 128,-1,16
 583 116 583 116 540 74 c 128,-1,17
 497 32 497 32 445 10.5 c 128,-1,18
 393 -11 393 -11 337 -11 c 0,19,20
 229 -11 229 -11 150 56 c 1,21,-1
 86 -28 l 1,0,-1
152 124 m 1,22,-1
 494 584 l 1,23,24
 425 645 425 645 337 645 c 0,25,26
 256 645 256 645 197.5 597.5 c 128,-1,27
 139 550 139 550 113 482.5 c 128,-1,28
 87 415 87 415 87 338 c 0,29,30
 87 222 87 222 150 122 c 1,31,-1
 152 124 l 1,22,-1
519 553 m 1,32,-1
 177 92 l 1,33,34
 242 29 242 29 335 29 c 0,35,36
 413 29 413 29 471 74 c 128,-1,37
 529 119 529 119 556.5 188.5 c 128,-1,38
 584 258 584 258 584 341 c 0,39,40
 584 461 584 461 521 553 c 1,41,-1
 519 553 l 1,32,-1
EndSplineSet
Position2: "'cpsp' Capital Spacing lookup 0 subtable" dx=10 dy=0 dh=20 dv=0
EndChar

StartChar: Ugrave
Encoding: 217 217 153
Width: 626
GlyphClass: 2
Flags: W
LayerCount: 2
Fore
SplineSet
81 674 m 1,0,-1
 129 674 l 1,1,-1
 129 267 l 2,2,3
 129 145 129 145 178.5 87 c 128,-1,4
 228 29 228 29 308 29 c 0,5,6
 396 29 396 29 446.5 88 c 128,-1,7
 497 147 497 147 497 267 c 2,8,-1
 497 674 l 1,9,-1
 545 674 l 1,10,-1
 545 271 l 2,11,12
 545 125 545 125 478 57 c 128,-1,13
 411 -11 411 -11 306 -11 c 0,14,15
 259 -11 259 -11 220.5 3.5 c 128,-1,16
 182 18 182 18 149.5 48.5 c 128,-1,17
 117 79 117 79 99 134 c 128,-1,18
 81 189 81 189 81 264 c 2,19,-1
 81 674 l 1,0,-1
189 823 m 1,20,-1
 262 823 l 1,21,-1
 360 710 l 1,22,-1
 320 710 l 1,23,-1
 189 823 l 1,20,-1
EndSplineSet
Position2: "'cpsp' Capital Spacing lookup 0 subtable" dx=10 dy=0 dh=20 dv=0
EndChar

StartChar: Uacute
Encoding: 218 218 154
Width: 626
GlyphClass: 2
Flags: W
LayerCount: 2
Fore
SplineSet
81 674 m 1,0,-1
 129 674 l 1,1,-1
 129 267 l 2,2,3
 129 145 129 145 178.5 87 c 128,-1,4
 228 29 228 29 308 29 c 0,5,6
 396 29 396 29 446.5 88 c 128,-1,7
 497 147 497 147 497 267 c 2,8,-1
 497 674 l 1,9,-1
 545 674 l 1,10,-1
 545 271 l 2,11,12
 545 125 545 125 478 57 c 128,-1,13
 411 -11 411 -11 306 -11 c 0,14,15
 259 -11 259 -11 220.5 3.5 c 128,-1,16
 182 18 182 18 149.5 48.5 c 128,-1,17
 117 79 117 79 99 134 c 128,-1,18
 81 189 81 189 81 264 c 2,19,-1
 81 674 l 1,0,-1
378 823 m 1,20,-1
 451 823 l 1,21,-1
 320 710 l 1,22,-1
 280 710 l 1,23,-1
 378 823 l 1,20,-1
EndSplineSet
Position2: "'cpsp' Capital Spacing lookup 0 subtable" dx=10 dy=0 dh=20 dv=0
EndChar

StartChar: Ucircumflex
Encoding: 219 219 155
Width: 626
GlyphClass: 2
Flags: W
LayerCount: 2
Fore
SplineSet
81 674 m 1,0,-1
 129 674 l 1,1,-1
 129 267 l 2,2,3
 129 145 129 145 178.5 87 c 128,-1,4
 228 29 228 29 308 29 c 0,5,6
 396 29 396 29 446.5 88 c 128,-1,7
 497 147 497 147 497 267 c 2,8,-1
 497 674 l 1,9,-1
 545 674 l 1,10,-1
 545 271 l 2,11,12
 545 125 545 125 478 57 c 128,-1,13
 411 -11 411 -11 306 -11 c 0,14,15
 259 -11 259 -11 220.5 3.5 c 128,-1,16
 182 18 182 18 149.5 48.5 c 128,-1,17
 117 79 117 79 99 134 c 128,-1,18
 81 189 81 189 81 264 c 2,19,-1
 81 674 l 1,0,-1
297 819 m 1,20,-1
 335 819 l 1,21,-1
 442 710 l 1,22,-1
 389 710 l 1,23,-1
 317 784 l 1,24,-1
 315 784 l 1,25,-1
 243 710 l 1,26,-1
 193 710 l 1,27,-1
 297 819 l 1,20,-1
EndSplineSet
Position2: "'cpsp' Capital Spacing lookup 0 subtable" dx=10 dy=0 dh=20 dv=0
EndChar

StartChar: Udieresis
Encoding: 220 220 156
Width: 626
GlyphClass: 2
Flags: W
LayerCount: 2
Fore
SplineSet
81 674 m 1,0,-1
 129 674 l 1,1,-1
 129 267 l 2,2,3
 129 145 129 145 178.5 87 c 128,-1,4
 228 29 228 29 308 29 c 0,5,6
 396 29 396 29 446.5 88 c 128,-1,7
 497 147 497 147 497 267 c 2,8,-1
 497 674 l 1,9,-1
 545 674 l 1,10,-1
 545 271 l 2,11,12
 545 125 545 125 478 57 c 128,-1,13
 411 -11 411 -11 306 -11 c 0,14,15
 259 -11 259 -11 220.5 3.5 c 128,-1,16
 182 18 182 18 149.5 48.5 c 128,-1,17
 117 79 117 79 99 134 c 128,-1,18
 81 189 81 189 81 264 c 2,19,-1
 81 674 l 1,0,-1
227 726 m 2,20,-1
 226 726 l 2,21,22
 210 726 210 726 200 737.5 c 128,-1,23
 190 749 190 749 190 766 c 0,24,25
 190 782 190 782 201 794 c 128,-1,26
 212 806 212 806 227 806 c 0,27,28
 243 806 243 806 253.5 794.5 c 128,-1,29
 264 783 264 783 264 766 c 128,-1,30
 264 749 264 749 254 737.5 c 128,-1,31
 244 726 244 726 227 726 c 2,20,-1
399 726 m 2,32,-1
 398 726 l 2,33,34
 382 726 382 726 372 737.5 c 128,-1,35
 362 749 362 749 362 766 c 0,36,37
 362 782 362 782 373 794 c 128,-1,38
 384 806 384 806 399 806 c 0,39,40
 415 806 415 806 425.5 794.5 c 128,-1,41
 436 783 436 783 436 766 c 128,-1,42
 436 749 436 749 426 737.5 c 128,-1,43
 416 726 416 726 399 726 c 2,32,-1
EndSplineSet
Position2: "'cpsp' Capital Spacing lookup 0 subtable" dx=10 dy=0 dh=20 dv=0
EndChar

StartChar: Yacute
Encoding: 221 221 157
Width: 503
GlyphClass: 2
Flags: W
LayerCount: 2
Fore
SplineSet
277 0 m 1,0,-1
 229 0 l 1,1,-1
 229 292 l 1,2,-1
 15 674 l 1,3,-1
 68 674 l 1,4,-1
 179 473 l 2,5,6
 231 378 231 378 256 328 c 1,7,-1
 258 328 l 1,8,9
 270 356 270 356 336 474 c 2,10,-1
 451 674 l 1,11,-1
 504 674 l 1,12,-1
 277 291 l 1,13,-1
 277 0 l 1,0,-1
321 815 m 1,14,-1
 394 815 l 1,15,-1
 263 702 l 1,16,-1
 223 702 l 1,17,-1
 321 815 l 1,14,-1
EndSplineSet
Position2: "'cpsp' Capital Spacing lookup 0 subtable" dx=10 dy=0 dh=20 dv=0
EndChar

StartChar: Thorn
Encoding: 222 222 158
Width: 501
GlyphClass: 2
Flags: W
LayerCount: 2
Fore
SplineSet
81 0 m 1,0,-1
 81 674 l 1,1,-1
 128 674 l 1,2,-1
 128 536 l 1,3,4
 176 545 176 545 232 545 c 0,5,6
 348 545 348 545 407 489 c 0,7,8
 456 440 456 440 456 369 c 0,9,10
 456 274 456 274 388.5 220 c 128,-1,11
 321 166 321 166 209 166 c 0,12,13
 158 166 158 166 128 172 c 1,14,-1
 128 0 l 1,15,-1
 81 0 l 1,0,-1
128 495 m 1,16,-1
 128 213 l 1,17,18
 160 206 160 206 211 206 c 0,19,20
 304 206 304 206 356 247 c 128,-1,21
 408 288 408 288 408 361 c 128,-1,22
 408 434 408 434 360 469.5 c 128,-1,23
 312 505 312 505 230 505 c 0,24,25
 166 505 166 505 128 495 c 1,16,-1
EndSplineSet
Position2: "'cpsp' Capital Spacing lookup 0 subtable" dx=10 dy=0 dh=20 dv=0
EndChar

StartChar: germandbls
Encoding: 223 223 159
Width: 516
GlyphClass: 2
Flags: W
LayerCount: 2
Fore
SplineSet
129 0 m 1,0,-1
 81 0 l 1,1,-1
 81 465 l 2,2,3
 81 615 81 615 149 678 c 0,4,5
 198 721 198 721 274 721 c 0,6,7
 338 721 338 721 383.5 679.5 c 128,-1,8
 429 638 429 638 429 562 c 0,9,10
 429 517 429 517 407 480 c 1,11,12
 327 448 327 448 327 393 c 0,13,14
 327 373 327 373 336 355 c 128,-1,15
 345 337 345 337 354.5 326.5 c 128,-1,16
 364 316 364 316 388 293 c 0,17,18
 416 265 416 265 430 249 c 128,-1,19
 444 233 444 233 457 203.5 c 128,-1,20
 470 174 470 174 470 141 c 0,21,22
 470 74 470 74 424.5 31.5 c 128,-1,23
 379 -11 379 -11 305 -11 c 0,24,25
 245 -11 245 -11 200 13 c 1,26,-1
 213 53 l 1,27,28
 263 29 263 29 307 29 c 0,29,30
 362 29 362 29 393 59 c 128,-1,31
 424 89 424 89 424 133 c 0,32,33
 424 199 424 199 358 257 c 0,34,35
 318 293 318 293 299.5 321.5 c 128,-1,36
 281 350 281 350 281 385 c 0,37,38
 281 462 281 462 374 507 c 1,39,40
 383 526 383 526 383 555 c 0,41,42
 383 616 383 616 350.5 648.5 c 128,-1,43
 318 681 318 681 265 681 c 0,44,45
 196 681 196 681 162.5 629.5 c 128,-1,46
 129 578 129 578 129 463 c 2,47,-1
 129 0 l 1,0,-1
EndSplineSet
EndChar

StartChar: agrave
Encoding: 224 224 160
Width: 454
GlyphClass: 2
Flags: W
LayerCount: 2
Fore
SplineSet
380 302 m 2,0,-1
 380 114 l 2,1,2
 380 43 380 43 387 0 c 1,3,-1
 343 0 l 1,4,-1
 336 69 l 1,5,-1
 334 69 l 1,6,7
 313 37 313 37 273 13 c 128,-1,8
 233 -11 233 -11 180 -11 c 0,9,10
 112 -11 112 -11 75.5 28.5 c 128,-1,11
 39 68 39 68 39 121 c 0,12,13
 39 206 39 206 113.5 252 c 128,-1,14
 188 298 188 298 332 297 c 1,15,-1
 332 310 l 2,16,17
 332 452 332 452 209 451 c 0,18,19
 138 451 138 451 88 415 c 1,20,-1
 73 450 l 1,21,22
 135 491 135 491 214 491 c 0,23,24
 380 491 380 491 380 302 c 2,0,-1
332 154 m 2,25,-1
 332 257 l 1,26,27
 89 264 89 264 89 129 c 0,28,29
 89 80 89 80 116.5 54.5 c 128,-1,30
 144 29 144 29 185 29 c 0,31,32
 241 29 241 29 277 57 c 128,-1,33
 313 85 313 85 327 125 c 0,34,35
 332 138 332 138 332 154 c 2,25,-1
91 688 m 1,36,-1
 161 688 l 1,37,-1
 250 550 l 1,38,-1
 213 550 l 1,39,-1
 91 688 l 1,36,-1
EndSplineSet
EndChar

StartChar: aacute
Encoding: 225 225 161
Width: 454
GlyphClass: 2
Flags: W
LayerCount: 2
Fore
SplineSet
380 302 m 2,0,-1
 380 114 l 2,1,2
 380 43 380 43 387 0 c 1,3,-1
 343 0 l 1,4,-1
 336 69 l 1,5,-1
 334 69 l 1,6,7
 313 37 313 37 273 13 c 128,-1,8
 233 -11 233 -11 180 -11 c 0,9,10
 112 -11 112 -11 75.5 28.5 c 128,-1,11
 39 68 39 68 39 121 c 0,12,13
 39 206 39 206 113.5 252 c 128,-1,14
 188 298 188 298 332 297 c 1,15,-1
 332 310 l 2,16,17
 332 452 332 452 209 451 c 0,18,19
 138 451 138 451 88 415 c 1,20,-1
 73 450 l 1,21,22
 135 491 135 491 214 491 c 0,23,24
 380 491 380 491 380 302 c 2,0,-1
332 154 m 2,25,-1
 332 257 l 1,26,27
 89 264 89 264 89 129 c 0,28,29
 89 80 89 80 116.5 54.5 c 128,-1,30
 144 29 144 29 185 29 c 0,31,32
 241 29 241 29 277 57 c 128,-1,33
 313 85 313 85 327 125 c 0,34,35
 332 138 332 138 332 154 c 2,25,-1
272 688 m 1,36,-1
 342 688 l 1,37,-1
 220 550 l 1,38,-1
 183 550 l 1,39,-1
 272 688 l 1,36,-1
EndSplineSet
EndChar

StartChar: acircumflex
Encoding: 226 226 162
Width: 454
GlyphClass: 2
Flags: W
LayerCount: 2
Fore
SplineSet
380 302 m 2,0,-1
 380 114 l 2,1,2
 380 43 380 43 387 0 c 1,3,-1
 343 0 l 1,4,-1
 336 69 l 1,5,-1
 334 69 l 1,6,7
 313 37 313 37 273 13 c 128,-1,8
 233 -11 233 -11 180 -11 c 0,9,10
 112 -11 112 -11 75.5 28.5 c 128,-1,11
 39 68 39 68 39 121 c 0,12,13
 39 206 39 206 113.5 252 c 128,-1,14
 188 298 188 298 332 297 c 1,15,-1
 332 310 l 2,16,17
 332 452 332 452 209 451 c 0,18,19
 138 451 138 451 88 415 c 1,20,-1
 73 450 l 1,21,22
 135 491 135 491 214 491 c 0,23,24
 380 491 380 491 380 302 c 2,0,-1
332 154 m 2,25,-1
 332 257 l 1,26,27
 89 264 89 264 89 129 c 0,28,29
 89 80 89 80 116.5 54.5 c 128,-1,30
 144 29 144 29 185 29 c 0,31,32
 241 29 241 29 277 57 c 128,-1,33
 313 85 313 85 327 125 c 0,34,35
 332 138 332 138 332 154 c 2,25,-1
203 688 m 1,36,-1
 238 688 l 1,37,-1
 332 550 l 1,38,-1
 284 550 l 1,39,-1
 222 649 l 1,40,-1
 220 649 l 1,41,-1
 157 550 l 1,42,-1
 112 550 l 1,43,-1
 203 688 l 1,36,-1
EndSplineSet
EndChar

StartChar: atilde
Encoding: 227 227 163
Width: 454
GlyphClass: 2
Flags: W
LayerCount: 2
Fore
SplineSet
380 302 m 2,0,-1
 380 114 l 2,1,2
 380 43 380 43 387 0 c 1,3,-1
 343 0 l 1,4,-1
 336 69 l 1,5,-1
 334 69 l 1,6,7
 313 37 313 37 273 13 c 128,-1,8
 233 -11 233 -11 180 -11 c 0,9,10
 112 -11 112 -11 75.5 28.5 c 128,-1,11
 39 68 39 68 39 121 c 0,12,13
 39 206 39 206 113.5 252 c 128,-1,14
 188 298 188 298 332 297 c 1,15,-1
 332 310 l 2,16,17
 332 452 332 452 209 451 c 0,18,19
 138 451 138 451 88 415 c 1,20,-1
 73 450 l 1,21,22
 135 491 135 491 214 491 c 0,23,24
 380 491 380 491 380 302 c 2,0,-1
332 154 m 2,25,-1
 332 257 l 1,26,27
 89 264 89 264 89 129 c 0,28,29
 89 80 89 80 116.5 54.5 c 128,-1,30
 144 29 144 29 185 29 c 0,31,32
 241 29 241 29 277 57 c 128,-1,33
 313 85 313 85 327 125 c 0,34,35
 332 138 332 138 332 154 c 2,25,-1
150 572 m 1,36,-1
 116 572 l 1,37,38
 115 612 115 612 131.5 636 c 128,-1,39
 148 660 148 660 176 660 c 0,40,41
 190 660 190 660 236 638 c 0,42,43
 264 622 264 622 278 622 c 0,44,45
 303 622 303 622 306 663 c 1,46,-1
 339 663 l 1,47,48
 339 579 339 579 279 579 c 0,49,50
 259 579 259 579 223 599 c 0,51,52
 189 617 189 617 177 617 c 0,53,54
 153 617 153 617 150 572 c 1,36,-1
EndSplineSet
EndChar

StartChar: adieresis
Encoding: 228 228 164
Width: 454
GlyphClass: 2
Flags: W
LayerCount: 2
Fore
SplineSet
380 302 m 2,0,-1
 380 114 l 2,1,2
 380 43 380 43 387 0 c 1,3,-1
 343 0 l 1,4,-1
 336 69 l 1,5,-1
 334 69 l 1,6,7
 313 37 313 37 273 13 c 128,-1,8
 233 -11 233 -11 180 -11 c 0,9,10
 112 -11 112 -11 75.5 28.5 c 128,-1,11
 39 68 39 68 39 121 c 0,12,13
 39 206 39 206 113.5 252 c 128,-1,14
 188 298 188 298 332 297 c 1,15,-1
 332 310 l 2,16,17
 332 452 332 452 209 451 c 0,18,19
 138 451 138 451 88 415 c 1,20,-1
 73 450 l 1,21,22
 135 491 135 491 214 491 c 0,23,24
 380 491 380 491 380 302 c 2,0,-1
332 154 m 2,25,-1
 332 257 l 1,26,27
 89 264 89 264 89 129 c 0,28,29
 89 80 89 80 116.5 54.5 c 128,-1,30
 144 29 144 29 185 29 c 0,31,32
 241 29 241 29 277 57 c 128,-1,33
 313 85 313 85 327 125 c 0,34,35
 332 138 332 138 332 154 c 2,25,-1
143 578 m 2,36,-1
 141 578 l 2,37,38
 125 578 125 578 115 589.5 c 128,-1,39
 105 601 105 601 105 617 c 0,40,41
 105 632 105 632 116.5 644 c 128,-1,42
 128 656 128 656 143 656 c 0,43,44
 159 656 159 656 169.5 644.5 c 128,-1,45
 180 633 180 633 180 617 c 128,-1,46
 180 601 180 601 170 589.5 c 128,-1,47
 160 578 160 578 143 578 c 2,36,-1
312 578 m 2,48,-1
 310 578 l 2,49,50
 294 578 294 578 284 589.5 c 128,-1,51
 274 601 274 601 274 617 c 0,52,53
 274 632 274 632 285.5 644 c 128,-1,54
 297 656 297 656 312 656 c 0,55,56
 328 656 328 656 338.5 644.5 c 128,-1,57
 349 633 349 633 349 617 c 128,-1,58
 349 601 349 601 339 589.5 c 128,-1,59
 329 578 329 578 312 578 c 2,48,-1
EndSplineSet
EndChar

StartChar: aring
Encoding: 229 229 165
Width: 454
GlyphClass: 2
Flags: W
LayerCount: 2
Fore
SplineSet
380 302 m 2,0,-1
 380 114 l 2,1,2
 380 43 380 43 387 0 c 1,3,-1
 343 0 l 1,4,-1
 336 69 l 1,5,-1
 334 69 l 1,6,7
 313 37 313 37 273 13 c 128,-1,8
 233 -11 233 -11 180 -11 c 0,9,10
 112 -11 112 -11 75.5 28.5 c 128,-1,11
 39 68 39 68 39 121 c 0,12,13
 39 206 39 206 113.5 252 c 128,-1,14
 188 298 188 298 332 297 c 1,15,-1
 332 310 l 2,16,17
 332 452 332 452 209 451 c 0,18,19
 138 451 138 451 88 415 c 1,20,-1
 73 450 l 1,21,22
 135 491 135 491 214 491 c 0,23,24
 380 491 380 491 380 302 c 2,0,-1
332 154 m 2,25,-1
 332 257 l 1,26,27
 89 264 89 264 89 129 c 0,28,29
 89 80 89 80 116.5 54.5 c 128,-1,30
 144 29 144 29 185 29 c 0,31,32
 241 29 241 29 277 57 c 128,-1,33
 313 85 313 85 327 125 c 0,34,35
 332 138 332 138 332 154 c 2,25,-1
225 715 m 2,36,-1
 226 715 l 2,37,38
 264 715 264 715 290 689 c 128,-1,39
 316 663 316 663 316 624 c 0,40,41
 316 587 316 587 289 561.5 c 128,-1,42
 262 536 262 536 225 536 c 0,43,44
 185 536 185 536 158.5 561.5 c 128,-1,45
 132 587 132 587 132 624 c 0,46,47
 132 663 132 663 158 689 c 128,-1,48
 184 715 184 715 225 715 c 2,36,-1
224 685 m 2,49,-1
 223 685 l 2,50,51
 200 685 200 685 185.5 667 c 128,-1,52
 171 649 171 649 171 624 c 0,53,54
 171 602 171 602 186.5 584 c 128,-1,55
 202 566 202 566 224 566 c 0,56,57
 248 566 248 566 263.5 583.5 c 128,-1,58
 279 601 279 601 279 626 c 128,-1,59
 279 651 279 651 263.5 668 c 128,-1,60
 248 685 248 685 224 685 c 2,49,-1
EndSplineSet
EndChar

StartChar: ae
Encoding: 230 230 166
Width: 755
GlyphClass: 2
Flags: W
LayerCount: 2
Fore
SplineSet
712 251 m 1,0,-1
 378 251 l 1,1,2
 374 145 374 145 421.5 87.5 c 128,-1,3
 469 30 469 30 547 30 c 0,4,5
 627 30 627 30 675 58 c 1,6,-1
 688 20 l 1,7,8
 628 -11 628 -11 543 -11 c 0,9,10
 478 -11 478 -11 428.5 21 c 128,-1,11
 379 53 379 53 361 109 c 1,12,-1
 359 109 l 1,13,14
 339 52 339 52 291 20.5 c 128,-1,15
 243 -11 243 -11 181 -11 c 0,16,17
 112 -11 112 -11 76 27 c 128,-1,18
 40 65 40 65 40 117 c 0,19,20
 40 200 40 200 115 246.5 c 128,-1,21
 190 293 190 293 333 290 c 1,22,-1
 333 313 l 2,23,24
 333 329 333 329 328.5 348 c 128,-1,25
 324 367 324 367 313 392 c 128,-1,26
 302 417 302 417 275 433.5 c 128,-1,27
 248 450 248 450 209 450 c 0,28,29
 136 450 136 450 89 415 c 1,30,-1
 74 449 l 1,31,32
 137 491 137 491 211 491 c 0,33,34
 338 491 338 491 364 375 c 1,35,-1
 366 375 l 1,36,37
 388 429 388 429 432.5 460 c 128,-1,38
 477 491 477 491 536 491 c 0,39,40
 588 491 588 491 626 467 c 128,-1,41
 664 443 664 443 681.5 406 c 128,-1,42
 699 369 699 369 706.5 338 c 128,-1,43
 714 307 714 307 714 281 c 0,44,45
 714 259 714 259 712 251 c 1,0,-1
333 168 m 2,46,-1
 333 251 l 1,47,48
 89 258 89 258 89 122 c 0,49,50
 89 79 89 79 117 53.5 c 128,-1,51
 145 28 145 28 186 28 c 0,52,53
 242 28 242 28 278.5 57 c 128,-1,54
 315 86 315 86 328 131 c 0,55,56
 333 146 333 146 333 168 c 2,46,-1
379 290 m 1,57,-1
 664 290 l 1,58,59
 666 323 666 323 654.5 358 c 128,-1,60
 643 393 643 393 610.5 422 c 128,-1,61
 578 451 578 451 532 451 c 0,62,63
 462 451 462 451 422.5 400 c 128,-1,64
 383 349 383 349 379 290 c 1,57,-1
EndSplineSet
EndChar

StartChar: ccedilla
Encoding: 231 231 167
Width: 446
GlyphClass: 2
Flags: W
LayerCount: 2
Fore
SplineSet
398 59 m 1,0,-1
 412 21 l 1,1,2
 352 -9 352 -9 277 -10 c 1,3,-1
 248 -54 l 1,4,5
 276 -57 276 -57 296 -75.5 c 128,-1,6
 316 -94 316 -94 316 -121 c 0,7,8
 316 -159 316 -159 289.5 -178.5 c 128,-1,9
 263 -198 263 -198 222 -198 c 0,10,11
 190 -198 190 -198 162 -182 c 1,12,-1
 174 -148 l 1,13,14
 196 -161 196 -161 227 -161 c 0,15,16
 275 -161 275 -161 275 -126 c 0,17,18
 274 -89 274 -89 197 -80 c 1,19,-1
 241 -8 l 1,20,21
 151 1 151 1 96 68 c 128,-1,22
 41 135 41 135 41 235 c 0,23,24
 41 349 41 349 110.5 420 c 128,-1,25
 180 491 180 491 288 491 c 0,26,27
 370 491 370 491 414 461 c 1,28,-1
 397 422 l 1,29,30
 349 450 349 450 283 450 c 0,31,32
 191 450 191 450 140 389.5 c 128,-1,33
 89 329 89 329 89 239 c 0,34,35
 89 145 89 145 142 88 c 128,-1,36
 195 31 195 31 279 31 c 0,37,38
 340 31 340 31 398 59 c 1,0,-1
EndSplineSet
EndChar

StartChar: egrave
Encoding: 232 232 168
Width: 485
GlyphClass: 2
Flags: W
LayerCount: 2
Fore
SplineSet
442 245 m 1,0,-1
 88 245 l 1,1,2
 88 137 88 137 139.5 84 c 128,-1,3
 191 31 191 31 271 31 c 0,4,5
 348 31 348 31 404 58 c 1,6,-1
 416 21 l 1,7,8
 360 -10 360 -10 265 -10 c 0,9,10
 163 -10 163 -10 102 57 c 128,-1,11
 41 124 41 124 41 231 c 0,12,13
 41 349 41 349 101.5 420 c 128,-1,14
 162 491 162 491 257 491 c 0,15,16
 302 491 302 491 336.5 475 c 128,-1,17
 371 459 371 459 391 435 c 128,-1,18
 411 411 411 411 423.5 380 c 128,-1,19
 436 349 436 349 440 323.5 c 128,-1,20
 444 298 444 298 444 274 c 0,21,22
 444 254 444 254 442 245 c 1,0,-1
91 283 m 1,23,-1
 394 283 l 1,24,25
 394 311 394 311 388 338 c 128,-1,26
 382 365 382 365 367 391.5 c 128,-1,27
 352 418 352 418 322 434.5 c 128,-1,28
 292 451 292 451 251 451 c 0,29,30
 179 451 179 451 139 400 c 128,-1,31
 99 349 99 349 91 283 c 1,23,-1
146 688 m 1,32,-1
 216 688 l 1,33,-1
 305 550 l 1,34,-1
 268 550 l 1,35,-1
 146 688 l 1,32,-1
EndSplineSet
EndChar

StartChar: eacute
Encoding: 233 233 169
Width: 485
GlyphClass: 2
Flags: W
LayerCount: 2
Fore
SplineSet
442 245 m 1,0,-1
 88 245 l 1,1,2
 88 137 88 137 139.5 84 c 128,-1,3
 191 31 191 31 271 31 c 0,4,5
 348 31 348 31 404 58 c 1,6,-1
 416 21 l 1,7,8
 360 -10 360 -10 265 -10 c 0,9,10
 163 -10 163 -10 102 57 c 128,-1,11
 41 124 41 124 41 231 c 0,12,13
 41 349 41 349 101.5 420 c 128,-1,14
 162 491 162 491 257 491 c 0,15,16
 302 491 302 491 336.5 475 c 128,-1,17
 371 459 371 459 391 435 c 128,-1,18
 411 411 411 411 423.5 380 c 128,-1,19
 436 349 436 349 440 323.5 c 128,-1,20
 444 298 444 298 444 274 c 0,21,22
 444 254 444 254 442 245 c 1,0,-1
91 283 m 1,23,-1
 394 283 l 1,24,25
 394 311 394 311 388 338 c 128,-1,26
 382 365 382 365 367 391.5 c 128,-1,27
 352 418 352 418 322 434.5 c 128,-1,28
 292 451 292 451 251 451 c 0,29,30
 179 451 179 451 139 400 c 128,-1,31
 99 349 99 349 91 283 c 1,23,-1
307 688 m 1,32,-1
 377 688 l 1,33,-1
 255 550 l 1,34,-1
 218 550 l 1,35,-1
 307 688 l 1,32,-1
EndSplineSet
EndChar

StartChar: ecircumflex
Encoding: 234 234 170
Width: 485
GlyphClass: 2
Flags: W
LayerCount: 2
Fore
SplineSet
442 245 m 1,0,-1
 88 245 l 1,1,2
 88 137 88 137 139.5 84 c 128,-1,3
 191 31 191 31 271 31 c 0,4,5
 348 31 348 31 404 58 c 1,6,-1
 416 21 l 1,7,8
 360 -10 360 -10 265 -10 c 0,9,10
 163 -10 163 -10 102 57 c 128,-1,11
 41 124 41 124 41 231 c 0,12,13
 41 349 41 349 101.5 420 c 128,-1,14
 162 491 162 491 257 491 c 0,15,16
 302 491 302 491 336.5 475 c 128,-1,17
 371 459 371 459 391 435 c 128,-1,18
 411 411 411 411 423.5 380 c 128,-1,19
 436 349 436 349 440 323.5 c 128,-1,20
 444 298 444 298 444 274 c 0,21,22
 444 254 444 254 442 245 c 1,0,-1
91 283 m 1,23,-1
 394 283 l 1,24,25
 394 311 394 311 388 338 c 128,-1,26
 382 365 382 365 367 391.5 c 128,-1,27
 352 418 352 418 322 434.5 c 128,-1,28
 292 451 292 451 251 451 c 0,29,30
 179 451 179 451 139 400 c 128,-1,31
 99 349 99 349 91 283 c 1,23,-1
238 688 m 1,32,-1
 273 688 l 1,33,-1
 367 550 l 1,34,-1
 319 550 l 1,35,-1
 257 649 l 1,36,-1
 255 649 l 1,37,-1
 192 550 l 1,38,-1
 147 550 l 1,39,-1
 238 688 l 1,32,-1
EndSplineSet
EndChar

StartChar: edieresis
Encoding: 235 235 171
Width: 485
GlyphClass: 2
Flags: W
LayerCount: 2
Fore
SplineSet
442 245 m 1,0,-1
 88 245 l 1,1,2
 88 137 88 137 139.5 84 c 128,-1,3
 191 31 191 31 271 31 c 0,4,5
 348 31 348 31 404 58 c 1,6,-1
 416 21 l 1,7,8
 360 -10 360 -10 265 -10 c 0,9,10
 163 -10 163 -10 102 57 c 128,-1,11
 41 124 41 124 41 231 c 0,12,13
 41 349 41 349 101.5 420 c 128,-1,14
 162 491 162 491 257 491 c 0,15,16
 302 491 302 491 336.5 475 c 128,-1,17
 371 459 371 459 391 435 c 128,-1,18
 411 411 411 411 423.5 380 c 128,-1,19
 436 349 436 349 440 323.5 c 128,-1,20
 444 298 444 298 444 274 c 0,21,22
 444 254 444 254 442 245 c 1,0,-1
91 283 m 1,23,-1
 394 283 l 1,24,25
 394 311 394 311 388 338 c 128,-1,26
 382 365 382 365 367 391.5 c 128,-1,27
 352 418 352 418 322 434.5 c 128,-1,28
 292 451 292 451 251 451 c 0,29,30
 179 451 179 451 139 400 c 128,-1,31
 99 349 99 349 91 283 c 1,23,-1
178 578 m 2,32,-1
 176 578 l 2,33,34
 160 578 160 578 150 589.5 c 128,-1,35
 140 601 140 601 140 617 c 0,36,37
 140 632 140 632 151.5 644 c 128,-1,38
 163 656 163 656 178 656 c 0,39,40
 194 656 194 656 204.5 644.5 c 128,-1,41
 215 633 215 633 215 617 c 128,-1,42
 215 601 215 601 205 589.5 c 128,-1,43
 195 578 195 578 178 578 c 2,32,-1
347 578 m 2,44,-1
 345 578 l 2,45,46
 329 578 329 578 319 589.5 c 128,-1,47
 309 601 309 601 309 617 c 0,48,49
 309 632 309 632 320.5 644 c 128,-1,50
 332 656 332 656 347 656 c 0,51,52
 363 656 363 656 373.5 644.5 c 128,-1,53
 384 633 384 633 384 617 c 128,-1,54
 384 601 384 601 374 589.5 c 128,-1,55
 364 578 364 578 347 578 c 2,44,-1
EndSplineSet
EndChar

StartChar: igrave
Encoding: 236 236 172
Width: 209
GlyphClass: 2
Flags: W
LayerCount: 2
Fore
SplineSet
129 0 m 1,0,-1
 81 0 l 1,1,-1
 81 480 l 1,2,-1
 129 480 l 1,3,-1
 129 0 l 1,0,-1
-27 688 m 1,4,-1
 43 688 l 1,5,-1
 132 550 l 1,6,-1
 95 550 l 1,7,-1
 -27 688 l 1,4,-1
EndSplineSet
EndChar

StartChar: iacute
Encoding: 237 237 173
Width: 209
GlyphClass: 2
Flags: W
LayerCount: 2
Fore
SplineSet
129 0 m 1,0,-1
 81 0 l 1,1,-1
 81 480 l 1,2,-1
 129 480 l 1,3,-1
 129 0 l 1,0,-1
152 688 m 1,4,-1
 222 688 l 1,5,-1
 100 550 l 1,6,-1
 63 550 l 1,7,-1
 152 688 l 1,4,-1
EndSplineSet
EndChar

StartChar: icircumflex
Encoding: 238 238 174
Width: 209
GlyphClass: 2
Flags: W
LayerCount: 2
Fore
SplineSet
129 0 m 1,0,-1
 81 0 l 1,1,-1
 81 480 l 1,2,-1
 129 480 l 1,3,-1
 129 0 l 1,0,-1
86 688 m 1,4,-1
 121 688 l 1,5,-1
 215 550 l 1,6,-1
 167 550 l 1,7,-1
 105 649 l 1,8,-1
 103 649 l 1,9,-1
 40 550 l 1,10,-1
 -5 550 l 1,11,-1
 86 688 l 1,4,-1
EndSplineSet
EndChar

StartChar: idieresis
Encoding: 239 239 175
Width: 209
GlyphClass: 2
Flags: W
LayerCount: 2
Fore
SplineSet
129 0 m 1,0,-1
 81 0 l 1,1,-1
 81 480 l 1,2,-1
 129 480 l 1,3,-1
 129 0 l 1,0,-1
21 578 m 2,4,-1
 19 578 l 2,5,6
 3 578 3 578 -7 589.5 c 128,-1,7
 -17 601 -17 601 -17 617 c 0,8,9
 -17 632 -17 632 -5.5 644 c 128,-1,10
 6 656 6 656 21 656 c 0,11,12
 37 656 37 656 47.5 644.5 c 128,-1,13
 58 633 58 633 58 617 c 128,-1,14
 58 601 58 601 48 589.5 c 128,-1,15
 38 578 38 578 21 578 c 2,4,-1
190 578 m 2,16,-1
 188 578 l 2,17,18
 172 578 172 578 162 589.5 c 128,-1,19
 152 601 152 601 152 617 c 0,20,21
 152 632 152 632 163.5 644 c 128,-1,22
 175 656 175 656 190 656 c 0,23,24
 206 656 206 656 216.5 644.5 c 128,-1,25
 227 633 227 633 227 617 c 128,-1,26
 227 601 227 601 217 589.5 c 128,-1,27
 207 578 207 578 190 578 c 2,16,-1
EndSplineSet
EndChar

StartChar: eth
Encoding: 240 240 176
Width: 521
GlyphClass: 2
Flags: W
LayerCount: 2
Fore
SplineSet
255 29 m 2,0,-1
 256 29 l 2,1,2
 332 29 332 29 380 89 c 128,-1,3
 428 149 428 149 428 243 c 0,4,5
 428 346 428 346 387 395 c 0,6,7
 337 451 337 451 259 451 c 0,8,9
 202 451 202 451 162 415.5 c 128,-1,10
 122 380 122 380 105.5 333.5 c 128,-1,11
 89 287 89 287 89 237 c 0,12,13
 89 149 89 149 137.5 89 c 128,-1,14
 186 29 186 29 255 29 c 2,0,-1
121 525 m 1,15,-1
 107 558 l 1,16,-1
 230 618 l 1,17,18
 186 653 186 653 119 685 c 1,19,-1
 141 721 l 1,20,21
 215 683 215 683 271 640 c 1,22,-1
 393 701 l 1,23,-1
 409 667 l 1,24,-1
 302 614 l 1,25,26
 389 542 389 542 433 449 c 0,27,28
 477 361 477 361 477 250 c 0,29,30
 477 121 477 121 411 55 c 128,-1,31
 345 -11 345 -11 255 -11 c 0,32,33
 161 -11 161 -11 101 56.5 c 128,-1,34
 41 124 41 124 41 235 c 0,35,36
 41 351 41 351 106.5 421 c 128,-1,37
 172 491 172 491 258 491 c 0,38,39
 340 491 340 491 397 433 c 1,40,-1
 399 436 l 1,41,42
 352 521 352 521 263 594 c 1,43,-1
 121 525 l 1,15,-1
EndSplineSet
EndChar

StartChar: ntilde
Encoding: 241 241 177
Width: 536
GlyphClass: 2
Flags: W
LayerCount: 2
Fore
SplineSet
81 0 m 1,0,-1
 81 365 l 2,1,2
 81 429 81 429 77 480 c 1,3,-1
 122 480 l 1,4,-1
 125 394 l 1,5,-1
 127 394 l 1,6,7
 147 436 147 436 191.5 463.5 c 128,-1,8
 236 491 236 491 292 491 c 0,9,10
 309 491 309 491 327.5 487.5 c 128,-1,11
 346 484 346 484 371 471 c 128,-1,12
 396 458 396 458 414.5 437.5 c 128,-1,13
 433 417 433 417 446.5 378 c 128,-1,14
 460 339 460 339 460 288 c 2,15,-1
 460 0 l 1,16,-1
 412 0 l 1,17,-1
 412 284 l 2,18,19
 412 357 412 357 380 404 c 128,-1,20
 348 451 348 451 279 451 c 0,21,22
 229 451 229 451 189 419.5 c 128,-1,23
 149 388 149 388 135 340 c 0,24,25
 129 318 129 318 129 298 c 2,26,-1
 129 0 l 1,27,-1
 81 0 l 1,0,-1
191 572 m 1,28,-1
 157 572 l 1,29,30
 156 612 156 612 172.5 636 c 128,-1,31
 189 660 189 660 217 660 c 0,32,33
 231 660 231 660 277 638 c 0,34,35
 305 622 305 622 319 622 c 0,36,37
 344 622 344 622 347 663 c 1,38,-1
 380 663 l 1,39,40
 380 579 380 579 320 579 c 0,41,42
 300 579 300 579 264 599 c 0,43,44
 230 617 230 617 218 617 c 0,45,46
 194 617 194 617 191 572 c 1,28,-1
EndSplineSet
EndChar

StartChar: ograve
Encoding: 242 242 178
Width: 532
GlyphClass: 2
Flags: W
LayerCount: 2
Fore
SplineSet
262 -11 m 2,0,-1
 261 -11 l 2,1,2
 166 -11 166 -11 103.5 57 c 128,-1,3
 41 125 41 125 41 236 c 0,4,5
 41 354 41 354 107.5 422.5 c 128,-1,6
 174 491 174 491 268 491 c 0,7,8
 368 491 368 491 429.5 422.5 c 128,-1,9
 491 354 491 354 491 244 c 0,10,11
 491 180 491 180 470.5 129.5 c 128,-1,12
 450 79 450 79 416 49.5 c 128,-1,13
 382 20 382 20 342.5 4.5 c 128,-1,14
 303 -11 303 -11 262 -11 c 2,0,-1
263 29 m 2,15,-1
 264 29 l 2,16,17
 340 29 340 29 391.5 89.5 c 128,-1,18
 443 150 443 150 443 242 c 0,19,20
 443 277 443 277 433 312 c 128,-1,21
 423 347 423 347 403 379 c 128,-1,22
 383 411 383 411 347.5 431 c 128,-1,23
 312 451 312 451 267 451 c 0,24,25
 181 451 181 451 135 388 c 128,-1,26
 89 325 89 325 89 239 c 0,27,28
 89 149 89 149 139 89 c 128,-1,29
 189 29 189 29 263 29 c 2,15,-1
153 688 m 1,30,-1
 223 688 l 1,31,-1
 312 550 l 1,32,-1
 275 550 l 1,33,-1
 153 688 l 1,30,-1
EndSplineSet
EndChar

StartChar: oacute
Encoding: 243 243 179
Width: 532
GlyphClass: 2
Flags: W
LayerCount: 2
Fore
SplineSet
262 -11 m 2,0,-1
 261 -11 l 2,1,2
 166 -11 166 -11 103.5 57 c 128,-1,3
 41 125 41 125 41 236 c 0,4,5
 41 354 41 354 107.5 422.5 c 128,-1,6
 174 491 174 491 268 491 c 0,7,8
 368 491 368 491 429.5 422.5 c 128,-1,9
 491 354 491 354 491 244 c 0,10,11
 491 180 491 180 470.5 129.5 c 128,-1,12
 450 79 450 79 416 49.5 c 128,-1,13
 382 20 382 20 342.5 4.5 c 128,-1,14
 303 -11 303 -11 262 -11 c 2,0,-1
263 29 m 2,15,-1
 264 29 l 2,16,17
 340 29 340 29 391.5 89.5 c 128,-1,18
 443 150 443 150 443 242 c 0,19,20
 443 277 443 277 433 312 c 128,-1,21
 423 347 423 347 403 379 c 128,-1,22
 383 411 383 411 347.5 431 c 128,-1,23
 312 451 312 451 267 451 c 0,24,25
 181 451 181 451 135 388 c 128,-1,26
 89 325 89 325 89 239 c 0,27,28
 89 149 89 149 139 89 c 128,-1,29
 189 29 189 29 263 29 c 2,15,-1
311 688 m 1,30,-1
 381 688 l 1,31,-1
 259 550 l 1,32,-1
 222 550 l 1,33,-1
 311 688 l 1,30,-1
EndSplineSet
EndChar

StartChar: ocircumflex
Encoding: 244 244 180
Width: 532
GlyphClass: 2
Flags: W
LayerCount: 2
Fore
SplineSet
262 -11 m 2,0,-1
 261 -11 l 2,1,2
 166 -11 166 -11 103.5 57 c 128,-1,3
 41 125 41 125 41 236 c 0,4,5
 41 354 41 354 107.5 422.5 c 128,-1,6
 174 491 174 491 268 491 c 0,7,8
 368 491 368 491 429.5 422.5 c 128,-1,9
 491 354 491 354 491 244 c 0,10,11
 491 180 491 180 470.5 129.5 c 128,-1,12
 450 79 450 79 416 49.5 c 128,-1,13
 382 20 382 20 342.5 4.5 c 128,-1,14
 303 -11 303 -11 262 -11 c 2,0,-1
263 29 m 2,15,-1
 264 29 l 2,16,17
 340 29 340 29 391.5 89.5 c 128,-1,18
 443 150 443 150 443 242 c 0,19,20
 443 277 443 277 433 312 c 128,-1,21
 423 347 423 347 403 379 c 128,-1,22
 383 411 383 411 347.5 431 c 128,-1,23
 312 451 312 451 267 451 c 0,24,25
 181 451 181 451 135 388 c 128,-1,26
 89 325 89 325 89 239 c 0,27,28
 89 149 89 149 139 89 c 128,-1,29
 189 29 189 29 263 29 c 2,15,-1
247 688 m 1,30,-1
 282 688 l 1,31,-1
 376 550 l 1,32,-1
 328 550 l 1,33,-1
 266 649 l 1,34,-1
 264 649 l 1,35,-1
 201 550 l 1,36,-1
 156 550 l 1,37,-1
 247 688 l 1,30,-1
EndSplineSet
EndChar

StartChar: otilde
Encoding: 245 245 181
Width: 532
GlyphClass: 2
Flags: W
LayerCount: 2
Fore
SplineSet
262 -11 m 2,0,-1
 261 -11 l 2,1,2
 166 -11 166 -11 103.5 57 c 128,-1,3
 41 125 41 125 41 236 c 0,4,5
 41 354 41 354 107.5 422.5 c 128,-1,6
 174 491 174 491 268 491 c 0,7,8
 368 491 368 491 429.5 422.5 c 128,-1,9
 491 354 491 354 491 244 c 0,10,11
 491 180 491 180 470.5 129.5 c 128,-1,12
 450 79 450 79 416 49.5 c 128,-1,13
 382 20 382 20 342.5 4.5 c 128,-1,14
 303 -11 303 -11 262 -11 c 2,0,-1
263 29 m 2,15,-1
 264 29 l 2,16,17
 340 29 340 29 391.5 89.5 c 128,-1,18
 443 150 443 150 443 242 c 0,19,20
 443 277 443 277 433 312 c 128,-1,21
 423 347 423 347 403 379 c 128,-1,22
 383 411 383 411 347.5 431 c 128,-1,23
 312 451 312 451 267 451 c 0,24,25
 181 451 181 451 135 388 c 128,-1,26
 89 325 89 325 89 239 c 0,27,28
 89 149 89 149 139 89 c 128,-1,29
 189 29 189 29 263 29 c 2,15,-1
189 572 m 1,30,-1
 155 572 l 1,31,32
 154 612 154 612 170.5 636 c 128,-1,33
 187 660 187 660 215 660 c 0,34,35
 229 660 229 660 275 638 c 0,36,37
 303 622 303 622 317 622 c 0,38,39
 342 622 342 622 345 663 c 1,40,-1
 378 663 l 1,41,42
 378 579 378 579 318 579 c 0,43,44
 298 579 298 579 262 599 c 0,45,46
 228 617 228 617 216 617 c 0,47,48
 192 617 192 617 189 572 c 1,30,-1
EndSplineSet
EndChar

StartChar: odieresis
Encoding: 246 246 182
Width: 532
GlyphClass: 2
Flags: W
LayerCount: 2
Fore
SplineSet
262 -11 m 2,0,-1
 261 -11 l 2,1,2
 166 -11 166 -11 103.5 57 c 128,-1,3
 41 125 41 125 41 236 c 0,4,5
 41 354 41 354 107.5 422.5 c 128,-1,6
 174 491 174 491 268 491 c 0,7,8
 368 491 368 491 429.5 422.5 c 128,-1,9
 491 354 491 354 491 244 c 0,10,11
 491 180 491 180 470.5 129.5 c 128,-1,12
 450 79 450 79 416 49.5 c 128,-1,13
 382 20 382 20 342.5 4.5 c 128,-1,14
 303 -11 303 -11 262 -11 c 2,0,-1
263 29 m 2,15,-1
 264 29 l 2,16,17
 340 29 340 29 391.5 89.5 c 128,-1,18
 443 150 443 150 443 242 c 0,19,20
 443 277 443 277 433 312 c 128,-1,21
 423 347 423 347 403 379 c 128,-1,22
 383 411 383 411 347.5 431 c 128,-1,23
 312 451 312 451 267 451 c 0,24,25
 181 451 181 451 135 388 c 128,-1,26
 89 325 89 325 89 239 c 0,27,28
 89 149 89 149 139 89 c 128,-1,29
 189 29 189 29 263 29 c 2,15,-1
182 578 m 2,30,-1
 180 578 l 2,31,32
 164 578 164 578 154 589.5 c 128,-1,33
 144 601 144 601 144 617 c 0,34,35
 144 632 144 632 155.5 644 c 128,-1,36
 167 656 167 656 182 656 c 0,37,38
 198 656 198 656 208.5 644.5 c 128,-1,39
 219 633 219 633 219 617 c 128,-1,40
 219 601 219 601 209 589.5 c 128,-1,41
 199 578 199 578 182 578 c 2,30,-1
351 578 m 2,42,-1
 349 578 l 2,43,44
 333 578 333 578 323 589.5 c 128,-1,45
 313 601 313 601 313 617 c 0,46,47
 313 632 313 632 324.5 644 c 128,-1,48
 336 656 336 656 351 656 c 0,49,50
 367 656 367 656 377.5 644.5 c 128,-1,51
 388 633 388 633 388 617 c 128,-1,52
 388 601 388 601 378 589.5 c 128,-1,53
 368 578 368 578 351 578 c 2,42,-1
EndSplineSet
EndChar

StartChar: divide
Encoding: 247 247 183
Width: 596
GlyphClass: 2
Flags: W
LayerCount: 2
Fore
SplineSet
298 399 m 2,0,-1
 297 399 l 2,1,2
 279 399 279 399 267.5 412 c 128,-1,3
 256 425 256 425 257 443 c 0,4,5
 257 463 257 463 268.5 475.5 c 128,-1,6
 280 488 280 488 298 488 c 0,7,8
 317 488 317 488 328 475.5 c 128,-1,9
 339 463 339 463 339 443 c 0,10,11
 339 424 339 424 327.5 411.5 c 128,-1,12
 316 399 316 399 298 399 c 2,0,-1
556 248 m 1,13,-1
 40 248 l 1,14,-1
 40 288 l 1,15,-1
 556 288 l 1,16,-1
 556 248 l 1,13,-1
298 48 m 2,17,-1
 297 48 l 2,18,19
 279 48 279 48 267.5 61 c 128,-1,20
 256 74 256 74 257 92 c 0,21,22
 257 112 257 112 268.5 124.5 c 128,-1,23
 280 137 280 137 298 137 c 0,24,25
 317 137 317 137 328 124.5 c 128,-1,26
 339 112 339 112 339 92 c 0,27,28
 339 73 339 73 327.5 60.5 c 128,-1,29
 316 48 316 48 298 48 c 2,17,-1
EndSplineSet
EndChar

StartChar: oslash
Encoding: 248 248 184
Width: 532
GlyphClass: 2
Flags: W
LayerCount: 2
Fore
SplineSet
268 491 m 2,0,-1
 269 491 l 2,1,2
 339 491 339 491 394 452 c 1,3,-1
 433 506 l 1,4,-1
 464 486 l 1,5,-1
 423 427 l 1,6,7
 491 356 491 356 491 246 c 0,8,9
 491 121 491 121 423 55 c 128,-1,10
 355 -11 355 -11 266 -11 c 0,11,12
 191 -11 191 -11 138 29 c 1,13,-1
 97 -27 l 1,14,-1
 69 -3 l 1,15,-1
 109 54 l 1,16,17
 41 124 41 124 41 236 c 0,18,19
 41 354 41 354 107 422.5 c 128,-1,20
 173 491 173 491 268 491 c 2,0,-1
137 91 m 1,21,-1
 370 415 l 1,22,23
 330 451 330 451 266 451 c 0,24,25
 179 451 179 451 134 387 c 128,-1,26
 89 323 89 323 89 239 c 0,27,28
 89 152 89 152 135 91 c 1,29,-1
 137 91 l 1,21,-1
395 387 m 1,30,-1
 163 63 l 1,31,32
 204 29 204 29 262 29 c 0,33,34
 342 29 342 29 392.5 90 c 128,-1,35
 443 151 443 151 443 243 c 0,36,37
 443 325 443 325 397 387 c 1,38,-1
 395 387 l 1,30,-1
EndSplineSet
EndChar

StartChar: ugrave
Encoding: 249 249 185
Width: 531
GlyphClass: 2
Flags: W
LayerCount: 2
Fore
SplineSet
451 480 m 1,0,-1
 451 117 l 2,1,2
 451 49 451 49 455 0 c 1,3,-1
 410 0 l 1,4,-1
 407 86 l 1,5,-1
 405 86 l 1,6,7
 384 47 384 47 341.5 18 c 128,-1,8
 299 -11 299 -11 241 -11 c 0,9,10
 214 -11 214 -11 189 -2.5 c 128,-1,11
 164 6 164 6 137 26.5 c 128,-1,12
 110 47 110 47 93.5 92 c 128,-1,13
 77 137 77 137 77 201 c 2,14,-1
 77 480 l 1,15,-1
 125 480 l 1,16,-1
 125 210 l 2,17,18
 125 31 125 31 252 31 c 0,19,20
 301 31 301 31 339 59.5 c 128,-1,21
 377 88 377 88 394 128 c 0,22,23
 403 155 403 155 403 181 c 2,24,-1
 403 480 l 1,25,-1
 451 480 l 1,0,-1
146 688 m 1,26,-1
 216 688 l 1,27,-1
 305 550 l 1,28,-1
 268 550 l 1,29,-1
 146 688 l 1,26,-1
EndSplineSet
EndChar

StartChar: uacute
Encoding: 250 250 186
Width: 531
GlyphClass: 2
Flags: W
LayerCount: 2
Fore
SplineSet
451 480 m 1,0,-1
 451 117 l 2,1,2
 451 49 451 49 455 0 c 1,3,-1
 410 0 l 1,4,-1
 407 86 l 1,5,-1
 405 86 l 1,6,7
 384 47 384 47 341.5 18 c 128,-1,8
 299 -11 299 -11 241 -11 c 0,9,10
 214 -11 214 -11 189 -2.5 c 128,-1,11
 164 6 164 6 137 26.5 c 128,-1,12
 110 47 110 47 93.5 92 c 128,-1,13
 77 137 77 137 77 201 c 2,14,-1
 77 480 l 1,15,-1
 125 480 l 1,16,-1
 125 210 l 2,17,18
 125 31 125 31 252 31 c 0,19,20
 301 31 301 31 339 59.5 c 128,-1,21
 377 88 377 88 394 128 c 0,22,23
 403 155 403 155 403 181 c 2,24,-1
 403 480 l 1,25,-1
 451 480 l 1,0,-1
325 688 m 1,26,-1
 395 688 l 1,27,-1
 273 550 l 1,28,-1
 236 550 l 1,29,-1
 325 688 l 1,26,-1
EndSplineSet
EndChar

StartChar: ucircumflex
Encoding: 251 251 187
Width: 531
GlyphClass: 2
Flags: W
LayerCount: 2
Fore
SplineSet
451 480 m 1,0,-1
 451 117 l 2,1,2
 451 49 451 49 455 0 c 1,3,-1
 410 0 l 1,4,-1
 407 86 l 1,5,-1
 405 86 l 1,6,7
 384 47 384 47 341.5 18 c 128,-1,8
 299 -11 299 -11 241 -11 c 0,9,10
 214 -11 214 -11 189 -2.5 c 128,-1,11
 164 6 164 6 137 26.5 c 128,-1,12
 110 47 110 47 93.5 92 c 128,-1,13
 77 137 77 137 77 201 c 2,14,-1
 77 480 l 1,15,-1
 125 480 l 1,16,-1
 125 210 l 2,17,18
 125 31 125 31 252 31 c 0,19,20
 301 31 301 31 339 59.5 c 128,-1,21
 377 88 377 88 394 128 c 0,22,23
 403 155 403 155 403 181 c 2,24,-1
 403 480 l 1,25,-1
 451 480 l 1,0,-1
247 688 m 1,26,-1
 282 688 l 1,27,-1
 376 550 l 1,28,-1
 328 550 l 1,29,-1
 266 649 l 1,30,-1
 264 649 l 1,31,-1
 201 550 l 1,32,-1
 156 550 l 1,33,-1
 247 688 l 1,26,-1
EndSplineSet
EndChar

StartChar: udieresis
Encoding: 252 252 188
Width: 531
GlyphClass: 2
Flags: W
LayerCount: 2
Fore
SplineSet
451 480 m 1,0,-1
 451 117 l 2,1,2
 451 49 451 49 455 0 c 1,3,-1
 410 0 l 1,4,-1
 407 86 l 1,5,-1
 405 86 l 1,6,7
 384 47 384 47 341.5 18 c 128,-1,8
 299 -11 299 -11 241 -11 c 0,9,10
 214 -11 214 -11 189 -2.5 c 128,-1,11
 164 6 164 6 137 26.5 c 128,-1,12
 110 47 110 47 93.5 92 c 128,-1,13
 77 137 77 137 77 201 c 2,14,-1
 77 480 l 1,15,-1
 125 480 l 1,16,-1
 125 210 l 2,17,18
 125 31 125 31 252 31 c 0,19,20
 301 31 301 31 339 59.5 c 128,-1,21
 377 88 377 88 394 128 c 0,22,23
 403 155 403 155 403 181 c 2,24,-1
 403 480 l 1,25,-1
 451 480 l 1,0,-1
185 578 m 2,26,-1
 183 578 l 2,27,28
 167 578 167 578 157 589.5 c 128,-1,29
 147 601 147 601 147 617 c 0,30,31
 147 632 147 632 158.5 644 c 128,-1,32
 170 656 170 656 185 656 c 0,33,34
 201 656 201 656 211.5 644.5 c 128,-1,35
 222 633 222 633 222 617 c 128,-1,36
 222 601 222 601 212 589.5 c 128,-1,37
 202 578 202 578 185 578 c 2,26,-1
354 578 m 2,38,-1
 352 578 l 2,39,40
 336 578 336 578 326 589.5 c 128,-1,41
 316 601 316 601 316 617 c 0,42,43
 316 632 316 632 327.5 644 c 128,-1,44
 339 656 339 656 354 656 c 0,45,46
 370 656 370 656 380.5 644.5 c 128,-1,47
 391 633 391 633 391 617 c 128,-1,48
 391 601 391 601 381 589.5 c 128,-1,49
 371 578 371 578 354 578 c 2,38,-1
EndSplineSet
EndChar

StartChar: yacute
Encoding: 253 253 189
Width: 440
GlyphClass: 2
Flags: W
LayerCount: 2
Fore
SplineSet
11 480 m 1,0,-1
 62 480 l 1,1,-1
 188 166 l 2,2,3
 207 116 207 116 223 63 c 1,4,-1
 225 63 l 1,5,6
 258 158 258 158 262 169 c 2,7,-1
 379 480 l 1,8,-1
 430 480 l 1,9,-1
 286 122 l 2,10,11
 238 -1 238 -1 203 -66.5 c 128,-1,12
 168 -132 168 -132 124 -171 c 0,13,14
 83 -205 83 -205 40 -221 c 1,15,-1
 25 -181 l 1,16,17
 70 -164 70 -164 109 -128 c 0,18,19
 159 -78 159 -78 189 -7 c 0,20,21
 195 8 195 8 195 14 c 128,-1,22
 195 20 195 20 189 35 c 2,23,-1
 11 480 l 1,0,-1
278 688 m 1,24,-1
 348 688 l 1,25,-1
 226 550 l 1,26,-1
 189 550 l 1,27,-1
 278 688 l 1,24,-1
EndSplineSet
EndChar

StartChar: thorn
Encoding: 254 254 190
Width: 552
GlyphClass: 2
Flags: W
LayerCount: 2
Fore
SplineSet
80 665 m 1,0,-1
 128 665 l 1,1,-1
 128 394 l 1,2,-1
 130 394 l 1,3,4
 187 491 187 491 306 491 c 0,5,6
 396 491 396 491 453.5 423 c 128,-1,7
 511 355 511 355 511 248 c 0,8,9
 511 124 511 124 447 56.5 c 128,-1,10
 383 -11 383 -11 291 -11 c 0,11,12
 184 -11 184 -11 130 77 c 1,13,-1
 128 77 l 1,14,-1
 128 -198 l 1,15,-1
 80 -198 l 1,16,-1
 80 665 l 1,0,-1
128 278 m 2,17,-1
 128 186 l 2,18,19
 128 162 128 162 134 143 c 0,20,21
 150 90 150 90 194 59.5 c 128,-1,22
 238 29 238 29 294 29 c 0,23,24
 370 29 370 29 416.5 88 c 128,-1,25
 463 147 463 147 463 247 c 0,26,27
 463 332 463 332 417 391.5 c 128,-1,28
 371 451 371 451 294 451 c 0,29,30
 243 451 243 451 199 418.5 c 128,-1,31
 155 386 155 386 137 332 c 0,32,33
 128 303 128 303 128 278 c 2,17,-1
EndSplineSet
EndChar

StartChar: ydieresis
Encoding: 255 255 191
Width: 440
GlyphClass: 2
Flags: W
LayerCount: 2
Fore
SplineSet
11 480 m 1,0,-1
 62 480 l 1,1,-1
 188 166 l 2,2,3
 207 116 207 116 223 63 c 1,4,-1
 225 63 l 1,5,6
 258 158 258 158 262 169 c 2,7,-1
 379 480 l 1,8,-1
 430 480 l 1,9,-1
 286 122 l 2,10,11
 238 -1 238 -1 203 -66.5 c 128,-1,12
 168 -132 168 -132 124 -171 c 0,13,14
 83 -205 83 -205 40 -221 c 1,15,-1
 25 -181 l 1,16,17
 70 -164 70 -164 109 -128 c 0,18,19
 159 -78 159 -78 189 -7 c 0,20,21
 195 8 195 8 195 14 c 128,-1,22
 195 20 195 20 189 35 c 2,23,-1
 11 480 l 1,0,-1
148 578 m 2,24,-1
 146 578 l 2,25,26
 130 578 130 578 120 589.5 c 128,-1,27
 110 601 110 601 110 617 c 0,28,29
 110 632 110 632 121.5 644 c 128,-1,30
 133 656 133 656 148 656 c 0,31,32
 164 656 164 656 174.5 644.5 c 128,-1,33
 185 633 185 633 185 617 c 128,-1,34
 185 601 185 601 175 589.5 c 128,-1,35
 165 578 165 578 148 578 c 2,24,-1
317 578 m 2,36,-1
 315 578 l 2,37,38
 299 578 299 578 289 589.5 c 128,-1,39
 279 601 279 601 279 617 c 0,40,41
 279 632 279 632 290.5 644 c 128,-1,42
 302 656 302 656 317 656 c 0,43,44
 333 656 333 656 343.5 644.5 c 128,-1,45
 354 633 354 633 354 617 c 128,-1,46
 354 601 354 601 344 589.5 c 128,-1,47
 334 578 334 578 317 578 c 2,36,-1
EndSplineSet
EndChar

StartChar: Amacron
Encoding: 256 256 192
Width: 585
GlyphClass: 2
Flags: W
LayerCount: 2
Fore
SplineSet
429 236 m 1,0,-1
 162 236 l 1,1,-1
 79 0 l 1,2,-1
 30 0 l 1,3,-1
 274 674 l 1,4,-1
 320 674 l 1,5,-1
 563 0 l 1,6,-1
 514 0 l 1,7,-1
 429 236 l 1,0,-1
177 276 m 1,8,-1
 414 276 l 1,9,-1
 332 501 l 2,10,11
 316 549 316 549 297 620 c 1,12,-1
 295 620 l 1,13,14
 284 575 284 575 260 503 c 2,15,-1
 177 276 l 1,8,-1
180 772 m 1,16,-1
 408 772 l 1,17,-1
 408 733 l 1,18,-1
 180 733 l 1,19,-1
 180 772 l 1,16,-1
EndSplineSet
Position2: "'cpsp' Capital Spacing lookup 0 subtable" dx=10 dy=0 dh=20 dv=0
EndChar

StartChar: amacron
Encoding: 257 257 193
Width: 454
GlyphClass: 2
Flags: W
LayerCount: 2
Fore
SplineSet
380 302 m 2,0,-1
 380 114 l 2,1,2
 380 43 380 43 387 0 c 1,3,-1
 343 0 l 1,4,-1
 336 69 l 1,5,-1
 334 69 l 1,6,7
 313 37 313 37 273 13 c 128,-1,8
 233 -11 233 -11 180 -11 c 0,9,10
 112 -11 112 -11 75.5 28.5 c 128,-1,11
 39 68 39 68 39 121 c 0,12,13
 39 206 39 206 113.5 252 c 128,-1,14
 188 298 188 298 332 297 c 1,15,-1
 332 310 l 2,16,17
 332 452 332 452 209 451 c 0,18,19
 138 451 138 451 88 415 c 1,20,-1
 73 450 l 1,21,22
 135 491 135 491 214 491 c 0,23,24
 380 491 380 491 380 302 c 2,0,-1
332 154 m 2,25,-1
 332 257 l 1,26,27
 89 264 89 264 89 129 c 0,28,29
 89 80 89 80 116.5 54.5 c 128,-1,30
 144 29 144 29 185 29 c 0,31,32
 241 29 241 29 277 57 c 128,-1,33
 313 85 313 85 327 125 c 0,34,35
 332 138 332 138 332 154 c 2,25,-1
123 629 m 1,36,-1
 333 629 l 1,37,-1
 333 589 l 1,38,-1
 123 589 l 1,39,-1
 123 629 l 1,36,-1
EndSplineSet
EndChar

StartChar: Abreve
Encoding: 258 258 194
Width: 585
GlyphClass: 2
Flags: W
LayerCount: 2
Fore
SplineSet
429 236 m 1,0,-1
 162 236 l 1,1,-1
 79 0 l 1,2,-1
 30 0 l 1,3,-1
 274 674 l 1,4,-1
 320 674 l 1,5,-1
 563 0 l 1,6,-1
 514 0 l 1,7,-1
 429 236 l 1,0,-1
177 276 m 1,8,-1
 414 276 l 1,9,-1
 332 501 l 2,10,11
 316 549 316 549 297 620 c 1,12,-1
 295 620 l 1,13,14
 284 575 284 575 260 503 c 2,15,-1
 177 276 l 1,8,-1
179 806 m 1,16,-1
 214 806 l 1,17,18
 227 756 227 756 294 756 c 0,19,20
 362 756 362 756 372 806 c 1,21,-1
 407 806 l 1,22,23
 405 765 405 765 377 739 c 128,-1,24
 349 713 349 713 292 713 c 0,25,26
 237 713 237 713 209 739 c 128,-1,27
 181 765 181 765 179 806 c 1,16,-1
EndSplineSet
Position2: "'cpsp' Capital Spacing lookup 0 subtable" dx=10 dy=0 dh=20 dv=0
EndChar

StartChar: abreve
Encoding: 259 259 195
Width: 454
GlyphClass: 2
Flags: W
LayerCount: 2
Fore
SplineSet
380 302 m 2,0,-1
 380 114 l 2,1,2
 380 43 380 43 387 0 c 1,3,-1
 343 0 l 1,4,-1
 336 69 l 1,5,-1
 334 69 l 1,6,7
 313 37 313 37 273 13 c 128,-1,8
 233 -11 233 -11 180 -11 c 0,9,10
 112 -11 112 -11 75.5 28.5 c 128,-1,11
 39 68 39 68 39 121 c 0,12,13
 39 206 39 206 113.5 252 c 128,-1,14
 188 298 188 298 332 297 c 1,15,-1
 332 310 l 2,16,17
 332 452 332 452 209 451 c 0,18,19
 138 451 138 451 88 415 c 1,20,-1
 73 450 l 1,21,22
 135 491 135 491 214 491 c 0,23,24
 380 491 380 491 380 302 c 2,0,-1
332 154 m 2,25,-1
 332 257 l 1,26,27
 89 264 89 264 89 129 c 0,28,29
 89 80 89 80 116.5 54.5 c 128,-1,30
 144 29 144 29 185 29 c 0,31,32
 241 29 241 29 277 57 c 128,-1,33
 313 85 313 85 327 125 c 0,34,35
 332 138 332 138 332 154 c 2,25,-1
112 676 m 1,36,-1
 148 676 l 1,37,38
 153 644 153 644 174 623 c 128,-1,39
 195 602 195 602 227 602 c 0,40,41
 263 602 263 602 283 624 c 128,-1,42
 303 646 303 646 306 676 c 1,43,-1
 342 676 l 1,44,45
 342 625 342 625 309.5 593.5 c 128,-1,46
 277 562 277 562 227 562 c 0,47,48
 169 562 169 562 140.5 596.5 c 128,-1,49
 112 631 112 631 112 676 c 1,36,-1
EndSplineSet
EndChar

StartChar: Aogonek
Encoding: 260 260 196
Width: 585
GlyphClass: 2
Flags: W
LayerCount: 2
Fore
SplineSet
320 674 m 1,0,-1
 563 0 l 1,1,-1
 554 -3 l 1,2,3
 531 -23 531 -23 507.5 -53.5 c 128,-1,4
 484 -84 484 -84 484 -112 c 0,5,6
 484 -135 484 -135 497.5 -148 c 128,-1,7
 511 -161 511 -161 533 -161 c 128,-1,8
 555 -161 555 -161 579 -150 c 1,9,-1
 588 -179 l 1,10,11
 565 -198 565 -198 521 -198 c 0,12,13
 484 -198 484 -198 461.5 -178 c 128,-1,14
 439 -158 439 -158 439 -123 c 0,15,16
 439 -99 439 -99 452.5 -73 c 128,-1,17
 466 -47 466 -47 478 -32 c 128,-1,18
 490 -17 490 -17 512 6 c 1,19,-1
 429 236 l 1,20,-1
 162 236 l 1,21,-1
 79 0 l 1,22,-1
 30 0 l 1,23,-1
 274 674 l 1,24,-1
 320 674 l 1,0,-1
177 276 m 1,25,-1
 415 276 l 1,26,-1
 333 501 l 2,27,28
 316 549 316 549 297 620 c 1,29,-1
 295 620 l 1,30,31
 279 557 279 557 260 503 c 2,32,-1
 177 276 l 1,25,-1
EndSplineSet
Position2: "'cpsp' Capital Spacing lookup 0 subtable" dx=10 dy=0 dh=20 dv=0
EndChar

StartChar: aogonek
Encoding: 261 261 197
Width: 454
GlyphClass: 2
Flags: W
LayerCount: 2
Fore
SplineSet
380 302 m 2,0,-1
 380 114 l 2,1,2
 380 50 380 50 387 0 c 1,3,-1
 381 0 l 1,4,5
 330 -59 330 -59 330 -111 c 0,6,7
 330 -160 330 -160 379 -160 c 0,8,9
 405 -160 405 -160 425 -150 c 1,10,-1
 434 -180 l 1,11,12
 408 -198 408 -198 366 -198 c 0,13,14
 330 -198 330 -198 307.5 -178 c 128,-1,15
 285 -158 285 -158 285 -123 c 0,16,17
 285 -76 285 -76 335 -5 c 0,18,19
 342 4 342 4 342 5 c 2,20,-1
 336 69 l 1,21,-1
 334 69 l 1,22,23
 313 37 313 37 273 13 c 128,-1,24
 233 -11 233 -11 180 -11 c 0,25,26
 112 -11 112 -11 75.5 28.5 c 128,-1,27
 39 68 39 68 39 121 c 0,28,29
 39 206 39 206 113.5 252 c 128,-1,30
 188 298 188 298 332 297 c 1,31,-1
 332 310 l 2,32,33
 332 452 332 452 209 451 c 0,34,35
 138 451 138 451 88 415 c 1,36,-1
 73 450 l 1,37,38
 135 491 135 491 214 491 c 0,39,40
 380 491 380 491 380 302 c 2,0,-1
332 154 m 2,41,-1
 332 257 l 1,42,43
 89 264 89 264 89 129 c 0,44,45
 89 80 89 80 116.5 54.5 c 128,-1,46
 144 29 144 29 185 29 c 0,47,48
 241 29 241 29 277 57 c 128,-1,49
 313 85 313 85 327 125 c 0,50,51
 332 138 332 138 332 154 c 2,41,-1
EndSplineSet
EndChar

StartChar: Cacute
Encoding: 262 262 198
Width: 570
GlyphClass: 2
Flags: W
LayerCount: 2
Fore
SplineSet
524 62 m 1,0,-1
 538 24 l 1,1,2
 470 -10 470 -10 356 -10 c 0,3,4
 293 -10 293 -10 237 10.5 c 128,-1,5
 181 31 181 31 135.5 71.5 c 128,-1,6
 90 112 90 112 63.5 179.5 c 128,-1,7
 37 247 37 247 37 333 c 0,8,9
 37 486 37 486 129.5 585 c 128,-1,10
 222 684 222 684 379 684 c 0,11,12
 477 684 477 684 535 655 c 1,13,-1
 520 615 l 1,14,15
 462 644 462 644 380 644 c 0,16,17
 243 644 243 644 165 560.5 c 128,-1,18
 87 477 87 477 87 332 c 0,19,20
 87 193 87 193 162.5 112 c 128,-1,21
 238 31 238 31 372 31 c 0,22,23
 460 31 460 31 524 62 c 1,0,-1
415 826 m 1,24,-1
 488 826 l 1,25,-1
 357 713 l 1,26,-1
 317 713 l 1,27,-1
 415 826 l 1,24,-1
EndSplineSet
Position2: "'cpsp' Capital Spacing lookup 0 subtable" dx=10 dy=0 dh=20 dv=0
EndChar

StartChar: cacute
Encoding: 263 263 199
Width: 446
GlyphClass: 2
Flags: W
LayerCount: 2
Fore
SplineSet
399 59 m 1,0,-1
 412 21 l 1,1,2
 347 -10 347 -10 271 -10 c 0,3,4
 168 -10 168 -10 104.5 58 c 128,-1,5
 41 126 41 126 41 235 c 0,6,7
 41 349 41 349 110.5 420 c 128,-1,8
 180 491 180 491 288 491 c 0,9,10
 372 491 372 491 414 461 c 1,11,-1
 397 422 l 1,12,13
 351 450 351 450 284 450 c 0,14,15
 191 450 191 450 140 389.5 c 128,-1,16
 89 329 89 329 89 239 c 0,17,18
 89 145 89 145 142 88 c 128,-1,19
 195 31 195 31 279 31 c 0,20,21
 338 31 338 31 399 59 c 1,0,-1
309 688 m 1,22,-1
 379 688 l 1,23,-1
 257 550 l 1,24,-1
 220 550 l 1,25,-1
 309 688 l 1,22,-1
EndSplineSet
EndChar

StartChar: Ccircumflex
Encoding: 264 264 200
Width: 570
GlyphClass: 2
Flags: W
LayerCount: 2
Fore
SplineSet
524 62 m 1,0,-1
 538 24 l 1,1,2
 470 -10 470 -10 356 -10 c 0,3,4
 293 -10 293 -10 237 10.5 c 128,-1,5
 181 31 181 31 135.5 71.5 c 128,-1,6
 90 112 90 112 63.5 179.5 c 128,-1,7
 37 247 37 247 37 333 c 0,8,9
 37 486 37 486 129.5 585 c 128,-1,10
 222 684 222 684 379 684 c 0,11,12
 477 684 477 684 535 655 c 1,13,-1
 520 615 l 1,14,15
 462 644 462 644 380 644 c 0,16,17
 243 644 243 644 165 560.5 c 128,-1,18
 87 477 87 477 87 332 c 0,19,20
 87 193 87 193 162.5 112 c 128,-1,21
 238 31 238 31 372 31 c 0,22,23
 460 31 460 31 524 62 c 1,0,-1
322 823 m 1,24,-1
 360 823 l 1,25,-1
 467 714 l 1,26,-1
 414 714 l 1,27,-1
 342 788 l 1,28,-1
 340 788 l 1,29,-1
 268 714 l 1,30,-1
 218 714 l 1,31,-1
 322 823 l 1,24,-1
EndSplineSet
Position2: "'cpsp' Capital Spacing lookup 0 subtable" dx=10 dy=0 dh=20 dv=0
EndChar

StartChar: ccircumflex
Encoding: 265 265 201
Width: 446
GlyphClass: 2
Flags: W
LayerCount: 2
Fore
SplineSet
399 59 m 1,0,-1
 412 21 l 1,1,2
 347 -10 347 -10 271 -10 c 0,3,4
 168 -10 168 -10 104.5 58 c 128,-1,5
 41 126 41 126 41 235 c 0,6,7
 41 349 41 349 110.5 420 c 128,-1,8
 180 491 180 491 288 491 c 0,9,10
 372 491 372 491 414 461 c 1,11,-1
 397 422 l 1,12,13
 351 450 351 450 284 450 c 0,14,15
 191 450 191 450 140 389.5 c 128,-1,16
 89 329 89 329 89 239 c 0,17,18
 89 145 89 145 142 88 c 128,-1,19
 195 31 195 31 279 31 c 0,20,21
 338 31 338 31 399 59 c 1,0,-1
239 688 m 1,22,-1
 274 688 l 1,23,-1
 368 550 l 1,24,-1
 320 550 l 1,25,-1
 258 649 l 1,26,-1
 256 649 l 1,27,-1
 193 550 l 1,28,-1
 148 550 l 1,29,-1
 239 688 l 1,22,-1
EndSplineSet
EndChar

StartChar: Cdotaccent
Encoding: 266 266 202
Width: 570
GlyphClass: 2
Flags: W
LayerCount: 2
Fore
SplineSet
524 62 m 1,0,-1
 538 24 l 1,1,2
 470 -10 470 -10 356 -10 c 0,3,4
 293 -10 293 -10 237 10.5 c 128,-1,5
 181 31 181 31 135.5 71.5 c 128,-1,6
 90 112 90 112 63.5 179.5 c 128,-1,7
 37 247 37 247 37 333 c 0,8,9
 37 486 37 486 129.5 585 c 128,-1,10
 222 684 222 684 379 684 c 0,11,12
 477 684 477 684 535 655 c 1,13,-1
 520 615 l 1,14,15
 462 644 462 644 380 644 c 0,16,17
 243 644 243 644 165 560.5 c 128,-1,18
 87 477 87 477 87 332 c 0,19,20
 87 193 87 193 162.5 112 c 128,-1,21
 238 31 238 31 372 31 c 0,22,23
 460 31 460 31 524 62 c 1,0,-1
342 724 m 2,24,-1
 340 724 l 2,25,26
 325 724 325 724 314.5 736 c 128,-1,27
 304 748 304 748 304 763 c 128,-1,28
 304 778 304 778 315.5 790 c 128,-1,29
 327 802 327 802 342 802 c 128,-1,30
 357 802 357 802 368 790 c 128,-1,31
 379 778 379 778 379 763 c 128,-1,32
 379 748 379 748 368 736 c 128,-1,33
 357 724 357 724 342 724 c 2,24,-1
EndSplineSet
Position2: "'cpsp' Capital Spacing lookup 0 subtable" dx=10 dy=0 dh=20 dv=0
EndChar

StartChar: cdotaccent
Encoding: 267 267 203
Width: 446
GlyphClass: 2
Flags: W
LayerCount: 2
Fore
SplineSet
399 59 m 1,0,-1
 412 21 l 1,1,2
 347 -10 347 -10 271 -10 c 0,3,4
 168 -10 168 -10 104.5 58 c 128,-1,5
 41 126 41 126 41 235 c 0,6,7
 41 349 41 349 110.5 420 c 128,-1,8
 180 491 180 491 288 491 c 0,9,10
 372 491 372 491 414 461 c 1,11,-1
 397 422 l 1,12,13
 351 450 351 450 284 450 c 0,14,15
 191 450 191 450 140 389.5 c 128,-1,16
 89 329 89 329 89 239 c 0,17,18
 89 145 89 145 142 88 c 128,-1,19
 195 31 195 31 279 31 c 0,20,21
 338 31 338 31 399 59 c 1,0,-1
258 578 m 2,22,-1
 257 578 l 2,23,24
 242 578 242 578 231 590 c 128,-1,25
 220 602 220 602 220 618 c 128,-1,26
 220 634 220 634 231.5 646 c 128,-1,27
 243 658 243 658 259 658 c 0,28,29
 274 658 274 658 285 646 c 128,-1,30
 296 634 296 634 296 618 c 128,-1,31
 296 602 296 602 285.5 590 c 128,-1,32
 275 578 275 578 258 578 c 2,22,-1
EndSplineSet
EndChar

StartChar: Ccaron
Encoding: 268 268 204
Width: 570
GlyphClass: 2
Flags: W
LayerCount: 2
Fore
SplineSet
524 62 m 1,0,-1
 538 24 l 1,1,2
 470 -10 470 -10 356 -10 c 0,3,4
 293 -10 293 -10 237 10.5 c 128,-1,5
 181 31 181 31 135.5 71.5 c 128,-1,6
 90 112 90 112 63.5 179.5 c 128,-1,7
 37 247 37 247 37 333 c 0,8,9
 37 486 37 486 129.5 585 c 128,-1,10
 222 684 222 684 379 684 c 0,11,12
 477 684 477 684 535 655 c 1,13,-1
 520 615 l 1,14,15
 462 644 462 644 380 644 c 0,16,17
 243 644 243 644 165 560.5 c 128,-1,18
 87 477 87 477 87 332 c 0,19,20
 87 193 87 193 162.5 112 c 128,-1,21
 238 31 238 31 372 31 c 0,22,23
 460 31 460 31 524 62 c 1,0,-1
367 714 m 1,24,-1
 329 714 l 1,25,-1
 222 823 l 1,26,-1
 275 823 l 1,27,-1
 348 749 l 1,28,-1
 350 749 l 1,29,-1
 421 823 l 1,30,-1
 471 823 l 1,31,-1
 367 714 l 1,24,-1
EndSplineSet
Position2: "'cpsp' Capital Spacing lookup 0 subtable" dx=10 dy=0 dh=20 dv=0
EndChar

StartChar: ccaron
Encoding: 269 269 205
Width: 446
GlyphClass: 2
Flags: W
LayerCount: 2
Fore
SplineSet
399 59 m 1,0,-1
 412 21 l 1,1,2
 347 -10 347 -10 271 -10 c 0,3,4
 168 -10 168 -10 104.5 58 c 128,-1,5
 41 126 41 126 41 235 c 0,6,7
 41 349 41 349 110.5 420 c 128,-1,8
 180 491 180 491 288 491 c 0,9,10
 372 491 372 491 414 461 c 1,11,-1
 397 422 l 1,12,13
 351 450 351 450 284 450 c 0,14,15
 191 450 191 450 140 389.5 c 128,-1,16
 89 329 89 329 89 239 c 0,17,18
 89 145 89 145 142 88 c 128,-1,19
 195 31 195 31 279 31 c 0,20,21
 338 31 338 31 399 59 c 1,0,-1
278 550 m 1,22,-1
 240 550 l 1,23,-1
 146 688 l 1,24,-1
 194 688 l 1,25,-1
 258 588 l 1,26,-1
 260 588 l 1,27,-1
 324 688 l 1,28,-1
 369 688 l 1,29,-1
 278 550 l 1,22,-1
EndSplineSet
EndChar

StartChar: Dcaron
Encoding: 270 270 206
Width: 647
GlyphClass: 2
Flags: W
LayerCount: 2
Fore
SplineSet
81 0 m 1,0,-1
 81 664 l 1,1,2
 168 679 168 679 254 679 c 0,3,4
 439 679 439 679 526 587 c 0,5,6
 610 500 610 500 610 353 c 0,7,8
 610 195 610 195 522 98 c 0,9,10
 429 -5 429 -5 231 -5 c 0,11,12
 142 -5 142 -5 81 0 c 1,0,-1
129 628 m 1,13,-1
 129 40 l 1,14,15
 163 35 163 35 238 35 c 0,16,17
 397 35 397 35 479 118.5 c 128,-1,18
 561 202 561 202 561 351 c 0,19,20
 563 485 563 485 485.5 562 c 128,-1,21
 408 639 408 639 251 639 c 0,22,23
 182 639 182 639 129 628 c 1,13,-1
320 713 m 1,24,-1
 282 713 l 1,25,-1
 175 822 l 1,26,-1
 228 822 l 1,27,-1
 301 748 l 1,28,-1
 303 748 l 1,29,-1
 374 822 l 1,30,-1
 424 822 l 1,31,-1
 320 713 l 1,24,-1
EndSplineSet
Position2: "'cpsp' Capital Spacing lookup 0 subtable" dx=10 dy=0 dh=20 dv=0
EndChar

StartChar: dcaron
Encoding: 271 271 207
Width: 554
GlyphClass: 2
Flags: W
LayerCount: 2
Fore
SplineSet
416 711 m 1,0,-1
 464 711 l 1,1,-1
 464 111 l 2,2,3
 464 45 464 45 468 0 c 1,4,-1
 425 0 l 1,5,-1
 421 91 l 1,6,-1
 419 91 l 1,7,8
 398 47 398 47 354.5 18 c 128,-1,9
 311 -11 311 -11 248 -11 c 0,10,11
 158 -11 158 -11 99.5 56.5 c 128,-1,12
 41 124 41 124 41 231 c 0,13,14
 40 348 40 348 103 419.5 c 128,-1,15
 166 491 166 491 257 491 c 0,16,17
 315 491 315 491 355.5 466 c 128,-1,18
 396 441 396 441 414 406 c 1,19,-1
 416 406 l 1,20,-1
 416 711 l 1,0,-1
416 194 m 2,21,-1
 416 290 l 2,22,23
 416 316 416 316 411 334 c 0,24,25
 398 384 398 384 357.5 417.5 c 128,-1,26
 317 451 317 451 260 451 c 0,27,28
 182 451 182 451 135.5 390.5 c 128,-1,29
 89 330 89 330 89 236 c 0,30,31
 89 149 89 149 132.5 89 c 128,-1,32
 176 29 176 29 257 29 c 0,33,34
 310 29 310 29 353 62.5 c 128,-1,35
 396 96 396 96 411 154 c 0,36,37
 416 169 416 169 416 194 c 2,21,-1
531 538 m 1,38,-1
 511 561 l 1,39,40
 552 595 552 595 552 642 c 0,41,42
 552 680 552 680 515 705 c 1,43,-1
 558 717 l 1,44,45
 595 693 595 693 595 646 c 0,46,47
 595 634 595 634 592.5 622.5 c 128,-1,48
 590 611 590 611 587 602.5 c 128,-1,49
 584 594 584 594 578.5 585.5 c 128,-1,50
 573 577 573 577 568.5 571.5 c 128,-1,51
 564 566 564 566 557 559.5 c 128,-1,52
 550 553 550 553 547 550.5 c 128,-1,53
 544 548 544 548 538 543 c 2,54,-1
 531 538 l 1,38,-1
EndSplineSet
EndChar

StartChar: Dcroat
Encoding: 272 272 208
Width: 651
GlyphClass: 2
Flags: W
LayerCount: 2
Fore
SplineSet
-5 322 m 1,0,-1
 -5 361 l 1,1,-1
 84 361 l 1,2,-1
 84 667 l 1,3,4
 171 682 171 682 257 682 c 0,5,6
 442 682 442 682 529 590 c 0,7,8
 613 503 613 503 613 353 c 0,9,10
 613 194 613 194 525 97 c 0,11,12
 432 -6 432 -6 234 -6 c 0,13,14
 143 -6 143 -6 84 0 c 1,15,-1
 84 322 l 1,16,-1
 -5 322 l 1,0,-1
341 361 m 1,17,-1
 341 322 l 1,18,-1
 132 322 l 1,19,-1
 132 39 l 1,20,21
 166 34 166 34 241 34 c 0,22,23
 400 34 400 34 482 118 c 128,-1,24
 564 202 564 202 564 354 c 0,25,26
 566 488 566 488 488.5 565 c 128,-1,27
 411 642 411 642 254 642 c 0,28,29
 185 642 185 642 132 631 c 1,30,-1
 132 361 l 1,31,-1
 341 361 l 1,17,-1
EndSplineSet
Position2: "'cpsp' Capital Spacing lookup 0 subtable" dx=10 dy=0 dh=20 dv=0
EndChar

StartChar: dcroat
Encoding: 273 273 209
Width: 544
GlyphClass: 2
Flags: W
LayerCount: 2
Fore
SplineSet
540 559 m 1,0,-1
 464 559 l 1,1,-1
 464 111 l 2,2,3
 464 45 464 45 468 0 c 1,4,-1
 425 0 l 1,5,-1
 421 91 l 1,6,-1
 419 91 l 1,7,8
 398 47 398 47 354.5 18 c 128,-1,9
 311 -11 311 -11 248 -11 c 0,10,11
 158 -11 158 -11 99.5 56.5 c 128,-1,12
 41 124 41 124 41 231 c 0,13,14
 40 348 40 348 103 419.5 c 128,-1,15
 166 491 166 491 257 491 c 0,16,17
 315 491 315 491 355.5 466 c 128,-1,18
 396 441 396 441 414 406 c 1,19,-1
 416 406 l 1,20,-1
 416 559 l 1,21,-1
 208 559 l 1,22,-1
 208 598 l 1,23,-1
 416 598 l 1,24,-1
 416 711 l 1,25,-1
 464 711 l 1,26,-1
 464 598 l 1,27,-1
 540 598 l 1,28,-1
 540 559 l 1,0,-1
416 194 m 2,29,-1
 416 290 l 2,30,31
 416 316 416 316 411 334 c 0,32,33
 398 384 398 384 357.5 417.5 c 128,-1,34
 317 451 317 451 260 451 c 0,35,36
 182 451 182 451 135.5 390.5 c 128,-1,37
 89 330 89 330 89 236 c 0,38,39
 89 149 89 149 132.5 89 c 128,-1,40
 176 29 176 29 257 29 c 0,41,42
 310 29 310 29 353 62.5 c 128,-1,43
 396 96 396 96 411 154 c 0,44,45
 416 169 416 169 416 194 c 2,29,-1
EndSplineSet
EndChar

StartChar: Emacron
Encoding: 274 274 210
Width: 466
GlyphClass: 2
Flags: W
LayerCount: 2
Fore
SplineSet
398 375 m 1,0,-1
 398 335 l 1,1,-1
 129 335 l 1,2,-1
 129 40 l 1,3,-1
 430 40 l 1,4,-1
 430 0 l 1,5,-1
 81 0 l 1,6,-1
 81 674 l 1,7,-1
 414 674 l 1,8,-1
 414 634 l 1,9,-1
 129 634 l 1,10,-1
 129 375 l 1,11,-1
 398 375 l 1,0,-1
139 772 m 1,12,-1
 367 772 l 1,13,-1
 367 733 l 1,14,-1
 139 733 l 1,15,-1
 139 772 l 1,12,-1
EndSplineSet
Position2: "'cpsp' Capital Spacing lookup 0 subtable" dx=10 dy=0 dh=20 dv=0
EndChar

StartChar: emacron
Encoding: 275 275 211
Width: 485
GlyphClass: 2
Flags: W
LayerCount: 2
Fore
SplineSet
442 245 m 1,0,-1
 88 245 l 1,1,2
 88 137 88 137 139.5 84 c 128,-1,3
 191 31 191 31 271 31 c 0,4,5
 348 31 348 31 404 58 c 1,6,-1
 416 21 l 1,7,8
 360 -10 360 -10 265 -10 c 0,9,10
 163 -10 163 -10 102 57 c 128,-1,11
 41 124 41 124 41 231 c 0,12,13
 41 349 41 349 101.5 420 c 128,-1,14
 162 491 162 491 257 491 c 0,15,16
 302 491 302 491 336.5 475 c 128,-1,17
 371 459 371 459 391 435 c 128,-1,18
 411 411 411 411 423.5 380 c 128,-1,19
 436 349 436 349 440 323.5 c 128,-1,20
 444 298 444 298 444 274 c 0,21,22
 444 254 444 254 442 245 c 1,0,-1
91 283 m 1,23,-1
 394 283 l 1,24,25
 394 311 394 311 388 338 c 128,-1,26
 382 365 382 365 367 391.5 c 128,-1,27
 352 418 352 418 322 434.5 c 128,-1,28
 292 451 292 451 251 451 c 0,29,30
 179 451 179 451 139 400 c 128,-1,31
 99 349 99 349 91 283 c 1,23,-1
141 629 m 1,32,-1
 351 629 l 1,33,-1
 351 589 l 1,34,-1
 141 589 l 1,35,-1
 141 629 l 1,32,-1
EndSplineSet
EndChar

StartChar: Ebreve
Encoding: 276 276 212
Width: 466
GlyphClass: 2
Flags: W
LayerCount: 2
Fore
SplineSet
398 375 m 1,0,-1
 398 335 l 1,1,-1
 129 335 l 1,2,-1
 129 40 l 1,3,-1
 430 40 l 1,4,-1
 430 0 l 1,5,-1
 81 0 l 1,6,-1
 81 674 l 1,7,-1
 414 674 l 1,8,-1
 414 634 l 1,9,-1
 129 634 l 1,10,-1
 129 375 l 1,11,-1
 398 375 l 1,0,-1
128 817 m 1,12,-1
 163 817 l 1,13,14
 176 767 176 767 243 767 c 0,15,16
 311 767 311 767 321 817 c 1,17,-1
 356 817 l 1,18,19
 354 776 354 776 326 750 c 128,-1,20
 298 724 298 724 241 724 c 0,21,22
 186 724 186 724 158 750 c 128,-1,23
 130 776 130 776 128 817 c 1,12,-1
EndSplineSet
Position2: "'cpsp' Capital Spacing lookup 0 subtable" dx=10 dy=0 dh=20 dv=0
EndChar

StartChar: ebreve
Encoding: 277 277 213
Width: 485
GlyphClass: 2
Flags: W
LayerCount: 2
Fore
SplineSet
442 245 m 1,0,-1
 88 245 l 1,1,2
 88 137 88 137 139.5 84 c 128,-1,3
 191 31 191 31 271 31 c 0,4,5
 348 31 348 31 404 58 c 1,6,-1
 416 21 l 1,7,8
 360 -10 360 -10 265 -10 c 0,9,10
 163 -10 163 -10 102 57 c 128,-1,11
 41 124 41 124 41 231 c 0,12,13
 41 349 41 349 101.5 420 c 128,-1,14
 162 491 162 491 257 491 c 0,15,16
 302 491 302 491 336.5 475 c 128,-1,17
 371 459 371 459 391 435 c 128,-1,18
 411 411 411 411 423.5 380 c 128,-1,19
 436 349 436 349 440 323.5 c 128,-1,20
 444 298 444 298 444 274 c 0,21,22
 444 254 444 254 442 245 c 1,0,-1
91 283 m 1,23,-1
 394 283 l 1,24,25
 394 311 394 311 388 338 c 128,-1,26
 382 365 382 365 367 391.5 c 128,-1,27
 352 418 352 418 322 434.5 c 128,-1,28
 292 451 292 451 251 451 c 0,29,30
 179 451 179 451 139 400 c 128,-1,31
 99 349 99 349 91 283 c 1,23,-1
130 676 m 1,32,-1
 166 676 l 1,33,34
 171 644 171 644 192 623 c 128,-1,35
 213 602 213 602 245 602 c 0,36,37
 281 602 281 602 301 624 c 128,-1,38
 321 646 321 646 324 676 c 1,39,-1
 360 676 l 1,40,41
 360 625 360 625 327.5 593.5 c 128,-1,42
 295 562 295 562 245 562 c 0,43,44
 187 562 187 562 158.5 596.5 c 128,-1,45
 130 631 130 631 130 676 c 1,32,-1
EndSplineSet
EndChar

StartChar: Edotaccent
Encoding: 278 278 214
Width: 466
GlyphClass: 2
Flags: W
LayerCount: 2
Fore
SplineSet
398 375 m 1,0,-1
 398 335 l 1,1,-1
 129 335 l 1,2,-1
 129 40 l 1,3,-1
 430 40 l 1,4,-1
 430 0 l 1,5,-1
 81 0 l 1,6,-1
 81 674 l 1,7,-1
 414 674 l 1,8,-1
 414 634 l 1,9,-1
 129 634 l 1,10,-1
 129 375 l 1,11,-1
 398 375 l 1,0,-1
240 727 m 2,12,-1
 238 727 l 2,13,14
 223 727 223 727 212.5 739 c 128,-1,15
 202 751 202 751 202 766 c 128,-1,16
 202 781 202 781 213.5 793 c 128,-1,17
 225 805 225 805 240 805 c 128,-1,18
 255 805 255 805 266 793 c 128,-1,19
 277 781 277 781 277 766 c 128,-1,20
 277 751 277 751 266 739 c 128,-1,21
 255 727 255 727 240 727 c 2,12,-1
EndSplineSet
Position2: "'cpsp' Capital Spacing lookup 0 subtable" dx=10 dy=0 dh=20 dv=0
EndChar

StartChar: edotaccent
Encoding: 279 279 215
Width: 485
GlyphClass: 2
Flags: W
LayerCount: 2
Fore
SplineSet
442 245 m 1,0,-1
 88 245 l 1,1,2
 88 137 88 137 139.5 84 c 128,-1,3
 191 31 191 31 271 31 c 0,4,5
 348 31 348 31 404 58 c 1,6,-1
 416 21 l 1,7,8
 360 -10 360 -10 265 -10 c 0,9,10
 163 -10 163 -10 102 57 c 128,-1,11
 41 124 41 124 41 231 c 0,12,13
 41 349 41 349 101.5 420 c 128,-1,14
 162 491 162 491 257 491 c 0,15,16
 302 491 302 491 336.5 475 c 128,-1,17
 371 459 371 459 391 435 c 128,-1,18
 411 411 411 411 423.5 380 c 128,-1,19
 436 349 436 349 440 323.5 c 128,-1,20
 444 298 444 298 444 274 c 0,21,22
 444 254 444 254 442 245 c 1,0,-1
91 283 m 1,23,-1
 394 283 l 1,24,25
 394 311 394 311 388 338 c 128,-1,26
 382 365 382 365 367 391.5 c 128,-1,27
 352 418 352 418 322 434.5 c 128,-1,28
 292 451 292 451 251 451 c 0,29,30
 179 451 179 451 139 400 c 128,-1,31
 99 349 99 349 91 283 c 1,23,-1
246 578 m 2,32,-1
 245 578 l 2,33,34
 230 578 230 578 219 590 c 128,-1,35
 208 602 208 602 208 618 c 128,-1,36
 208 634 208 634 219.5 646 c 128,-1,37
 231 658 231 658 247 658 c 0,38,39
 262 658 262 658 273 646 c 128,-1,40
 284 634 284 634 284 618 c 128,-1,41
 284 602 284 602 273.5 590 c 128,-1,42
 263 578 263 578 246 578 c 2,32,-1
EndSplineSet
EndChar

StartChar: Eogonek
Encoding: 280 280 216
Width: 466
GlyphClass: 2
Flags: W
LayerCount: 2
Fore
SplineSet
425 -151 m 1,0,-1
 434 -183 l 1,1,2
 404 -198 404 -198 370 -198 c 0,3,4
 331 -198 331 -198 308 -178.5 c 128,-1,5
 285 -159 285 -159 285 -124 c 0,6,7
 285 -87 285 -87 311.5 -53.5 c 128,-1,8
 338 -20 338 -20 372 1 c 1,9,-1
 81 1 l 1,10,-1
 81 674 l 1,11,-1
 415 674 l 1,12,-1
 415 634 l 1,13,-1
 129 634 l 1,14,-1
 129 375 l 1,15,-1
 399 375 l 1,16,-1
 399 335 l 1,17,-1
 129 335 l 1,18,-1
 129 41 l 1,19,-1
 431 41 l 1,20,-1
 431 1 l 1,21,22
 430 1 430 1 426 0.5 c 128,-1,23
 422 0 422 0 421 0 c 0,24,25
 383 -25 383 -25 356.5 -55.5 c 128,-1,26
 330 -86 330 -86 330 -114 c 0,27,28
 330 -136 330 -136 343.5 -147.5 c 128,-1,29
 357 -159 357 -159 380 -159 c 0,30,31
 405 -159 405 -159 425 -151 c 1,0,-1
EndSplineSet
Position2: "'cpsp' Capital Spacing lookup 0 subtable" dx=10 dy=0 dh=20 dv=0
EndChar

StartChar: eogonek
Encoding: 281 281 217
Width: 485
GlyphClass: 2
Flags: W
LayerCount: 2
Fore
SplineSet
363 -149 m 1,0,-1
 372 -179 l 1,1,2
 345 -197 345 -197 305 -197 c 0,3,4
 268 -197 268 -197 246 -177.5 c 128,-1,5
 224 -158 224 -158 224 -122 c 0,6,7
 224 -90 224 -90 247.5 -59 c 128,-1,8
 271 -28 271 -28 301 -9 c 1,9,-1
 301 -8 l 1,10,11
 277 -10 277 -10 265 -10 c 0,12,13
 163 -10 163 -10 102 57 c 128,-1,14
 41 124 41 124 41 231 c 0,15,16
 41 349 41 349 101.5 420 c 128,-1,17
 162 491 162 491 257 491 c 0,18,19
 302 491 302 491 336.5 475 c 128,-1,20
 371 459 371 459 391 435 c 128,-1,21
 411 411 411 411 423.5 380 c 128,-1,22
 436 349 436 349 440 323.5 c 128,-1,23
 444 298 444 298 444 274 c 0,24,25
 444 253 444 253 442 245 c 1,26,-1
 88 245 l 1,27,28
 88 137 88 137 139 84 c 128,-1,29
 190 31 190 31 270 31 c 0,30,31
 348 31 348 31 404 58 c 1,32,-1
 416 21 l 1,33,34
 398 11 398 11 369 3 c 0,35,36
 334 -11 334 -11 301.5 -45 c 128,-1,37
 269 -79 269 -79 269 -112 c 0,38,39
 269 -135 269 -135 282 -147 c 128,-1,40
 295 -159 295 -159 314 -159 c 0,41,42
 344 -159 344 -159 363 -149 c 1,0,-1
91 283 m 1,43,-1
 394 283 l 1,44,45
 394 311 394 311 388 338 c 128,-1,46
 382 365 382 365 367 391.5 c 128,-1,47
 352 418 352 418 321.5 434.5 c 128,-1,48
 291 451 291 451 250 451 c 0,49,50
 178 451 178 451 138.5 400 c 128,-1,51
 99 349 99 349 91 283 c 1,43,-1
EndSplineSet
EndChar

StartChar: Ecaron
Encoding: 282 282 218
Width: 466
GlyphClass: 2
Flags: W
LayerCount: 2
Fore
SplineSet
398 375 m 1,0,-1
 398 335 l 1,1,-1
 129 335 l 1,2,-1
 129 40 l 1,3,-1
 430 40 l 1,4,-1
 430 0 l 1,5,-1
 81 0 l 1,6,-1
 81 674 l 1,7,-1
 414 674 l 1,8,-1
 414 634 l 1,9,-1
 129 634 l 1,10,-1
 129 375 l 1,11,-1
 398 375 l 1,0,-1
269 710 m 1,12,-1
 231 710 l 1,13,-1
 124 819 l 1,14,-1
 177 819 l 1,15,-1
 250 745 l 1,16,-1
 252 745 l 1,17,-1
 323 819 l 1,18,-1
 373 819 l 1,19,-1
 269 710 l 1,12,-1
EndSplineSet
Position2: "'cpsp' Capital Spacing lookup 0 subtable" dx=10 dy=0 dh=20 dv=0
EndChar

StartChar: ecaron
Encoding: 283 283 219
Width: 485
GlyphClass: 2
Flags: W
LayerCount: 2
Fore
SplineSet
442 245 m 1,0,-1
 88 245 l 1,1,2
 88 137 88 137 139.5 84 c 128,-1,3
 191 31 191 31 271 31 c 0,4,5
 348 31 348 31 404 58 c 1,6,-1
 416 21 l 1,7,8
 360 -10 360 -10 265 -10 c 0,9,10
 163 -10 163 -10 102 57 c 128,-1,11
 41 124 41 124 41 231 c 0,12,13
 41 349 41 349 101.5 420 c 128,-1,14
 162 491 162 491 257 491 c 0,15,16
 302 491 302 491 336.5 475 c 128,-1,17
 371 459 371 459 391 435 c 128,-1,18
 411 411 411 411 423.5 380 c 128,-1,19
 436 349 436 349 440 323.5 c 128,-1,20
 444 298 444 298 444 274 c 0,21,22
 444 254 444 254 442 245 c 1,0,-1
91 283 m 1,23,-1
 394 283 l 1,24,25
 394 311 394 311 388 338 c 128,-1,26
 382 365 382 365 367 391.5 c 128,-1,27
 352 418 352 418 322 434.5 c 128,-1,28
 292 451 292 451 251 451 c 0,29,30
 179 451 179 451 139 400 c 128,-1,31
 99 349 99 349 91 283 c 1,23,-1
266 550 m 1,32,-1
 228 550 l 1,33,-1
 134 688 l 1,34,-1
 182 688 l 1,35,-1
 246 588 l 1,36,-1
 248 588 l 1,37,-1
 312 688 l 1,38,-1
 357 688 l 1,39,-1
 266 550 l 1,32,-1
EndSplineSet
EndChar

StartChar: Gcircumflex
Encoding: 284 284 220
Width: 624
GlyphClass: 2
Flags: W
LayerCount: 2
Fore
SplineSet
565 334 m 1,0,-1
 565 29 l 1,1,2
 478 -7 478 -7 368 -7 c 0,3,4
 221 -7 221 -7 130 81 c 0,5,6
 37 171 37 171 37 335 c 0,7,8
 37 482 37 482 130.5 581.5 c 128,-1,9
 224 681 224 681 389 681 c 0,10,11
 486 681 486 681 546 651 c 1,12,-1
 530 612 l 1,13,14
 470 641 470 641 386 641 c 0,15,16
 248 641 248 641 167.5 558 c 128,-1,17
 87 475 87 475 87 337 c 0,18,19
 87 195 87 195 164.5 114 c 128,-1,20
 242 33 242 33 376 33 c 0,21,22
 474 33 474 33 517 57 c 1,23,-1
 517 295 l 1,24,-1
 361 295 l 1,25,-1
 361 334 l 1,26,-1
 565 334 l 1,0,-1
333 822 m 1,27,-1
 371 822 l 1,28,-1
 478 713 l 1,29,-1
 425 713 l 1,30,-1
 353 787 l 1,31,-1
 351 787 l 1,32,-1
 279 713 l 1,33,-1
 229 713 l 1,34,-1
 333 822 l 1,27,-1
EndSplineSet
Position2: "'cpsp' Capital Spacing lookup 0 subtable" dx=10 dy=0 dh=20 dv=0
EndChar

StartChar: gcircumflex
Encoding: 285 285 221
Width: 544
GlyphClass: 2
Flags: W
LayerCount: 2
Fore
SplineSet
464 356 m 2,0,-1
 464 70 l 2,1,2
 464 -89 464 -89 398 -152 c 0,3,4
 338 -209 338 -209 235 -209 c 0,5,6
 138 -209 138 -209 82 -167 c 1,7,-1
 99 -129 l 1,8,9
 161 -169 161 -169 242 -169 c 0,10,11
 416 -169 416 -169 416 25 c 2,12,-1
 416 93 l 1,13,-1
 414 93 l 1,14,15
 393 53 393 53 350.5 26.5 c 128,-1,16
 308 0 308 0 247 0 c 0,17,18
 157 0 157 0 99 68 c 128,-1,19
 41 136 41 136 41 236 c 0,20,21
 41 354 41 354 106 422.5 c 128,-1,22
 171 491 171 491 257 491 c 0,23,24
 373 491 373 491 419 399 c 1,25,-1
 421 399 l 1,26,-1
 424 480 l 1,27,-1
 468 480 l 1,28,29
 464 432 464 432 464 356 c 2,0,-1
416 199 m 2,30,-1
 416 295 l 2,31,32
 416 325 416 325 410 342 c 0,33,34
 394 389 394 389 355.5 420 c 128,-1,35
 317 451 317 451 261 451 c 0,36,37
 184 451 184 451 136.5 393.5 c 128,-1,38
 89 336 89 336 89 241 c 0,39,40
 89 155 89 155 133.5 97.5 c 128,-1,41
 178 40 178 40 259 40 c 0,42,43
 308 40 308 40 349 69 c 128,-1,44
 390 98 390 98 408 148 c 0,45,46
 416 174 416 174 416 199 c 2,30,-1
251 693 m 1,47,-1
 286 693 l 1,48,-1
 380 555 l 1,49,-1
 332 555 l 1,50,-1
 270 654 l 1,51,-1
 268 654 l 1,52,-1
 205 555 l 1,53,-1
 160 555 l 1,54,-1
 251 693 l 1,47,-1
EndSplineSet
EndChar

StartChar: Gbreve
Encoding: 286 286 222
Width: 624
GlyphClass: 2
Flags: W
LayerCount: 2
Fore
SplineSet
565 334 m 1,0,-1
 565 29 l 1,1,2
 478 -7 478 -7 368 -7 c 0,3,4
 221 -7 221 -7 130 81 c 0,5,6
 37 171 37 171 37 335 c 0,7,8
 37 482 37 482 130.5 581.5 c 128,-1,9
 224 681 224 681 389 681 c 0,10,11
 486 681 486 681 546 651 c 1,12,-1
 530 612 l 1,13,14
 470 641 470 641 386 641 c 0,15,16
 248 641 248 641 167.5 558 c 128,-1,17
 87 475 87 475 87 337 c 0,18,19
 87 195 87 195 164.5 114 c 128,-1,20
 242 33 242 33 376 33 c 0,21,22
 474 33 474 33 517 57 c 1,23,-1
 517 295 l 1,24,-1
 361 295 l 1,25,-1
 361 334 l 1,26,-1
 565 334 l 1,0,-1
227 817 m 1,27,-1
 262 817 l 1,28,29
 275 767 275 767 342 767 c 0,30,31
 410 767 410 767 420 817 c 1,32,-1
 455 817 l 1,33,34
 453 776 453 776 425 750 c 128,-1,35
 397 724 397 724 340 724 c 0,36,37
 285 724 285 724 257 750 c 128,-1,38
 229 776 229 776 227 817 c 1,27,-1
EndSplineSet
Position2: "'cpsp' Capital Spacing lookup 0 subtable" dx=10 dy=0 dh=20 dv=0
EndChar

StartChar: gbreve
Encoding: 287 287 223
Width: 544
GlyphClass: 2
Flags: W
LayerCount: 2
Fore
SplineSet
464 356 m 2,0,-1
 464 70 l 2,1,2
 464 -89 464 -89 398 -152 c 0,3,4
 338 -209 338 -209 235 -209 c 0,5,6
 138 -209 138 -209 82 -167 c 1,7,-1
 99 -129 l 1,8,9
 161 -169 161 -169 242 -169 c 0,10,11
 416 -169 416 -169 416 25 c 2,12,-1
 416 93 l 1,13,-1
 414 93 l 1,14,15
 393 53 393 53 350.5 26.5 c 128,-1,16
 308 0 308 0 247 0 c 0,17,18
 157 0 157 0 99 68 c 128,-1,19
 41 136 41 136 41 236 c 0,20,21
 41 354 41 354 106 422.5 c 128,-1,22
 171 491 171 491 257 491 c 0,23,24
 373 491 373 491 419 399 c 1,25,-1
 421 399 l 1,26,-1
 424 480 l 1,27,-1
 468 480 l 1,28,29
 464 432 464 432 464 356 c 2,0,-1
416 199 m 2,30,-1
 416 295 l 2,31,32
 416 325 416 325 410 342 c 0,33,34
 394 389 394 389 355.5 420 c 128,-1,35
 317 451 317 451 261 451 c 0,36,37
 184 451 184 451 136.5 393.5 c 128,-1,38
 89 336 89 336 89 241 c 0,39,40
 89 155 89 155 133.5 97.5 c 128,-1,41
 178 40 178 40 259 40 c 0,42,43
 308 40 308 40 349 69 c 128,-1,44
 390 98 390 98 408 148 c 0,45,46
 416 174 416 174 416 199 c 2,30,-1
144 676 m 1,47,-1
 180 676 l 1,48,49
 185 644 185 644 206 623 c 128,-1,50
 227 602 227 602 259 602 c 0,51,52
 295 602 295 602 315 624 c 128,-1,53
 335 646 335 646 338 676 c 1,54,-1
 374 676 l 1,55,56
 374 625 374 625 341.5 593.5 c 128,-1,57
 309 562 309 562 259 562 c 0,58,59
 201 562 201 562 172.5 596.5 c 128,-1,60
 144 631 144 631 144 676 c 1,47,-1
EndSplineSet
EndChar

StartChar: Gdotaccent
Encoding: 288 288 224
Width: 624
GlyphClass: 2
Flags: W
LayerCount: 2
Fore
SplineSet
565 334 m 1,0,-1
 565 29 l 1,1,2
 478 -7 478 -7 368 -7 c 0,3,4
 221 -7 221 -7 130 81 c 0,5,6
 37 171 37 171 37 335 c 0,7,8
 37 482 37 482 130.5 581.5 c 128,-1,9
 224 681 224 681 389 681 c 0,10,11
 486 681 486 681 546 651 c 1,12,-1
 530 612 l 1,13,14
 470 641 470 641 386 641 c 0,15,16
 248 641 248 641 167.5 558 c 128,-1,17
 87 475 87 475 87 337 c 0,18,19
 87 195 87 195 164.5 114 c 128,-1,20
 242 33 242 33 376 33 c 0,21,22
 474 33 474 33 517 57 c 1,23,-1
 517 295 l 1,24,-1
 361 295 l 1,25,-1
 361 334 l 1,26,-1
 565 334 l 1,0,-1
354 724 m 2,27,-1
 352 724 l 2,28,29
 337 724 337 724 326.5 736 c 128,-1,30
 316 748 316 748 316 763 c 128,-1,31
 316 778 316 778 327.5 790 c 128,-1,32
 339 802 339 802 354 802 c 128,-1,33
 369 802 369 802 380 790 c 128,-1,34
 391 778 391 778 391 763 c 128,-1,35
 391 748 391 748 380 736 c 128,-1,36
 369 724 369 724 354 724 c 2,27,-1
EndSplineSet
Position2: "'cpsp' Capital Spacing lookup 0 subtable" dx=10 dy=0 dh=20 dv=0
EndChar

StartChar: gdotaccent
Encoding: 289 289 225
Width: 544
GlyphClass: 2
Flags: W
LayerCount: 2
Fore
SplineSet
464 356 m 2,0,-1
 464 70 l 2,1,2
 464 -89 464 -89 398 -152 c 0,3,4
 338 -209 338 -209 235 -209 c 0,5,6
 138 -209 138 -209 82 -167 c 1,7,-1
 99 -129 l 1,8,9
 161 -169 161 -169 242 -169 c 0,10,11
 416 -169 416 -169 416 25 c 2,12,-1
 416 93 l 1,13,-1
 414 93 l 1,14,15
 393 53 393 53 350.5 26.5 c 128,-1,16
 308 0 308 0 247 0 c 0,17,18
 157 0 157 0 99 68 c 128,-1,19
 41 136 41 136 41 236 c 0,20,21
 41 354 41 354 106 422.5 c 128,-1,22
 171 491 171 491 257 491 c 0,23,24
 373 491 373 491 419 399 c 1,25,-1
 421 399 l 1,26,-1
 424 480 l 1,27,-1
 468 480 l 1,28,29
 464 432 464 432 464 356 c 2,0,-1
416 199 m 2,30,-1
 416 295 l 2,31,32
 416 325 416 325 410 342 c 0,33,34
 394 389 394 389 355.5 420 c 128,-1,35
 317 451 317 451 261 451 c 0,36,37
 184 451 184 451 136.5 393.5 c 128,-1,38
 89 336 89 336 89 241 c 0,39,40
 89 155 89 155 133.5 97.5 c 128,-1,41
 178 40 178 40 259 40 c 0,42,43
 308 40 308 40 349 69 c 128,-1,44
 390 98 390 98 408 148 c 0,45,46
 416 174 416 174 416 199 c 2,30,-1
272 583 m 2,47,-1
 271 583 l 2,48,49
 256 583 256 583 245 595 c 128,-1,50
 234 607 234 607 234 623 c 128,-1,51
 234 639 234 639 245.5 651 c 128,-1,52
 257 663 257 663 273 663 c 0,53,54
 288 663 288 663 299 651 c 128,-1,55
 310 639 310 639 310 623 c 128,-1,56
 310 607 310 607 299.5 595 c 128,-1,57
 289 583 289 583 272 583 c 2,47,-1
EndSplineSet
EndChar

StartChar: Gcommaaccent
Encoding: 290 290 226
Width: 624
GlyphClass: 2
Flags: W
LayerCount: 2
Fore
SplineSet
565 334 m 1,0,-1
 565 29 l 1,1,2
 478 -7 478 -7 368 -7 c 0,3,4
 221 -7 221 -7 130 81 c 0,5,6
 37 171 37 171 37 335 c 0,7,8
 37 482 37 482 130.5 581.5 c 128,-1,9
 224 681 224 681 389 681 c 0,10,11
 486 681 486 681 546 651 c 1,12,-1
 530 612 l 1,13,14
 470 641 470 641 386 641 c 0,15,16
 248 641 248 641 167.5 558 c 128,-1,17
 87 475 87 475 87 337 c 0,18,19
 87 195 87 195 164.5 114 c 128,-1,20
 242 33 242 33 376 33 c 0,21,22
 474 33 474 33 517 57 c 1,23,-1
 517 295 l 1,24,-1
 361 295 l 1,25,-1
 361 334 l 1,26,-1
 565 334 l 1,0,-1
305 -209 m 1,27,-1
 291 -183 l 1,28,29
 372 -171 372 -171 372 -115 c 0,30,31
 372 -79 372 -79 335 -54 c 1,32,-1
 375 -42 l 1,33,34
 391 -52 391 -52 403 -71 c 128,-1,35
 415 -90 415 -90 415 -112 c 0,36,37
 415 -158 415 -158 381 -181.5 c 128,-1,38
 347 -205 347 -205 305 -209 c 1,27,-1
EndSplineSet
Position2: "'cpsp' Capital Spacing lookup 0 subtable" dx=10 dy=0 dh=20 dv=0
EndChar

StartChar: gcommaaccent
Encoding: 291 291 227
Width: 544
GlyphClass: 2
Flags: W
LayerCount: 2
Fore
SplineSet
464 356 m 2,0,-1
 464 70 l 2,1,2
 464 -89 464 -89 398 -152 c 0,3,4
 338 -209 338 -209 235 -209 c 0,5,6
 138 -209 138 -209 82 -167 c 1,7,-1
 99 -129 l 1,8,9
 161 -169 161 -169 242 -169 c 0,10,11
 416 -169 416 -169 416 25 c 2,12,-1
 416 93 l 1,13,-1
 414 93 l 1,14,15
 393 53 393 53 350.5 26.5 c 128,-1,16
 308 0 308 0 247 0 c 0,17,18
 157 0 157 0 99 68 c 128,-1,19
 41 136 41 136 41 236 c 0,20,21
 41 354 41 354 106 422.5 c 128,-1,22
 171 491 171 491 257 491 c 0,23,24
 373 491 373 491 419 399 c 1,25,-1
 421 399 l 1,26,-1
 424 480 l 1,27,-1
 468 480 l 1,28,29
 464 432 464 432 464 356 c 2,0,-1
416 199 m 2,30,-1
 416 295 l 2,31,32
 416 325 416 325 410 342 c 0,33,34
 394 389 394 389 355.5 420 c 128,-1,35
 317 451 317 451 261 451 c 0,36,37
 184 451 184 451 136.5 393.5 c 128,-1,38
 89 336 89 336 89 241 c 0,39,40
 89 155 89 155 133.5 97.5 c 128,-1,41
 178 40 178 40 259 40 c 0,42,43
 308 40 308 40 348.5 69 c 128,-1,44
 389 98 389 98 408 148 c 0,45,46
 416 174 416 174 416 199 c 2,30,-1
322 700 m 1,47,-1
 335 674 l 1,48,49
 254 662 254 662 254 606 c 0,50,51
 254 570 254 570 291 544 c 1,52,-1
 251 533 l 1,53,54
 235 543 235 543 223 562 c 128,-1,55
 211 581 211 581 211 603 c 0,56,57
 211 649 211 649 245 672.5 c 128,-1,58
 279 696 279 696 322 700 c 1,47,-1
EndSplineSet
EndChar

StartChar: Hcircumflex
Encoding: 292 292 228
Width: 630
GlyphClass: 2
Flags: W
LayerCount: 2
Fore
SplineSet
81 674 m 1,0,-1
 129 674 l 1,1,-1
 129 377 l 1,2,-1
 501 377 l 1,3,-1
 501 674 l 1,4,-1
 549 674 l 1,5,-1
 549 0 l 1,6,-1
 501 0 l 1,7,-1
 501 337 l 1,8,-1
 129 337 l 1,9,-1
 129 0 l 1,10,-1
 81 0 l 1,11,-1
 81 674 l 1,0,-1
296 819 m 1,12,-1
 334 819 l 1,13,-1
 441 710 l 1,14,-1
 388 710 l 1,15,-1
 316 784 l 1,16,-1
 314 784 l 1,17,-1
 242 710 l 1,18,-1
 192 710 l 1,19,-1
 296 819 l 1,12,-1
EndSplineSet
Position2: "'cpsp' Capital Spacing lookup 0 subtable" dx=10 dy=0 dh=20 dv=0
EndChar

StartChar: hcircumflex
Encoding: 293 293 229
Width: 536
GlyphClass: 2
Flags: W
LayerCount: 2
Fore
SplineSet
81 0 m 1,0,-1
 81 711 l 1,1,-1
 129 711 l 1,2,-1
 129 394 l 1,3,-1
 131 394 l 1,4,5
 153 437 153 437 196 463 c 0,6,7
 242 491 242 491 293 491 c 0,8,9
 310 491 310 491 328 487.5 c 128,-1,10
 346 484 346 484 371 471 c 128,-1,11
 396 458 396 458 414.5 437.5 c 128,-1,12
 433 417 433 417 446.5 378.5 c 128,-1,13
 460 340 460 340 460 289 c 2,14,-1
 460 0 l 1,15,-1
 412 0 l 1,16,-1
 412 284 l 2,17,18
 412 356 412 356 380.5 402.5 c 128,-1,19
 349 449 349 449 280 449 c 0,20,21
 231 449 231 449 191 418 c 128,-1,22
 151 387 151 387 135 341 c 0,23,24
 129 323 129 323 129 293 c 2,25,-1
 129 0 l 1,26,-1
 81 0 l 1,0,-1
88 835 m 1,27,-1
 126 835 l 1,28,-1
 233 726 l 1,29,-1
 180 726 l 1,30,-1
 108 800 l 1,31,-1
 106 800 l 1,32,-1
 34 726 l 1,33,-1
 -16 726 l 1,34,-1
 88 835 l 1,27,-1
EndSplineSet
EndChar

StartChar: Hbar
Encoding: 294 294 230
Width: 630
GlyphClass: 2
Flags: W
LayerCount: 2
Fore
SplineSet
602 484 m 1,0,-1
 549 484 l 1,1,-1
 549 0 l 1,2,-1
 501 0 l 1,3,-1
 501 330 l 1,4,-1
 129 330 l 1,5,-1
 129 0 l 1,6,-1
 81 0 l 1,7,-1
 81 484 l 1,8,-1
 28 484 l 1,9,-1
 28 522 l 1,10,-1
 81 522 l 1,11,-1
 81 674 l 1,12,-1
 129 674 l 1,13,-1
 129 522 l 1,14,-1
 501 522 l 1,15,-1
 501 674 l 1,16,-1
 549 674 l 1,17,-1
 549 522 l 1,18,-1
 602 522 l 1,19,-1
 602 484 l 1,0,-1
501 370 m 1,20,-1
 501 484 l 1,21,-1
 129 484 l 1,22,-1
 129 370 l 1,23,-1
 501 370 l 1,20,-1
EndSplineSet
Position2: "'cpsp' Capital Spacing lookup 0 subtable" dx=10 dy=0 dh=20 dv=0
EndChar

StartChar: hbar
Encoding: 295 295 231
Width: 536
GlyphClass: 2
Flags: W
LayerCount: 2
Fore
SplineSet
460 0 m 1,0,-1
 412 0 l 1,1,-1
 412 284 l 2,2,3
 412 356 412 356 380.5 402.5 c 128,-1,4
 349 449 349 449 280 449 c 0,5,6
 231 449 231 449 191 418 c 128,-1,7
 151 387 151 387 135 341 c 0,8,9
 129 323 129 323 129 293 c 2,10,-1
 129 0 l 1,11,-1
 81 0 l 1,12,-1
 81 559 l 1,13,-1
 5 559 l 1,14,-1
 5 598 l 1,15,-1
 81 598 l 1,16,-1
 81 711 l 1,17,-1
 129 711 l 1,18,-1
 129 598 l 1,19,-1
 329 598 l 1,20,-1
 329 559 l 1,21,-1
 129 559 l 1,22,-1
 129 394 l 1,23,-1
 131 394 l 1,24,25
 153 437 153 437 196 463 c 0,26,27
 242 491 242 491 293 491 c 0,28,29
 310 491 310 491 328 487.5 c 128,-1,30
 346 484 346 484 371 471 c 128,-1,31
 396 458 396 458 414.5 437.5 c 128,-1,32
 433 417 433 417 446.5 378.5 c 128,-1,33
 460 340 460 340 460 289 c 2,34,-1
 460 0 l 1,0,-1
EndSplineSet
EndChar

StartChar: Itilde
Encoding: 296 296 232
Width: 211
GlyphClass: 2
Flags: W
LayerCount: 2
Fore
SplineSet
81 674 m 1,0,-1
 129 674 l 1,1,-1
 129 0 l 1,2,-1
 81 0 l 1,3,-1
 81 674 l 1,0,-1
24 716 m 1,4,-1
 -9 716 l 1,5,6
 -10 752 -10 752 7 777 c 128,-1,7
 24 802 24 802 54 802 c 0,8,9
 74 802 74 802 111 781 c 0,10,11
 143 764 143 764 161 764 c 0,12,13
 186 764 186 764 188 801 c 1,14,-1
 221 801 l 1,15,16
 221 721 221 721 161 721 c 0,17,18
 139 721 139 721 102 741 c 0,19,20
 64 760 64 760 52 760 c 0,21,22
 29 760 29 760 24 716 c 1,4,-1
EndSplineSet
Position2: "'cpsp' Capital Spacing lookup 0 subtable" dx=10 dy=0 dh=20 dv=0
EndChar

StartChar: itilde
Encoding: 297 297 233
Width: 209
GlyphClass: 2
Flags: W
LayerCount: 2
Fore
SplineSet
129 0 m 1,0,-1
 81 0 l 1,1,-1
 81 480 l 1,2,-1
 129 480 l 1,3,-1
 129 0 l 1,0,-1
28 572 m 1,4,-1
 -6 572 l 1,5,6
 -7 612 -7 612 9.5 636 c 128,-1,7
 26 660 26 660 54 660 c 0,8,9
 68 660 68 660 114 638 c 0,10,11
 142 622 142 622 156 622 c 0,12,13
 181 622 181 622 184 663 c 1,14,-1
 217 663 l 1,15,16
 217 579 217 579 157 579 c 0,17,18
 137 579 137 579 101 599 c 0,19,20
 67 617 67 617 55 617 c 0,21,22
 31 617 31 617 28 572 c 1,4,-1
EndSplineSet
EndChar

StartChar: Imacron
Encoding: 298 298 234
Width: 211
GlyphClass: 2
Flags: W
LayerCount: 2
Fore
SplineSet
81 674 m 1,0,-1
 129 674 l 1,1,-1
 129 0 l 1,2,-1
 81 0 l 1,3,-1
 81 674 l 1,0,-1
-7 772 m 1,4,-1
 221 772 l 1,5,-1
 221 733 l 1,6,-1
 -7 733 l 1,7,-1
 -7 772 l 1,4,-1
EndSplineSet
Position2: "'cpsp' Capital Spacing lookup 0 subtable" dx=10 dy=0 dh=20 dv=0
EndChar

StartChar: imacron
Encoding: 299 299 235
Width: 209
GlyphClass: 2
Flags: W
LayerCount: 2
Fore
SplineSet
129 0 m 1,0,-1
 81 0 l 1,1,-1
 81 480 l 1,2,-1
 129 480 l 1,3,-1
 129 0 l 1,0,-1
1 629 m 1,4,-1
 211 629 l 1,5,-1
 211 589 l 1,6,-1
 1 589 l 1,7,-1
 1 629 l 1,4,-1
EndSplineSet
EndChar

StartChar: Ibreve
Encoding: 300 300 236
Width: 211
GlyphClass: 2
Flags: W
LayerCount: 2
Fore
SplineSet
81 674 m 1,0,-1
 129 674 l 1,1,-1
 129 0 l 1,2,-1
 81 0 l 1,3,-1
 81 674 l 1,0,-1
-10 812 m 1,4,-1
 25 812 l 1,5,6
 38 762 38 762 105 762 c 0,7,8
 173 762 173 762 183 812 c 1,9,-1
 218 812 l 1,10,11
 216 771 216 771 188 745 c 128,-1,12
 160 719 160 719 103 719 c 0,13,14
 48 719 48 719 20 745 c 128,-1,15
 -8 771 -8 771 -10 812 c 1,4,-1
EndSplineSet
Position2: "'cpsp' Capital Spacing lookup 0 subtable" dx=10 dy=0 dh=20 dv=0
EndChar

StartChar: ibreve
Encoding: 301 301 237
Width: 209
GlyphClass: 2
Flags: W
LayerCount: 2
Fore
SplineSet
129 0 m 1,0,-1
 81 0 l 1,1,-1
 81 480 l 1,2,-1
 129 480 l 1,3,-1
 129 0 l 1,0,-1
-6 676 m 1,4,-1
 30 676 l 1,5,6
 35 644 35 644 56 623 c 128,-1,7
 77 602 77 602 109 602 c 0,8,9
 145 602 145 602 165 624 c 128,-1,10
 185 646 185 646 188 676 c 1,11,-1
 224 676 l 1,12,13
 224 625 224 625 191.5 593.5 c 128,-1,14
 159 562 159 562 109 562 c 0,15,16
 51 562 51 562 22.5 596.5 c 128,-1,17
 -6 631 -6 631 -6 676 c 1,4,-1
EndSplineSet
EndChar

StartChar: Iogonek
Encoding: 302 302 238
Width: 211
GlyphClass: 2
Flags: W
LayerCount: 2
Fore
SplineSet
129 674 m 1,0,-1
 129 0 l 1,1,-1
 123 0 l 1,2,3
 70 -64 70 -64 70 -116 c 0,4,5
 70 -165 70 -165 118 -165 c 0,6,7
 143 -165 143 -165 165 -155 c 1,8,-1
 173 -185 l 1,9,10
 149 -203 149 -203 105 -203 c 0,11,12
 70 -203 70 -203 47.5 -183 c 128,-1,13
 25 -163 25 -163 25 -128 c 0,14,15
 25 -105 25 -105 36.5 -77.5 c 128,-1,16
 48 -50 48 -50 55.5 -38.5 c 128,-1,17
 63 -27 63 -27 81 0 c 1,18,-1
 81 674 l 1,19,-1
 129 674 l 1,0,-1
EndSplineSet
Position2: "'cpsp' Capital Spacing lookup 0 subtable" dx=10 dy=0 dh=20 dv=0
EndChar

StartChar: iogonek
Encoding: 303 303 239
Width: 209
GlyphClass: 2
Flags: W
LayerCount: 2
Fore
SplineSet
104 583 m 2,0,-1
 103 583 l 2,1,2
 87 583 87 583 76.5 595 c 128,-1,3
 66 607 66 607 66 624 c 128,-1,4
 66 641 66 641 77.5 653.5 c 128,-1,5
 89 666 89 666 105 666 c 128,-1,6
 121 666 121 666 132 653.5 c 128,-1,7
 143 641 143 641 143 624 c 128,-1,8
 143 607 143 607 132 595 c 128,-1,9
 121 583 121 583 104 583 c 2,0,-1
129 480 m 1,10,-1
 129 0 l 1,11,-1
 123 0 l 1,12,13
 69 -65 69 -65 69 -116 c 0,14,15
 69 -165 69 -165 118 -165 c 0,16,17
 143 -165 143 -165 165 -155 c 1,18,-1
 173 -185 l 1,19,20
 149 -203 149 -203 105 -203 c 0,21,22
 69 -203 69 -203 46.5 -183 c 128,-1,23
 24 -163 24 -163 24 -128 c 0,24,25
 24 -79 24 -79 81 0 c 1,26,-1
 81 480 l 1,27,-1
 129 480 l 1,10,-1
EndSplineSet
EndChar

